<svg xmlns="http://www.w3.org/2000/svg" xmlns:xlink="http://www.w3.org/1999/xlink" width="424.73" height="383.86" viewBox="0 0 424.73 383.86">
  <defs>
    <clipPath id="clip-path">
      <circle id="Ellipse_755" data-name="Ellipse 755" cx="71.2" cy="71.2" r="71.2" transform="translate(178.77 76.53)" fill="none"/>
    </clipPath>
  </defs>
  <g id="Podcast_audience-rafiki" data-name="Podcast audience-rafiki" transform="translate(-39.6 -58.73)">
    <g id="freepik--background-complete--inject-22">
      <path id="Path_55994" data-name="Path 55994" d="M238.4,341.53H45.31a5.72,5.72,0,0,1-5.71-5.71V64.39a5.72,5.72,0,0,1,5.71-5.66H238.4a5.71,5.71,0,0,1,5.7,5.71h0V335.82A5.71,5.71,0,0,1,238.4,341.53ZM45.31,58.93a5.47,5.47,0,0,0-5.46,5.46V335.82a5.47,5.47,0,0,0,5.46,5.46H238.4a5.46,5.46,0,0,0,5.45-5.46V64.39a5.46,5.46,0,0,0-5.45-5.46Z" fill="#f5f5f5"/>
      <path id="Path_55995" data-name="Path 55995" d="M454.7,341.53H261.6a5.71,5.71,0,0,1-5.7-5.71V64.39a5.71,5.71,0,0,1,5.7-5.66H454.7a5.71,5.71,0,0,1,5.7,5.66V335.82A5.71,5.71,0,0,1,454.7,341.53ZM261.6,58.93a5.46,5.46,0,0,0-5.45,5.46V335.82a5.46,5.46,0,0,0,5.45,5.46H454.7a5.48,5.48,0,0,0,5.47-5.46V64.39a5.48,5.48,0,0,0-5.47-5.46Z" fill="#f5f5f5"/>
      <rect id="Rectangle_8958" data-name="Rectangle 8958" width="41.21" height="0.25" transform="translate(53.79 392.21)" fill="#e6e6e6"/>
      <rect id="Rectangle_8959" data-name="Rectangle 8959" width="41.33" height="0.25" transform="translate(137.67 390.21)" fill="#e6e6e6"/>
      <rect id="Rectangle_8960" data-name="Rectangle 8960" width="10" height="0.25" transform="translate(222.78 390.21)" fill="#e6e6e6"/>
      <rect id="Rectangle_8961" data-name="Rectangle 8961" width="46.25" height="0.25" transform="translate(86.58 398.75)" fill="#e6e6e6"/>
      <rect id="Rectangle_8962" data-name="Rectangle 8962" width="21.6" height="0.25" transform="translate(271.2 392.08)" fill="#e6e6e6"/>
      <rect id="Rectangle_8963" data-name="Rectangle 8963" width="27.93" height="0.25" transform="translate(301.7 392.08)" fill="#e6e6e6"/>
      <rect id="Rectangle_8964" data-name="Rectangle 8964" width="62.44" height="0.25" transform="translate(401.89 396.31)" fill="#e6e6e6"/>
      <path id="Path_55996" data-name="Path 55996" d="M47.77,103H144c12.33,0,15.3-17.26,3.66-21.31l-.45-.15c12.88-10.73-15.38-33.36-46.07-2,2.39-10.45-24.89-6.67-33.24,7.58C64.93,77.77,38.92,94,47.77,103Z" fill="#e6e6e6"/>
      <path id="Path_55997" data-name="Path 55997" d="M294.59,96.85H349s12.75-4.8,11.1-17.52-20.9-2.12-20.9-2.12,5.8-17.75-12.84-12.72S305.9,87.12,305.9,87.12,281.42,82.85,294.59,96.85Z" fill="#ebebeb"/>
      <path id="Path_55998" data-name="Path 55998" d="M437.42,313.14l-32-.12a4.69,4.69,0,0,0-4.7,4.7V329a4.71,4.71,0,0,1-4.71,4.71H349a4.71,4.71,0,0,1-4.71-4.7V287.56a4.7,4.7,0,0,0-4.72-4.68h-10a4.7,4.7,0,0,1-4.7-4.71V255.55a4.71,4.71,0,0,0-4.71-4.7H303.8a4.71,4.71,0,0,0-4.71,4.7v6.66a4.7,4.7,0,0,1-4.7,4.71h-1.54a4.69,4.69,0,0,1-4.69-4.7V237.6a4.71,4.71,0,0,0-4.72-4.71H267.22a4.73,4.73,0,0,0-4.72,4.71v24.66a4.69,4.69,0,0,1-4.69,4.7h-5.06a4.7,4.7,0,0,1-4.7-4.7v-49.7h0v-24.9h-1V203c-.09-.13-.18-.26-.28-.38l-37.36-21.45c-.78-.86-1.23,0-1.23-1.15v-30.7l-2.57-1.84L159,114V100.7h-1v12.59l-.19-.14V262.27a4.71,4.71,0,0,1-4.72,4.71H147a4.69,4.69,0,0,1-4.7-4.7l-1.47-55.67a3.76,3.76,0,0,0-.38-1.54l-9.12-19h-.68V164.51a3.8,3.8,0,0,0-3.8-3.81H125V145.46h-1V160.7h-1a3.81,3.81,0,0,0-3.81,3.81v1h-4.27v-1a3.8,3.8,0,0,0-3.8-3.81H109.5V145.46h-1V160.7h-1.18a3.81,3.81,0,0,0-3.81,3.81V186h-.68l-9.12,19a3.76,3.76,0,0,0-.38,1.54l-1.5,55.61a4.7,4.7,0,0,1-4.7,4.71H78.51a4.7,4.7,0,0,0-4.69,4.7v6.48a4.7,4.7,0,0,1-4.71,4.7H63a4.68,4.68,0,0,0-4.64,3.89L41.94,372.78a5.27,5.27,0,0,0-.09.89,4.73,4.73,0,0,0,4.73,4.7H437.37C438.36,378.37,437.42,313.14,437.42,313.14Z" fill="#f0f0f0"/>
      <path id="Path_55999" data-name="Path 55999" d="M399.83,111.56c-.91-7-7-5.37-7-5.37s3.21-9.77-7.05-7a15.21,15.21,0,0,0-7.35,4.32,11.73,11.73,0,0,0,.14,16c3,3.08,7.27,7.37,15.23,3C396,121.4,400.73,118.56,399.83,111.56Z" fill="#f0f0f0"/>
      <path id="Path_56000" data-name="Path 56000" d="M405.3,143.55a4.63,4.63,0,1,1-1.356-3.284A4.64,4.64,0,0,1,405.3,143.55Z" fill="#f5f5f5"/>
      <rect id="Rectangle_8965" data-name="Rectangle 8965" width="26.3" height="48.83" transform="translate(392.26 164.19)" fill="#ebebeb"/>
      <rect id="Rectangle_8966" data-name="Rectangle 8966" width="26.3" height="48.83" transform="translate(384.93 164.19)" fill="#f5f5f5"/>
      <rect id="Rectangle_8967" data-name="Rectangle 8967" width="39.24" height="10.64" transform="translate(381.49 153.55)" fill="#f5f5f5"/>
      <rect id="Rectangle_8968" data-name="Rectangle 8968" width="6.04" height="10.64" transform="translate(414.68 153.55)" fill="#ebebeb"/>
      <rect id="Rectangle_8969" data-name="Rectangle 8969" width="178.38" height="132.4" transform="translate(263.86 246.08)" fill="#e6e6e6"/>
      <path id="Path_56001" data-name="Path 56001" d="M354.56,145.17,253.64,246.08H455.47Z" fill="#f5f5f5"/>
      <rect id="Rectangle_8970" data-name="Rectangle 8970" width="201.83" height="11.64" transform="translate(253.64 246.08)" fill="#e0e0e0"/>
      <path id="Path_56002" data-name="Path 56002" d="M73,171.44h0a1.87,1.87,0,0,0-1.87,1.88V398.86h3.75V173.29A1.88,1.88,0,0,0,73,171.44Z" fill="#e0e0e0"/>
      <circle id="Ellipse_747" data-name="Ellipse 747" cx="24.41" cy="24.41" r="24.41" transform="translate(50.93 178.68)" fill="#e0e0e0"/>
      <circle id="Ellipse_748" data-name="Ellipse 748" cx="24.41" cy="24.41" r="24.41" transform="translate(53.94 178.68)" fill="#fafafa"/>
      <path id="Path_56003" data-name="Path 56003" d="M93.84,198.7v-.07a2.21,2.21,0,0,0-2.15-2H63.33a1.84,1.84,0,0,0-1.85,2h.38l.56,6.46h-.37l.43,4.91h5.39s-.07-.58-.1-.9a2.6,2.6,0,0,1,2.63-2.88,3.21,3.21,0,0,1,3.13,2.88,6.579,6.579,0,0,0,.11.9h9v-.9a2.6,2.6,0,0,1,2.63-2.88,3.21,3.21,0,0,1,3.13,2.88c0,.32.06.9.06.9h6.47l-.68-7.87H93.4l-.3-3.49ZM66.17,209H63.45l-.9-10.32h2.71Zm4.15-6.82h-3.5l-.31-3.5H70Zm5.65,0H72.45l-.3-3.5h3.51Zm5.63,0H78.1l-.31-3.5H81.3Zm5.65,0H83.74l-.3-3.5h3.5ZM92.46,209H89.75l-.9-10.32h2.71Z" fill="#e0e0e0"/>
      <path id="Path_56004" data-name="Path 56004" d="M70.49,206.91a2.06,2.06,0,0,0-2.08,2.28,2.54,2.54,0,0,0,2.48,2.28A2.05,2.05,0,0,0,73,209.19a2.54,2.54,0,0,0-2.51-2.28Zm.3,3.43a1.27,1.27,0,0,1-1.23-1.15,1,1,0,0,1,1-1.13,1.27,1.27,0,0,1,1.25,1.13,1,1,0,0,1-1.02,1.15Z" fill="#e0e0e0"/>
      <path id="Path_56005" data-name="Path 56005" d="M85.26,206.91a2.05,2.05,0,0,0-2.08,2.28,2.53,2.53,0,0,0,2.48,2.28,2,2,0,0,0,2.08-2.28,2.54,2.54,0,0,0-2.48-2.28Zm.3,3.43a1.28,1.28,0,0,1-1.24-1.15,1,1,0,0,1,1-1.13,1.26,1.26,0,0,1,1.24,1.13,1,1,0,0,1-1,1.15Z" fill="#e0e0e0"/>
      <path id="Path_56006" data-name="Path 56006" d="M104.16,289.7v17.52h80.12V289.7Zm8.15,14.87h-5.88V292.52h5.88Zm14-6.18h-5.87v-5.87h5.87Zm14,0h-5.87v-5.87h5.87Zm14,0H148.3v-5.87h5.88Zm14,0h-5.88v-5.87h5.88Zm14,6.18h-5.87V292.52h5.87Z" fill="#e6e6e6"/>
      <rect id="Rectangle_8971" data-name="Rectangle 8971" width="12.01" height="1.59" transform="translate(114.25 288.11)" fill="#e6e6e6"/>
      <rect id="Rectangle_8972" data-name="Rectangle 8972" width="12.01" height="1.59" transform="translate(162.21 288.11)" fill="#e6e6e6"/>
      <path id="Path_56007" data-name="Path 56007" d="M117.89,310.05a2.66,2.66,0,1,1-2.66-2.66,2.66,2.66,0,0,1,2.66,2.66Z" fill="#e6e6e6"/>
      <path id="Path_56008" data-name="Path 56008" d="M128,310.05a2.67,2.67,0,1,1-2.67-2.66,2.67,2.67,0,0,1,2.67,2.66Z" fill="#e6e6e6"/>
      <path id="Path_56009" data-name="Path 56009" d="M165.85,310.05a2.67,2.67,0,1,1-2.67-2.66,2.67,2.67,0,0,1,2.67,2.66Z" fill="#e6e6e6"/>
      <path id="Path_56010" data-name="Path 56010" d="M175.92,310.05a2.67,2.67,0,1,1-2.66-2.66,2.67,2.67,0,0,1,2.66,2.66Z" fill="#e6e6e6"/>
      <path id="Path_56011" data-name="Path 56011" d="M184.81,289.7v17.52h80.12V289.7ZM193,304.57h-5.88V292.52H193Zm13.95-6.18H201v-5.87h5.87Zm14,0H215v-5.87h5.87Zm14,0H229v-5.87h5.88Zm14,0h-5.88v-5.87h5.88Zm14,6.18h-5.87V292.52h5.87Z" fill="#e6e6e6"/>
      <rect id="Rectangle_8973" data-name="Rectangle 8973" width="12.01" height="1.59" transform="translate(194.9 288.11)" fill="#e6e6e6"/>
      <rect id="Rectangle_8974" data-name="Rectangle 8974" width="12.01" height="1.59" transform="translate(242.86 288.11)" fill="#e6e6e6"/>
      <path id="Path_56012" data-name="Path 56012" d="M198.54,310.05a2.66,2.66,0,1,1-2.66-2.66A2.66,2.66,0,0,1,198.54,310.05Z" fill="#e6e6e6"/>
      <path id="Path_56013" data-name="Path 56013" d="M208.62,310.05a2.67,2.67,0,1,1-2.67-2.66,2.67,2.67,0,0,1,2.67,2.66Z" fill="#e6e6e6"/>
      <path id="Path_56014" data-name="Path 56014" d="M246.5,310.05a2.67,2.67,0,1,1-2.67-2.66,2.67,2.67,0,0,1,2.67,2.66Z" fill="#e6e6e6"/>
      <path id="Path_56015" data-name="Path 56015" d="M256.57,310.05a2.67,2.67,0,1,1-2.66-2.66A2.67,2.67,0,0,1,256.57,310.05Z" fill="#e6e6e6"/>
      <path id="Path_56016" data-name="Path 56016" d="M263.86,378.37H73.87l10.45-65.64H263.86Z" fill="#e6e6e6"/>
    </g>
    <g id="freepik--Shadows--inject-22">
      <g id="freepik--Shadow--inject-214--inject-22">
        <ellipse id="freepik--path--inject-214--inject-22" cx="193.89" cy="11.32" rx="193.89" ry="11.32" transform="translate(56.11 419.95)" fill="#f5f5f5"/>
      </g>
    </g>
    <g id="freepik--character-1--inject-22">
      <path id="Path_56017" data-name="Path 56017" d="M107.8,260.52s7.59,53,20.18,78.59c13.1,26.57,39.52,69.57,39.52,69.57l6.78-3.16s-9.2-36.43-29.86-72.36c-8.56-31-12.89-82.54-12.89-82.54Z" fill="#ffb573"/>
      <path id="Path_56018" data-name="Path 56018" d="M107.8,260.52s7.59,53,20.18,78.59c13.1,26.57,39.52,69.57,39.52,69.57l6.78-3.16s-9.2-36.43-29.86-72.36c-8.56-31-12.89-82.54-12.89-82.54Z" fill="#263238" opacity="0.8" style="isolation: isolate"/>
      <path id="Path_56019" data-name="Path 56019" d="M107.79,252.53S95.73,303.8,96.34,332.28c.64,29.62,6.4,79.76,6.4,79.76h7.48s7.06-36.9,3.53-78.2c20.47-41.94,25.71-78,25.71-78Z" fill="#ffb573"/>
      <path id="Path_56020" data-name="Path 56020" d="M107.79,252.53S95.73,303.8,96.34,332.28c.64,29.62,6.4,79.76,6.4,79.76h7.48s7.06-36.9,3.53-78.2c20.47-41.94,25.71-78,25.71-78Z" fill="#263238" opacity="0.8" style="isolation: isolate"/>
      <path id="Path_56021" data-name="Path 56021" d="M106.25,247.32c-2.6,3.15-6.14,5.36-9.6,7.51q-3.8,2.34-7.56,4.69c-2.6,1.61-5.37,3.27-8.42,3.23s-5.76-5.64-5-6.76c4.28-6.51,14.38-13.32,17.79-18.27A23.049,23.049,0,0,0,95,233.9c0-2.1.24-10.1.24-10.1-.74-12.23,2.91-25.45,5.67-27.71,4-3.27,6.15-5.51,9-2.24,1.87,2.18-1.07,23.57-.94,34.57h0c0,.32.73,5.36.83,6.68C110.29,241.78,108.85,244.18,106.25,247.32Z" fill="#af0606"/>
      <path id="Path_56022" data-name="Path 56022" d="M106.25,247.32c-2.6,3.15-6.14,5.36-9.6,7.51q-3.8,2.34-7.56,4.69c-2.6,1.61-5.37,3.27-8.42,3.23s-5.76-5.64-5-6.76c4.28-6.51,14.38-13.32,17.79-18.27A23.049,23.049,0,0,0,95,233.9c0-2.1.24-10.1.24-10.1-.74-12.23,2.91-25.45,5.67-27.71,4-3.27,6.15-5.51,9-2.24,1.87,2.18-1.07,23.57-.94,34.57h0c0,.32.73,5.36.83,6.68C110.29,241.78,108.85,244.18,106.25,247.32Z" opacity="0.2"/>
      <path id="Path_56023" data-name="Path 56023" d="M75.83,258.86l-7.54.34L72.5,267s4.21-2.14,5.49-5.4Z" fill="#ffb573"/>
      <path id="Path_56024" data-name="Path 56024" d="M63.99,262.92l2.86,6.36,5.61-2.31-4.22-7.76Z" fill="#ffb573"/>
      <path id="Path_56025" data-name="Path 56025" d="M72.39,255.61l5.45,10.87,5.88-.59-7.78-14.64Z" fill="#af0606"/>
      <path id="Path_56026" data-name="Path 56026" d="M72.39,255.61l5.45,10.87,5.88-.59-7.78-14.64Z" fill="#fff" opacity="0.4"/>
      <path id="Path_56027" data-name="Path 56027" d="M111,414.28a6.44,6.44,0,0,1,.63,3.05c-.07,3.84-.49,14-.49,14h-.9s-.2-5-.64-7.53-1-.41-2.55,2.22-5.55,5.17-11.39,5.31c-6.85.16-9.62-.14-7.63-1.8s6.53-2.73,6.53-2.73,6.57-9.15,6.66-15.61c.09-6.92,8.12.1,9.83-.76C111.64,410.55,110.73,413.7,111,414.28Z" fill="#263238"/>
      <path id="Path_56028" data-name="Path 56028" d="M176,407.21a6.57,6.57,0,0,1,1.86,2.5c1.56,3.51,5.47,12.9,5.47,12.9l-.82.38s-2.29-4.45-3.76-6.56-1.08.05-1.37,3.09-2.85,7-8.08,9.63c-6.14,3-8.78,3.94-7.68,1.59s4.77-5.23,4.77-5.23,2.09-11.07-.56-17c-2.85-6.31,7.4-3.34,8.58-4.85C174.94,403.57,175.45,406.81,176,407.21Z" fill="#263238"/>
      <path id="Path_56029" data-name="Path 56029" d="M88.45,236.19l-8.61,31.05c-.62,2.25-1.22,4.76-.14,6.82,1.65,3.15,6,3.37,9.55,3.15l16.48-1c2.87-.17,6.2-.61,7.69-3.07a8.783,8.783,0,0,0,.77-5q-.66-14.81-2.65-29.51c-.77-5.69-2.47-12.52-9.23-12.54C95.17,226.06,90.34,229.41,88.45,236.19Z" fill="#263238"/>
      <path id="Path_56030" data-name="Path 56030" d="M88.45,236.19l-8.61,31.05c-.62,2.25-1.22,4.76-.14,6.82,1.65,3.15,6,3.37,9.55,3.15l16.48-1c2.87-.17,6.2-.61,7.69-3.07a8.783,8.783,0,0,0,.77-5q-.66-14.81-2.65-29.51c-.77-5.69-2.47-12.52-9.23-12.54C95.17,226.06,90.34,229.41,88.45,236.19Z" fill="#fafafa" opacity="0.1"/>
      <path id="Path_56031" data-name="Path 56031" d="M141.63,321.73c-4.49.63-8.63,3.48-20.31,3.84h-2.23c-3.13,0-20.88-2-24.07-4.07,4.74-28.43,10.49-59.89,11.45-65.64h0l.78-4.66-.4-1.6v-.41l15.93.58,17.93.66S154.28,272.82,141.63,321.73Z" fill="#263238"/>
      <path id="Path_56032" data-name="Path 56032" d="M106,192.89c3-.81,8.14-2.11,12.84-2.95a120.8,120.8,0,0,1,16.67-1.52c3.54-.15,7,0,9.77.12a4.63,4.63,0,0,1,4.15,5.86c-7.53,26.91-8.71,38.89-9,52.78l-32.95-1a1.59,1.59,0,0,1-1.52-1.38c-1.61-11.76-4.8-21.37-5.08-28.27a80.391,80.391,0,0,1,1.78-19.9,4.61,4.61,0,0,1,3.34-3.74Z" fill="#af0606"/>
      <path id="Path_56033" data-name="Path 56033" d="M106,192.89c3-.81,8.14-2.11,12.84-2.95a120.8,120.8,0,0,1,16.67-1.52c3.54-.15,7,0,9.77.12a4.63,4.63,0,0,1,4.15,5.86c-7.53,26.91-8.71,38.89-9,52.78l-32.84-1a1.71,1.71,0,0,1-1.64-1.49c-1.62-11.7-4.79-21.28-5.07-28.16a80.391,80.391,0,0,1,1.78-19.9,4.61,4.61,0,0,1,3.34-3.74Z" opacity="0.1"/>
      <path id="Path_56034" data-name="Path 56034" d="M93.64,233.5l-1.88-.69a151.881,151.881,0,0,0,6.55-24.6c1.86-9.51,2.89-14.75,10-16.16l.38,2c-5.8,1.14-6.62,5.35-8.42,14.58a155.418,155.418,0,0,1-6.63,24.87Z" fill="#263238"/>
      <path id="Path_56035" data-name="Path 56035" d="M93.64,233.5l-1.88-.69a151.881,151.881,0,0,0,6.55-24.6c1.86-9.51,2.89-14.75,10-16.16l.38,2c-5.8,1.14-6.62,5.35-8.42,14.58a155.418,155.418,0,0,1-6.63,24.87Z" fill="#fafafa" opacity="0.1"/>
      <path id="Path_56036" data-name="Path 56036" d="M149.62,190.58a6.76,6.76,0,0,0-10.93,3.31c-1.1,3.4,7,34.16,7,34.17,0,4,11.91,10,11.91,10C161.5,232.9,151.81,192.43,149.62,190.58Z" fill="#af0606"/>
      <path id="Path_56037" data-name="Path 56037" d="M139.41,210.15c-1.11-3-3.57-10-6.73-10.11-1.91-.07-5.79.27-6.7,2s.16,7.83,2.27,17.74c1.27,6,4.23,12.89,8.18,17.58s8.76,8,14.77,6.76c2.78-.58,5.51-2.27,6.49-4.93,3-8.2-3.55-12.58-8.07-16C144.13,219,141.72,216.39,139.41,210.15Z" fill="#af0606"/>
      <path id="Path_56038" data-name="Path 56038" d="M140.46,188.41l-1.24,1.89c-4.78,7.32-15.25,16.41-19.14,17.11a14,14,0,0,0-3.64-5.53,8.32,8.32,0,0,0-4.61,4.68c-2.93-5.48-2.2-12.12-1.15-15.37h0c2-.45,4.07-.9,6.07-1.25a121.067,121.067,0,0,1,16.67-1.51A57.128,57.128,0,0,1,140.46,188.41Z" fill="#af0606"/>
      <path id="Path_56039" data-name="Path 56039" d="M140.46,188.41l-1.24,1.89c-4.78,7.32-15.25,16.41-19.14,17.11a14,14,0,0,0-3.64-5.53,8.32,8.32,0,0,0-4.61,4.68c-2.93-5.48-2.2-12.12-1.15-15.37h0c2-.45,4.07-.9,6.07-1.25a121.067,121.067,0,0,1,16.67-1.51A57.128,57.128,0,0,1,140.46,188.41Z" fill="#fff" opacity="0.2"/>
      <path id="Path_56040" data-name="Path 56040" d="M97.74,160.1c.54,3.83,0,10.8-5.12,18.44-6.6,9.79,7.86,16,17.48,15.3,8.54-.62,27.49-9.08,30.76-16.06s-5.47-7-8.17-19.6-12.19-10.82-19.94-10.83C102.12,145,96.63,152.27,97.74,160.1Z" fill="#263238"/>
      <path id="Path_56041" data-name="Path 56041" d="M116.88,184.11c2.27,3.07,3.94,6.7.37,10.76a4.9,4.9,0,0,0-1.28,3.07c0,1.82,1,3.6,7,.09,8.62-5.07,7.9-10.8,7.9-10.8-4.53-1.37-7.24-10.89-8.29-16.33Z" fill="#ffb573"/>
      <path id="Path_56042" data-name="Path 56042" d="M122.07,179.07c.66,2.32-1.8,6-3.66,7.48a15.88,15.88,0,0,0-1.52-2.45l3.35-7.81a8.35,8.35,0,0,1,1.83,2.78Z" opacity="0.2" style="isolation: isolate"/>
      <path id="Path_56043" data-name="Path 56043" d="M124.53,156.68A12.11,12.11,0,0,0,108,152.37c-8.13,4.71-7.52,17.89-4.53,25.51,3.27,8.47,14.32,9.55,20,1.85,3.84-5.13,3.36-8.87,2.68-17.71a12.25,12.25,0,0,0-1.62-5.34Z" fill="#ffb573"/>
      <path id="Path_56044" data-name="Path 56044" d="M112.77,166.86a.75.75,0,0,0-.68.09.72.72,0,0,0-.16.66l-.74.1a1.33,1.33,0,0,1,1.75-1.57,4.33,4.33,0,0,1,2.38,1.62l-.63.38a3.71,3.71,0,0,0-1.92-1.28Z" fill="#263238"/>
      <path id="Path_56045" data-name="Path 56045" d="M104.76,168.45a.79.79,0,0,0-.38-.51.88.88,0,0,0-.64,0,1.17,1.17,0,0,0-.74,1.11l-.74-.05a1.88,1.88,0,0,1,1.22-1.75,1.14,1.14,0,0,1,.26-.09,1.43,1.43,0,0,1,1.73,1Z" fill="#263238"/>
      <path id="Path_56046" data-name="Path 56046" d="M108.1,174a3.13,3.13,0,0,1-2.61-.13,19.25,19.25,0,0,0,1.91-4.92Z" fill="#ed893e"/>
      <path id="Path_56047" data-name="Path 56047" d="M114.88,173.66a.21.21,0,0,0-.1-.28.22.22,0,0,0-.29.1,5.63,5.63,0,0,1-4.3,2.85.23.23,0,0,0-.17.24h0a.2.2,0,0,0,.23.17,5.822,5.822,0,0,0,1-.2,6,6,0,0,0,3.63-2.88Z" fill="#263238"/>
      <path id="Path_56048" data-name="Path 56048" d="M99.38,154.32c-3,3.85,2.15,8.38,2.89,6,1.19-3.95,4.58-4.88,4.56-8.19C106.79,146.91,102.4,150.48,99.38,154.32Z" fill="#263238"/>
      <path id="Path_56049" data-name="Path 56049" d="M114,161.84h0a.42.42,0,0,0-.09-.59c-1.93-1.45-4.66-.61-4.78-.57a.421.421,0,1,0,.26.8s2.4-.78,4,.43a.41.41,0,0,0,.49,0Z" fill="#263238"/>
      <path id="Path_56050" data-name="Path 56050" d="M101,164.6a3.29,3.29,0,0,1,2.65-1.52h0a.43.43,0,0,0,.44-.42.42.42,0,0,0-.42-.43,4.22,4.22,0,0,0-3.38,1.89h0a.41.41,0,0,0,.12.58.4.4,0,0,0,.41,0,.49.49,0,0,0,.18-.1Z" fill="#263238"/>
      <path id="Path_56051" data-name="Path 56051" d="M111.87,154.91a9.15,9.15,0,0,1,6.35,4.61,16.27,16.27,0,0,0,1.85,3.35c.83.93,3.61,4.74,4.6,5.49s.64-2.2,1.58-2.77a18,18,0,0,0,2.88-1.62,4.84,4.84,0,0,0,1.46-4.12,9,9,0,0,0-1.69-4.17,16.06,16.06,0,0,0-22.59-4c-1.12.8-4.29,4.18-1.45,4.59.86.12,2.36-1,3.24-1.25a9,9,0,0,1,3.77-.11Z" fill="#263238"/>
      <path id="Path_56052" data-name="Path 56052" d="M129.38,167.53c-2.63-3.16-6.28-3.54-9.52-3.88a12,12,0,0,1-4.49-1c-3.11-1.76-4.62-6.61-4.82-8.18a3.87,3.87,0,0,0-2.45-2.84,3.37,3.37,0,0,0-2.85.92c-.66.78-.73,2-.2,3.63l-.47.15c-.6-1.8-.5-3.18.29-4.11a3.94,3.94,0,0,1,3.31-1.08,4.3,4.3,0,0,1,2.86,3.27c.19,1.44,1.67,6.16,4.58,7.8a11.79,11.79,0,0,0,4.29.93c3.17.33,7.1.74,9.86,4.05Z" fill="#263238"/>
      <path id="Path_56053" data-name="Path 56053" d="M129.38,167.53c-2.63-3.16-6.28-3.54-9.52-3.88a12,12,0,0,1-4.49-1c-3.11-1.76-4.62-6.61-4.82-8.18a3.87,3.87,0,0,0-2.45-2.84,3.37,3.37,0,0,0-2.85.92c-.66.78-.73,2-.2,3.63l-.47.15c-.6-1.8-.5-3.18.29-4.11a3.94,3.94,0,0,1,3.31-1.08,4.3,4.3,0,0,1,2.86,3.27c.19,1.44,1.67,6.16,4.58,7.8a11.79,11.79,0,0,0,4.29.93c3.17.33,7.1.74,9.86,4.05Z" fill="#fff" opacity="0.1"/>
      <path id="Path_56054" data-name="Path 56054" d="M129.67,167.56a2.92,2.92,0,0,0-3.27-2.5c-2.2.33-3.2,3.29-3.2,5.23,0,2.14,1.6,3.72,3.53,2.52a6.53,6.53,0,0,0,2.85-4.06,3,3,0,0,0,.09-1.19Z" fill="#ffb573"/>
      <path id="Path_56055" data-name="Path 56055" d="M128.55,170a2,2,0,1,1-1.36-2.57,2.05,2.05,0,0,1,1.36,2.57Z" fill="#fff"/>
      <rect id="Rectangle_8975" data-name="Rectangle 8975" width="1.615" height="4.322" transform="translate(126.626 171.047) rotate(16.809)" fill="#fff"/>
      <path id="Path_56056" data-name="Path 56056" d="M127.57,168.83a.381.381,0,1,1-.25-.47A.38.38,0,0,1,127.57,168.83Z" fill="#263238"/>
      <rect id="Rectangle_8976" data-name="Rectangle 8976" width="21.98" height="11.1" rx="1.34" transform="matrix(0.751, -0.66, 0.66, 0.751, 115.61, 190.855)" fill="#af0606"/>
      <path id="Path_56057" data-name="Path 56057" d="M130.23,197.72l2.45-7.14-8.8,1.1s.45,4.7,3,7.1Z" fill="#ffb573"/>
      <path id="Path_56058" data-name="Path 56058" d="M130.17,183.58l-6.36,2.01.1,6.07,8.77-1.08Z" fill="#ffb573"/>
      <path id="Path_56059" data-name="Path 56059" d="M135.08,196.67l-12.1,2.37.3,5.51,14.12-3.12Z" fill="#af0606"/>
      <path id="Path_56060" data-name="Path 56060" d="M135.08,196.67l-12.1,2.37.3,5.51,14.12-3.12Z" fill="#fff" opacity="0.4"/>
      <path id="Path_56061" data-name="Path 56061" d="M140.17,250.86l-16.61-.67-1.39-.06-3.59-.15H117.2l-9.75-.4c-.3-.05-.56-.18-.56-.37l-.18-3.08c0-.21.26-.38.6-.37L117,246h1.16l4.77.14h1.13l16,.45a.64.64,0,0,1,.56.28l.14,3.49C140.86,250.64,140.56,250.87,140.17,250.86Z" fill="#af0606"/>
      <path id="Path_56062" data-name="Path 56062" d="M140.17,250.86l-16.61-.67-1.39-.06-3.59-.15H117.2l-9.75-.4c-.3-.05-.56-.18-.56-.37l-.18-3.08c0-.21.26-.38.6-.37L117,246h1.16l4.77.14h1.13l16,.45a.64.64,0,0,1,.56.28l.14,3.49C140.86,250.64,140.56,250.87,140.17,250.86Z" fill="#fff" opacity="0.2"/>
      <path id="Path_56063" data-name="Path 56063" d="M112,250.12h1.07a.3.3,0,0,0,.38-.24l-.3-4.36c0-.13-.19-.26-.41-.27l-1.07-.05c-.22,0-.38.1-.38.23l.3,4.38a.44.44,0,0,0,.41.31Z" fill="#263238"/>
      <path id="Path_56064" data-name="Path 56064" d="M130.5,251.09h1a.28.28,0,0,0,.35-.22l-.28-4.38c0-.12-.19-.25-.39-.25h-1c-.2,0-.36.08-.36.22l.29,4.36C130.13,251,130.3,251.07,130.5,251.09Z" fill="#263238"/>
      <circle id="Ellipse_749" data-name="Ellipse 749" cx="1.3" cy="1.3" r="1.3" transform="translate(114.81 207.74)" fill="#fff" opacity="0.4"/>
      <path id="Path_56065" data-name="Path 56065" d="M118.19,223.32a1.3,1.3,0,1,1-1.3-1.3,1.3,1.3,0,0,1,1.3,1.3Z" fill="#fff" opacity="0.4"/>
    </g>
    <g id="freepik--character-2--inject-22">
      <path id="Path_56066" data-name="Path 56066" d="M328.18,244s.51,5.69,10.57,9.28,6.81-2.95,6.81-2.95c-4.62-3.15-4.39-6.59-2.72-9.91a21.44,21.44,0,0,1,1.37-2.42l-4.4-7.68-3.23-5.63C335.77,230.82,333.41,241.64,328.18,244Z" fill="#7f3e3b"/>
      <path id="Path_56067" data-name="Path 56067" d="M359.78,222.38c.42.1.65.72.52,1.36s-.58,1.09-1,1-.64-.72-.52-1.37S359.36,222.28,359.78,222.38Z" fill="#263238"/>
      <path id="Path_56068" data-name="Path 56068" d="M356.87,220.43a.4.4,0,0,1,0-.56,4,4,0,0,1,3.37-1.28h0a.39.39,0,0,1-.13.77,3.27,3.27,0,0,0-2.67,1,.38.38,0,0,1-.35.12.47.47,0,0,1-.22-.05Z" fill="#263238"/>
      <path id="Path_56069" data-name="Path 56069" d="M357.51,228.92a3.23,3.23,0,0,0,2.71.32,21,21,0,0,1-1.28-5.47Z" fill="#630f0f"/>
      <path id="Path_56070" data-name="Path 56070" d="M339.8,210.65a10.75,10.75,0,0,1,15.06-2c7,5.07,5.67,17.16,2.49,23.91a10.63,10.63,0,0,1-18.79,1.15c-3.15-5-2.05-9.73-.88-17.81A10.79,10.79,0,0,1,339.8,210.65Z" fill="#7f3e3b"/>
      <path id="Path_56071" data-name="Path 56071" d="M353.77,220.58c1.94,1.09,2.09,5,1.64,7.3-.52,2.57-2.36,4-3.81,1.94a9.61,9.61,0,0,1-1.57-5.75C350.14,221.45,351.83,219.49,353.77,220.58Z" fill="#7f3e3b"/>
      <path id="Path_56072" data-name="Path 56072" d="M357.12,232.81a1.64,1.64,0,0,1-1.61-1.94v-.11l.49.1v.11a1.13,1.13,0,0,0,1.31,1.32l.08.5Z"/>
      <path id="Path_56073" data-name="Path 56073" d="M362.85,213.26a11,11,0,0,1-3.27,3.4,5,5,0,0,1-.82.45c-1.74.8-3.67,1-5.1-.29a5.63,5.63,0,0,1-.27,3.57,11.31,11.31,0,0,1-2.61,3.91,5.491,5.491,0,0,0,.18-3.08,3.08,3.08,0,0,0-1.15-1.6,2.81,2.81,0,0,0-4.06.72,5.22,5.22,0,0,0-.25,4,10.33,10.33,0,0,1,.58,4c-.21,1.35-1.37,2.68-2.72,2.46a3.44,3.44,0,0,1-2.23,1.85,3.91,3.91,0,0,1-3.44-.55,2.78,2.78,0,0,1-.52-.51,3.74,3.74,0,0,1-2.18,1.14,3.69,3.69,0,0,1-4.32-3.47,3.81,3.81,0,0,1-2.29-7.15,4.39,4.39,0,0,1,.61-8.3c-1.57-2.14,0-5.23,1.82-6.19a2.421,2.421,0,0,1,.51-.19,1.89,1.89,0,0,1,.94,0h.15a1.7,1.7,0,0,1,.45.22.19.19,0,0,0,.11,0A13.122,13.122,0,0,0,334.2,206l.17-.24a2.073,2.073,0,0,0,.19-.25c.77-1,1.51-2,1.53-1.5a7.62,7.62,0,0,1,13-5.82,5.08,5.08,0,0,1,8.88,2.05c2.88-.94,6.09,1.44,6.87,4.37S364.52,210.71,362.85,213.26Z" fill="#263238"/>
      <g id="freepik--group--inject-22">
        <path id="Path_56074" data-name="Path 56074" d="M388.4,401.26l7.19-2.49,2.45,17.79-7.19,2.48Z" fill="#7f3e3b"/>
        <path id="Path_56075" data-name="Path 56075" d="M389.6,410.97l7.3-1.68-1.37-9.96-7.19,2.48Z" opacity="0.2" style="isolation: isolate"/>
        <path id="Path_56076" data-name="Path 56076" d="M399.79,416.21c2.43,1.23,6.47,1.84,12.66,1.65,1.43,0,2.26,3-.84,3.76s-9.26,2.18-11.52,2.64a55.454,55.454,0,0,0-5.88,1.52,3.13,3.13,0,0,1-3.91-2.11,2.73,2.73,0,0,1-.08-.76s.53-6.17.82-6.23l6.34-2.62C397.83,414,398.37,415.79,399.79,416.21Z" fill="#7f3e3b"/>
        <path id="Path_56077" data-name="Path 56077" d="M315.33,314.15a56.749,56.749,0,0,0,4.2,20c5.23,12.54,37.5,9.94,51.62,9.34-1,17.28,14.8,64.19,14.8,64.19l12.82-3.41S392.7,360.38,393,336.5c.31-21.8-50-23.91-50-23.91Z" fill="#af0606"/>
        <path id="Path_56078" data-name="Path 56078" d="M315.33,314.15a56.749,56.749,0,0,0,4.2,20c5.23,12.54,37.5,9.94,51.62,9.34-1,17.28,14.62,63.64,14.62,63.64l13-3.75s-6.07-43-5.73-66.92c.31-21.8-50-23.91-50-23.91Z" fill="#fff" opacity="0.3"/>
        <path id="Path_56079" data-name="Path 56079" d="M382.51,401.3l16.89-4.5.58,7.27-15.74,5.01Z" fill="#af0606"/>
        <path id="Path_56080" data-name="Path 56080" d="M417.92,405.55l6.81-3.41,5.51,16.9-6.8,3.41Z" fill="#7f3e3b"/>
        <path id="Path_56081" data-name="Path 56081" d="M431.53,417.94c2.43,1.23,6.47,1.84,12.66,1.65,1.43,0,2.26,3-.84,3.76s-9.26,2.18-11.52,2.64c-3.68.74-8.57,2.35-8.79-.89,0,0-.55-6.64-.26-6.69l6.33-2.62C429.57,415.71,430,416.92,431.53,417.94Z" fill="#7f3e3b"/>
        <path id="Path_56082" data-name="Path 56082" d="M420.46,413.23l6.81-3.41-2.84-8.72-6.81,3.41Z" opacity="0.2" style="isolation: isolate"/>
        <path id="Path_56083" data-name="Path 56083" d="M331.78,313.06s-1.49,14,2.79,24.23c5.24,12.53,44.65,3.45,60.19,7.21.74,24.42,22,65.56,22,65.56l12.69-5.75s-7.27-37.47-14.18-70C413.49,310,358.33,311.94,358,312Z" fill="#af0606"/>
        <path id="Path_56084" data-name="Path 56084" d="M331.78,313.06s-1.49,14,2.79,24.23c5.24,12.53,44.65,3.45,60.19,7.21.74,24.42,22,65.56,22,65.56l12.69-5.75s-7.27-37.47-14.18-70c-1.86-25.93-65.36-22.88-65.69-22.87Z" fill="#fff" opacity="0.5"/>
        <path id="Path_56085" data-name="Path 56085" d="M413.2,404.72l16.44-6.47,1.55,6.43-15.52,7.78Z" fill="#af0606"/>
        <g id="freepik--monitor-screen--inject-22">
          <g id="freepik--PC--inject-22">
            <path id="Path_56086" data-name="Path 56086" d="M405.88,309.66l-58.81-3.77,5.65-37.07,58.81,3.76Z" fill="#af0606"/>
            <path id="Path_56087" data-name="Path 56087" d="M404.89,312.52l-58-3.71a2.69,2.69,0,0,1-2.53-3.15L350,268.82a3.32,3.32,0,0,1,3.42-2.77l58,3.71a2.68,2.68,0,0,1,2.53,3.15l-5.61,36.84a3.32,3.32,0,0,1-3.45,2.77Z" fill="#af0606"/>
            <path id="Path_56088" data-name="Path 56088" d="M405.88,309.66l-58.81-3.77,5.65-37.07,58.81,3.76Z" fill="#af0606"/>
            <path id="Path_56089" data-name="Path 56089" d="M405.88,309.66l-58.81-3.77,5.65-37.07,58.81,3.76Z" fill="#fff" opacity="0.9"/>
            <path id="Path_56090" data-name="Path 56090" d="M403.76,282.95l-10.8-.69.92-6.04,10.8.69Z" fill="#af0606"/>
            <path id="Path_56091" data-name="Path 56091" d="M401.95,294.86l-10.8-.69.92-6.04,10.8.69Z" fill="#af0606"/>
            <path id="Path_56092" data-name="Path 56092" d="M400.13,306.78l-10.8-.69.92-6.04,10.8.69Z" fill="#af0606"/>
            <path id="Path_56093" data-name="Path 56093" d="M398.84,268.89,384.6,311.13l3.86.24,14.11-42.24Z" fill="#fff" opacity="0.1" style="isolation: isolate"/>
            <path id="Path_56094" data-name="Path 56094" d="M404.8,269.27l-14.24,42.24,7.67.49,14.11-42.24Z" fill="#fff" opacity="0.1" style="isolation: isolate"/>
            <path id="Path_56095" data-name="Path 56095" d="M354.06,299.16l-.06.34,31.17,2,.06-.35Z" fill="#af0606"/>
            <path id="Path_56096" data-name="Path 56096" d="M385.82,297.21l-31.12-1.99,3.25-21.38,31.13,1.99Z" fill="#af0606"/>
            <path id="Path_56097" data-name="Path 56097" d="M355,303.75h0a1.44,1.44,0,0,1-1.35-1.69h0a1.76,1.76,0,0,1,1.83-1.48h0a1.43,1.43,0,0,1,1.35,1.68h0a1.77,1.77,0,0,1-1.83,1.49Z" fill="#af0606"/>
            <path id="Path_56098" data-name="Path 56098" d="M369.86,298.84l-15.56-.99.2-1.37,15.57,1Z" fill="#af0606"/>
            <path id="Path_56099" data-name="Path 56099" d="M384.66,304.74l-6.01-.39.2-1.37,6.02.39Z" fill="#af0606"/>
            <path id="Path_56100" data-name="Path 56100" d="M385.43,299.84l-1.38-.09.21-1.37,1.37.09Z" fill="#af0606"/>
            <path id="Path_56101" data-name="Path 56101" d="M383.1,299.69l-1.38-.09.21-1.37,1.37.09Z" fill="#af0606"/>
            <path id="Path_56102" data-name="Path 56102" d="M380.77,299.54l-1.38-.09.21-1.37,1.37.09Z" fill="#af0606"/>
            <path id="Path_56103" data-name="Path 56103" d="M369.86,298.84l-15.56-.99.2-1.37,15.57,1Z" fill="#fff" opacity="0.2"/>
            <path id="Path_56104" data-name="Path 56104" d="M385.23,301.15l-31.17-1.99-.06.34,31.17,2Z" opacity="0.2"/>
          </g>
        </g>
        <path id="Path_56105" data-name="Path 56105" d="M386.52,311.05l19.54,1.51c.1,2.3-1,3.05-2.2,2.95l-6.25-.5-4.17-.35-6.49-.5-29.85-2V309.3Z" fill="#af0606"/>
        <path id="Path_56106" data-name="Path 56106" d="M386.52,311.05l19.54,1.51c.1,2.3-1,3.05-2.2,2.95l-6.25-.5-4.17-.35-6.49-.5-29.85-2V309.3Z" opacity="0.4"/>
        <path id="Path_56107" data-name="Path 56107" d="M379,288.89v-.05h-.05l-1.06-.06.05-.56h.08v-.46h-.08l.07-2.52h-.05a2.5,2.5,0,0,0-2.26-.13h-.06l-.22,2.52h-.07v.46h.08v.56l-1.06-.07h-.05v.05h0a8.181,8.181,0,0,0,.05,1.14,10.493,10.493,0,0,0-1.31-.52,5.639,5.639,0,0,0-.78-.21,1.25,1.25,0,0,1-.33-1,3.44,3.44,0,0,1,.24-.68h-.05a3.14,3.14,0,0,0,2.31-2.1,1.14,1.14,0,0,0,.39-.42c.4,0,.77-.73.82-1.65s-.2-1.59-.57-1.71a2.49,2.49,0,0,0-.14-2.11c-.48-.78-1.52-1.26-3.09-1.43-2-.2-3.31.16-4,1.06a3,3,0,0,0-.52,2.36,2.72,2.72,0,0,0-.38,1.32c-.05.92.23,1.68.63,1.74.15.33.35.54.59.55a.56.56,0,0,0,.43-.19,3.54,3.54,0,0,0,.85,1.68,3.64,3.64,0,0,1-.82,2.42,6.191,6.191,0,0,0-2,.57,10.13,10.13,0,0,0-2.41,1.42c-.89,1.45-.53,4.94-.53,4.94l13.9.89-.1-3.62a4.927,4.927,0,0,0-.36-.85c1.21-.2,1.89-1.31,2-3.31Zm-10.57-8.51a.2.2,0,0,1-.07.18.279.279,0,0,0-.13,0,.64.64,0,0,0-.5.27,2.13,2.13,0,0,1,.42-1.41c.58-.72,1.75-1,3.46-.82a3.35,3.35,0,0,1,2.61,1.12,1.65,1.65,0,0,1,.16,1.23h-.18a3.29,3.29,0,0,0-1.74-2.06,3.06,3.06,0,0,0-4.05,1.49Zm6,9.5a6.65,6.65,0,0,1-.06-1.13l.93.05-.05,1.58a5.379,5.379,0,0,0-.81-.5ZM376.8,292a6.881,6.881,0,0,0-1.3-1.37,2.52,2.52,0,0,0,2.08.05h.05l.15-1.67.93.05C378.54,290.85,377.92,291.82,376.8,292Z" fill="#af0606"/>
        <path id="Path_56108" data-name="Path 56108" d="M379,288.89v-.05h-.05l-1.06-.06.05-.56h.08v-.46h-.08l.07-2.52h-.05a2.5,2.5,0,0,0-2.26-.13h-.06l-.22,2.52h-.07v.46h.08v.56l-1.06-.07h-.05v.05h0a8.181,8.181,0,0,0,.05,1.14,10.493,10.493,0,0,0-1.31-.52,5.639,5.639,0,0,0-.78-.21,1.25,1.25,0,0,1-.33-1,3.44,3.44,0,0,1,.24-.68h-.05a3.14,3.14,0,0,0,2.31-2.1,1.14,1.14,0,0,0,.39-.42c.4,0,.77-.73.82-1.65s-.2-1.59-.57-1.71a2.49,2.49,0,0,0-.14-2.11c-.48-.78-1.52-1.26-3.09-1.43-2-.2-3.31.16-4,1.06a3,3,0,0,0-.52,2.36,2.72,2.72,0,0,0-.38,1.32c-.05.92.23,1.68.63,1.74.15.33.35.54.59.55a.56.56,0,0,0,.43-.19,3.54,3.54,0,0,0,.85,1.68,3.64,3.64,0,0,1-.82,2.42,6.191,6.191,0,0,0-2,.57,10.13,10.13,0,0,0-2.41,1.42c-.89,1.45-.53,4.94-.53,4.94l13.9.89-.1-3.62a4.927,4.927,0,0,0-.36-.85c1.21-.2,1.89-1.31,2-3.31Zm-10.57-8.51a.2.2,0,0,1-.07.18.279.279,0,0,0-.13,0,.64.64,0,0,0-.5.27,2.13,2.13,0,0,1,.42-1.41c.58-.72,1.75-1,3.46-.82a3.35,3.35,0,0,1,2.61,1.12,1.65,1.65,0,0,1,.16,1.23h-.18a3.29,3.29,0,0,0-1.74-2.06,3.06,3.06,0,0,0-4.05,1.49Zm6,9.5a6.65,6.65,0,0,1-.06-1.13l.93.05-.05,1.58a5.379,5.379,0,0,0-.81-.5ZM376.8,292a6.881,6.881,0,0,0-1.3-1.37,2.52,2.52,0,0,0,2.08.05h.05l.15-1.67.93.05C378.54,290.85,377.92,291.82,376.8,292Z" opacity="0.2"/>
        <path id="Path_56109" data-name="Path 56109" d="M406.06,312.56v.8a2.08,2.08,0,0,1-2.24,2.15l-6.25-.5L386,314.2l.52-3.15Z" opacity="0.2"/>
        <path id="Path_56110" data-name="Path 56110" d="M326.73,243l19,2.43s-1.94-4.95-8.7-5.72A12.22,12.22,0,0,0,326.73,243Z" fill="#af0606"/>
        <path id="Path_56111" data-name="Path 56111" d="M313.07,275.52c.76,15,.44,30.33,2.26,38.6l4.57,1.22a49.61,49.61,0,0,0,24.48.28l13.57-3.3c-.08-14.24,1.15-42,1.81-55.8a10.72,10.72,0,0,0-7.6-10.78c-1.31-.4-2.48-.73-3.2-.89a151.271,151.271,0,0,0-17.1-2.14,79.777,79.777,0,0,0-8.59-.19l-1.42.06c-2.15.09-5.56,2.24-6.22,4.27C312.89,255.2,312.62,266.49,313.07,275.52Z" fill="#af0606"/>
        <path id="Path_56112" data-name="Path 56112" d="M313.07,275.52c.76,15,.44,30.33,2.26,38.6l4.57,1.22a49.61,49.61,0,0,0,24.48.28l13.57-3.3c-.08-14.24,1.15-42,1.81-55.8a10.72,10.72,0,0,0-7.6-10.78c-1.31-.4-2.48-.73-3.2-.89a151.271,151.271,0,0,0-17.1-2.14,79.777,79.777,0,0,0-8.59-.19l-1.42.06c-2.15.09-5.56,2.24-6.22,4.27C312.89,255.2,312.62,266.49,313.07,275.52Z" fill="#263238"/>
        <path id="Path_56113" data-name="Path 56113" d="M356.43,248.23c.44,6.46,1,13.06,1.6,19.54.32,3.25.67,6.49,1.09,9.69s.88,6.39,1.5,9.45c.31,1.53.64,3,1,4.44.2.71.41,1.38.62,2,.12.29.23.65.34.88l.16.38a1.264,1.264,0,0,1,.05.15,1.672,1.672,0,0,0-.18-.28c-.2-.25-.28-.2-.22-.18a2.611,2.611,0,0,0,.44.37,10.6,10.6,0,0,0,1.56.84,42.465,42.465,0,0,0,4.13,1.52c5.95,1.82,13.13,5.14,19.49,6.55l-.46,5.7c-6.88.27-21.29-2.17-26.63-4.52a19.311,19.311,0,0,1-3-1.19,14.672,14.672,0,0,1-1.69-1,8.44,8.44,0,0,1-2.52-2.73l-.21-.41-.37-.75c-.27-.51-.43-.93-.64-1.41-.38-.93-.72-1.82-1-2.71-.57-1.75-1-3.47-1.48-5.2a176.34,176.34,0,0,1-3.46-20.3c-.38-3.36-.7-6.69-1-10.07s-.54-6.7-.68-10.13Z" fill="#7f3e3b"/>
        <path id="Path_56114" data-name="Path 56114" d="M384.93,308.53c.87,2.45,9.26,2,9.26,2l-.76-7.88L385.91,304Z" fill="#7f3e3b"/>
        <path id="Path_56115" data-name="Path 56115" d="M393.43,302.61l.76,7.88,5.1.77-1.27-5.53Z" fill="#7f3e3b"/>
        <path id="Path_56116" data-name="Path 56116" d="M341.86,252.09c-1.44,4.88.06,19.57,2.63,26.45l17.5-1.85s2.08-19.91-1.89-25.69C353.72,241.77,344,244.59,341.86,252.09Z" fill="#263238"/>
      </g>
      <path id="Path_56117" data-name="Path 56117" d="M429.4,415.7l-7.12,2.74a.68.68,0,0,0-.43.79l1.67,10.61a1.38,1.38,0,0,0,1.69,1l.15-.05c3.08-1.23,4.51-2,8.44-3.45,2.41-.9,10.19-2.55,13.22-4.42s1.34-5-.09-4.46c-4.59,1.65-10.94.44-14.8-2.17A6.594,6.594,0,0,0,429.4,415.7Z" fill="#263238"/>
      <path id="Path_56118" data-name="Path 56118" d="M433.14,419.74l.07.09a1.21,1.21,0,0,0,1.18,0,.73.73,0,0,0,.42-.59c.13-1.13-2.41-3.19-2.66-3.4a.2.2,0,0,0-.24,0,.23.23,0,0,0-.11.2C431.94,417.16,432.26,419.16,433.14,419.74Zm-.84-3.28c1,.84,2.19,2.09,2.11,2.7a.29.29,0,0,1-.2.25.78.78,0,0,1-.78,0c-.5-.29-.94-1.36-1.12-2.95Z" fill="#af0606"/>
      <path id="Path_56119" data-name="Path 56119" d="M432.17,416.36c.92.63,2.9,1.34,3.71.9a.75.75,0,0,0,.34-.86,1,1,0,0,0-.58-.74c-1.12-.66-3.57.14-3.67.17a.21.21,0,0,0-.17.13.24.24,0,0,0,.07.2Zm3.33-.34a.64.64,0,0,1,.29.44c.06.27,0,.36-.12.41-.55.31-2.25-.2-3.16-.79.83-.22,2.25-.49,2.93-.09h.06Z" fill="#af0606"/>
      <path id="Path_56120" data-name="Path 56120" d="M397.17,413.45l-7.28,2.18a.67.67,0,0,0-.51.71l.3,10.12a1.25,1.25,0,0,0,1.53,1h.15c3.15-1,4.63-1.6,8.64-2.77,2.45-.72,10.24-1.83,13.42-3.42s1.92-4.61.47-4.22a17.45,17.45,0,0,1-14.13-2.9,7,7,0,0,0-2.59-.7Z" fill="#263238"/>
      <path id="Path_56121" data-name="Path 56121" d="M401.85,417.78l.09.07a1.22,1.22,0,0,0,1.14-.27.73.73,0,0,0,.29-.67c-.11-1.13-3-2.6-3.33-2.75a.2.2,0,0,0-.23,0,.23.23,0,0,0-.07.22C400.13,415.52,400.87,417.4,401.85,417.78Zm-1.53-3c1.15.61,2.6,1.57,2.65,2.18a.31.31,0,0,1-.15.29.84.84,0,0,1-.76.2c-.54-.18-1.2-1.13-1.71-2.65Z" fill="#af0606"/>
      <path id="Path_56122" data-name="Path 56122" d="M400.18,414.68c1,.42,3.11.69,3.82.09a.76.76,0,0,0,.14-.92,1.08,1.08,0,0,0-.72-.6c-1.24-.4-3.46.91-3.55,1a.2.2,0,0,0-.14.17.27.27,0,0,0,.11.18Zm3.18-1a.66.66,0,0,1,.38.37.5.5,0,0,1,0,.42c-.46.42-2.23.29-3.25-.09.76-.39,2.09-1,2.85-.72h.06Z" fill="#af0606"/>
      <path id="Path_56123" data-name="Path 56123" d="M349.53,218.26h0a6.62,6.62,0,1,1-7.27,11.06c-1.71-1-3.18-5.06-1.16-8.11S346.49,216.26,349.53,218.26Z" fill="#af0606"/>
      <path id="Path_56124" data-name="Path 56124" d="M342.84,208.68c-1.71-1.82-4.17-4-7-4.69,0,0-2.17,2.91-2.42,3.06-.17-.09,4.81,1.92,6.6,4.06A32.58,32.58,0,0,1,345,220l3.08-1.87a23.5,23.5,0,0,0-5.24-9.45Z" fill="#af0606"/>
      <g id="Group_31524" data-name="Group 31524" opacity="0.3" style="isolation: isolate">
        <path id="Path_56125" data-name="Path 56125" d="M342.84,208.68c-1.71-1.82-4.17-4-7-4.69,0,0-2.17,2.91-2.42,3.06-.17-.09,4.81,1.92,6.6,4.06A32.58,32.58,0,0,1,345,220l3.08-1.87a23.5,23.5,0,0,0-5.24-9.45Z"/>
      </g>
      <path id="Path_56126" data-name="Path 56126" d="M350.36,220.53c1.8,1.25,2,4.14.46,6.49s-4.28,3.31-6.1,2.11-1.48-4.17.07-6.53S348.55,219.29,350.36,220.53Z" opacity="0.3" style="isolation: isolate"/>
      <path id="Path_56127" data-name="Path 56127" d="M344.95,227.53l6.15-4.91.18,1.15-5.35,4.4Z" fill="#263238"/>
    </g>
    <g id="freepik--Chair--inject-22">
      <path id="Path_56128" data-name="Path 56128" d="M337.37,373.73l-7.52,55.43h2.7l9.75-55.43Z" fill="#263238"/>
      <path id="Path_56129" data-name="Path 56129" d="M328.22,266.47c-5.6-3.47-15.24-2.84-21.32-.31s-11.07,7.18-15.2,12.31c-14.9,18.51-19.79,50.64-15.5,74,1.53,8.39,4.29,16.78,9.71,23.37,4.5,5.46,10.6,9.39,16.94,12.54a83,83,0,0,0,36.79,9,63.72,63.72,0,0,0,36-10.89c7.57-5.27,13.92-12.6,16.85-21.34s2.07-18.63-3.3-26.12c-4.82-6.72-12.86-10.14-20.8-12.42-.84-.23-1.69-.45-2.55-.63-13.83-3-24.13-21.52-26.08-35.54C339.78,290.37,335.94,271.26,328.22,266.47Z" fill="#af0606"/>
      <path id="Path_56130" data-name="Path 56130" d="M303.51,383.8,293.88,433h3.46l12.47-49.2Z" fill="#263238"/>
      <path id="Path_56131" data-name="Path 56131" d="M361.76,383.8l9.63,49.2h-3.45l-12.48-49.2Z" fill="#263238"/>
    </g>
    <g id="freepik--Podcaster--inject-22">
      <path id="Path_56132" data-name="Path 56132" d="M175.52,126.41h-.16a.51.51,0,0,1-.32-.63,64,64,0,0,1,4.21-10.06.5.5,0,1,1,.88.47,63.487,63.487,0,0,0-4.14,9.9.49.49,0,0,1-.47.32Z" fill="#af0606"/>
      <path id="Path_56133" data-name="Path 56133" d="M180.06,180.48a.51.51,0,0,1-.43-.26c-7.7-13.79-10-31.32-6.31-48.11a.52.52,0,0,1,.6-.38.5.5,0,0,1,.38.6c-3.64,16.55-1.38,33.82,6.2,47.4a.49.49,0,0,1-.19.68.45.45,0,0,1-.25.07Z" fill="#af0606"/>
      <path id="Path_56134" data-name="Path 56134" d="M166.16,162a.5.5,0,0,1-.49-.38,60.67,60.67,0,0,1,5-41.23.5.5,0,0,1,.67-.21.49.49,0,0,1,.21.67,59.7,59.7,0,0,0-4.87,40.54.5.5,0,0,1-.38.6Z" fill="#af0606"/>
      <path id="Path_56135" data-name="Path 56135" d="M171.4,175.7a.5.5,0,0,1-.44-.25,50.42,50.42,0,0,1-3.27-7.14.5.5,0,1,1,.93-.35,49.618,49.618,0,0,0,3.22,7,.5.5,0,0,1-.44.74Z" fill="#af0606"/>
      <path id="Path_56136" data-name="Path 56136" d="M158.48,136.52h-.12a.51.51,0,0,1-.37-.61A46.4,46.4,0,0,1,162,125a.5.5,0,1,1,.88.46A45.94,45.94,0,0,0,159,136.13.5.5,0,0,1,158.48,136.52Z" fill="#af0606"/>
      <path id="Path_56137" data-name="Path 56137" d="M162.73,170.93a.5.5,0,0,1-.43-.25,48.32,48.32,0,0,1-5.42-28.05.5.5,0,0,1,1,.09,47.33,47.33,0,0,0,5.29,27.47.5.5,0,0,1-.19.68.54.54,0,0,1-.25.06Z" fill="#af0606"/>
      <path id="Path_56138" data-name="Path 56138" d="M325.43,166.93h-.13a.49.49,0,0,1-.35-.61,69.52,69.52,0,0,0-5.08-50.13.5.5,0,1,1,.88-.47,70.51,70.51,0,0,1,5.16,50.86A.5.5,0,0,1,325.43,166.93Z" fill="#af0606"/>
      <path id="Path_56139" data-name="Path 56139" d="M319.94,180.48a.45.45,0,0,1-.25-.07.49.49,0,0,1-.19-.68,58.525,58.525,0,0,0,3.49-7.46.49.49,0,0,1,.64-.29.5.5,0,0,1,.29.65,59.2,59.2,0,0,1-3.55,7.59.51.51,0,0,1-.43.26Z" fill="#af0606"/>
      <path id="Path_56140" data-name="Path 56140" d="M335.28,151.7h0a.51.51,0,0,1-.47-.53,58.58,58.58,0,0,0-6.3-30.37.5.5,0,0,1,.88-.46,59.51,59.51,0,0,1,6.42,30.89.51.51,0,0,1-.53.47Z" fill="#af0606"/>
      <path id="Path_56141" data-name="Path 56141" d="M328.6,175.7a.5.5,0,0,1-.44-.74,52.789,52.789,0,0,0,5.89-17.11.506.506,0,0,1,1,.16,53.69,53.69,0,0,1-6,17.44.5.5,0,0,1-.45.25Z" fill="#af0606"/>
      <path id="Path_56142" data-name="Path 56142" d="M340.75,133.65a.49.49,0,0,1-.47-.36,45,45,0,0,0-3.19-7.85A.505.505,0,1,1,338,125a44.312,44.312,0,0,1,3.26,8,.51.51,0,0,1-.33.63Z" fill="#af0606"/>
      <path id="Path_56143" data-name="Path 56143" d="M337.27,170.93a.54.54,0,0,1-.25-.06.5.5,0,0,1-.19-.68c4.9-8.77,6.64-19.61,4.9-30.51a.52.52,0,0,1,.42-.58.51.51,0,0,1,.57.42c1.77,11.13,0,22.19-5,31.16a.5.5,0,0,1-.45.25Z" fill="#af0606"/>
      <path id="Path_56144" data-name="Path 56144" d="M230.23,75a.5.5,0,1,1-.13-1,71.73,71.73,0,0,1,34.9-.87.5.5,0,0,1,.38.6.49.49,0,0,1-.59.38,70.87,70.87,0,0,0-34.4.85Z" fill="#af0606"/>
      <path id="Path_56145" data-name="Path 56145" d="M217.12,80.37a.5.5,0,0,1-.24-.93,59.36,59.36,0,0,1,7.56-3.55.5.5,0,0,1,.64.29.49.49,0,0,1-.28.64,58,58,0,0,0-7.43,3.49.54.54,0,0,1-.25.06Z" fill="#af0606"/>
      <circle id="Ellipse_750" data-name="Ellipse 750" cx="71.2" cy="71.2" r="71.2" transform="translate(178.77 76.53)" fill="#af0606"/>
      <circle id="Ellipse_751" data-name="Ellipse 751" cx="71.2" cy="71.2" r="71.2" transform="translate(178.77 76.53)" fill="#fff" opacity="0.9"/>
      <path id="Path_56146" data-name="Path 56146" d="M250.14,220.36a72.2,72.2,0,1,1,72.2-72.2,72.2,72.2,0,0,1-72.2,72.2Zm0-142.4a70.207,70.207,0,1,1,0,.04Z" fill="#af0606"/>
      <g id="Group_31526" data-name="Group 31526" clip-path="url(#clip-path)">
        <path id="Path_56147" data-name="Path 56147" d="M213.33,122.42c-.21-.52-5-12.84,1.8-22.33,5.18-7.27,15.44-10.61,30.52-9.94,12.09.54,20.3,3.76,24.39,9.57,4.92,7,2.36,15.26,1.39,18.37l-.11.37L266.54,117l.12-.39c.84-2.7,2.79-9-.71-14-3.15-4.48-10.06-7-20.53-7.46-13.25-.59-22.09,2-26.21,7.85-5.21,7.3-1.27,17.49-1.23,17.59Z" fill="#263238"/>
        <path id="Path_56148" data-name="Path 56148" d="M265.64,128.77c0,7.21,2.59,13.06,5.78,13.06s5.79-5.85,5.79-13.06-2.59-13.07-5.79-13.07S265.64,121.55,265.64,128.77Z" fill="#263238"/>
        <path id="Path_56149" data-name="Path 56149" d="M265.64,128.77c0,7.21,2.59,13.06,5.78,13.06s5.79-5.85,5.79-13.06-2.59-13.07-5.79-13.07S265.64,121.55,265.64,128.77Z" fill="#fff" opacity="0.2"/>
        <ellipse id="Ellipse_752" data-name="Ellipse 752" cx="7.55" cy="17.05" rx="7.55" ry="17.05" transform="translate(259.26 111.72)" fill="#263238"/>
        <path id="Path_56150" data-name="Path 56150" d="M250,76.53a71.19,71.19,0,0,0-54.53,117l-.19-.81c0-3.65,12.32-10,15.5-11.82,7.28-4.18,15.72-6.07,24.11-6.44s17-.08,25.08,2.08c13.72,3.64,19.84,8.34,19.84,8.34,5.11,4.87,11,6.83,15.51,17.8A71.2,71.2,0,0,0,250,76.53Z" fill="none"/>
        <path id="Path_56151" data-name="Path 56151" d="M279.78,184.85s-6.12-4.7-19.84-8.34c-8.12-2.16-16.68-2.46-25.08-2.08s-16.83,2.26-24.11,6.44c-3.18,1.82-15.5,8.17-15.5,11.82l.19.81a71.2,71.2,0,0,0,99.85,9.15C290.77,191.68,284.89,189.72,279.78,184.85Z" fill="#af0606"/>
        <path id="Path_56152" data-name="Path 56152" d="M252.63,160.44c-2.89,7.55-3.71,15.72,10.28,19.14,0,0,6.78,10.41-15.28,12-23.54,1.63-24.11-14.17-24.11-14.17,9.25-6.13,7.73-24.45,5.83-34.44Z" fill="#ff8b7b"/>
        <path id="Path_56153" data-name="Path 56153" d="M235,160.64c.35,4.38,7.44,11.47,15.87,7.54a26.78,26.78,0,0,1,1.52-5.51L238.6,152.33C238.11,153.34,234.89,158.25,235,160.64Z" opacity="0.2" style="isolation: isolate"/>
        <path id="Path_56154" data-name="Path 56154" d="M220.44,121.27c1.65,17.12,1.72,27.24,10.71,35.77,13.45,12.86,34.43,4.23,38-13,3.15-15.58,0-41-17.1-47.27a23.51,23.51,0,0,0-31.58,24.54Z" fill="#ff8b7b"/>
        <path id="Path_56155" data-name="Path 56155" d="M215.56,132.89A16.29,16.29,0,0,0,223,143c4.93,2.93,8.89-1.12,8.77-6.55-.1-4.91-2.83-12.28-8.41-13S214.32,127.75,215.56,132.89Z" fill="#ff8b7b"/>
        <path id="Path_56156" data-name="Path 56156" d="M246.68,125.18c0,1.4.83,2.51,1.72,2.46s1.62-1.17,1.58-2.58-.83-2.51-1.65-2.55S246.55,123.83,246.68,125.18Z" fill="#263238"/>
        <path id="Path_56157" data-name="Path 56157" d="M262.46,124.66c0,1.41.81,2.52,1.64,2.53s1.62-1.18,1.57-2.59-.83-2.51-1.75-2.47S262.44,123.24,262.46,124.66Z" fill="#263238"/>
        <path id="Path_56158" data-name="Path 56158" d="M257.47,125.51a50.8,50.8,0,0,0,7.09,11.73,8.05,8.05,0,0,1-6.7,1.52Z" fill="#ff5652"/>
        <path id="Path_56159" data-name="Path 56159" d="M267.65,117.24a.82.82,0,0,0,.08-1.15.76.76,0,0,0-.5-.27,8.14,8.14,0,0,0-7.15,2.28.83.83,0,0,0,.05,1.16h0a.83.83,0,0,0,1.16-.09,6.5,6.5,0,0,1,5.69-1.83.79.79,0,0,0,.67-.1Z" fill="#263238"/>
        <path id="Path_56160" data-name="Path 56160" d="M251.84,119.13a.81.81,0,0,0,.6-1,.85.85,0,0,0-.31-.47,8.15,8.15,0,0,0-7.4-1.27.81.81,0,0,0-.49,1h0a.84.84,0,0,0,1.08.47,6.47,6.47,0,0,1,5.89,1,.77.77,0,0,0,.63.27Z" fill="#263238"/>
        <path id="Path_56161" data-name="Path 56161" d="M262.3,144.25s-5.29-1.74-19.81-2.41c2.16,5.5,5.7,10,13.14,10.36S262.3,144.25,262.3,144.25Z" fill="#263238"/>
        <path id="Path_56162" data-name="Path 56162" d="M251.81,147.76a13,13,0,0,1,8.32,2.94,6,6,0,0,1-4.47,1.4,12.82,12.82,0,0,1-8.29-2.94,6,6,0,0,1,4.44-1.4Z" fill="#ff5652"/>
        <path id="Path_56163" data-name="Path 56163" d="M261.63,144.06a2.86,2.86,0,0,1-2.05,2.58,67.45,67.45,0,0,1-12.95-2,5,5,0,0,1-3.5-2.83,100.061,100.061,0,0,1,18.5,2.25Z" fill="#fff"/>
        <path id="Path_56164" data-name="Path 56164" d="M276.05,202l-6.87-10a1.13,1.13,0,0,0-1.53-.31l-11.73,7.45-1.18-5.31a.78.78,0,0,0-.76-.6H251.9a.76.76,0,0,0-.75.75l-.27,18.46h0l-6.32,6.22c1.79.13,3.59.22,5.41.22s3.86-.09,5.76-.25,4.07-.41,6.06-.74a33.86,33.86,0,0,0,6.68-5.23v-.07l7.48-9.29A1.11,1.11,0,0,0,276.05,202Z" fill="#ff8b7b"/>
        <ellipse id="Ellipse_753" data-name="Ellipse 753" cx="7.55" cy="17.05" rx="7.55" ry="17.05" transform="translate(212.76 111.72)" fill="#263238"/>
        <path id="Path_56165" data-name="Path 56165" d="M221.48,128.77c0,7.21-2.59,13.06-5.79,13.06s-5.78-5.85-5.78-13.06,2.59-13.07,5.78-13.07S221.48,121.55,221.48,128.77Z" fill="#263238"/>
        <path id="Path_56166" data-name="Path 56166" d="M221.48,128.77c0,7.21-2.59,13.06-5.79,13.06s-5.78-5.85-5.78-13.06,2.59-13.07,5.78-13.07S221.48,121.55,221.48,128.77Z" fill="#fff" opacity="0.2"/>
        <path id="Path_56167" data-name="Path 56167" d="M288.1,198c-12,0-18.42-9.28-18.73-26.85a1,1,0,1,1,2,0c.29,16.51,5.92,24.88,16.73,24.88,11,0,16.46-8.14,16.72-24.88a1,1,0,0,1,1-1h0a1,1,0,0,1,1,1C306.55,189,300.25,198,288.1,198Z" fill="#263238"/>
        <path id="Path_56168" data-name="Path 56168" d="M305.82,172.16H270.37a1,1,0,0,1,0-2h35.45a1,1,0,0,1,0,2Z" fill="#263238"/>
        <path id="Path_56169" data-name="Path 56169" d="M297.83,164H278.36l.6-21.06.4-.19a19.22,19.22,0,0,1,17.47,0l.41.19Z" fill="#263238"/>
        <g id="Group_31525" data-name="Group 31525" opacity="0.1">
          <path id="Path_56170" data-name="Path 56170" d="M297.83,164H278.36l.6-21.06.4-.19a19.22,19.22,0,0,1,17.47,0l.41.19Z" fill="#fafafa"/>
        </g>
        <path id="Path_56171" data-name="Path 56171" d="M278.36,164h19.47l-.59,21-.41.21a19.28,19.28,0,0,1-17.47,0L279,185Z" fill="#263238"/>
        <rect id="Rectangle_8977" data-name="Rectangle 8977" width="20.58" height="3.54" transform="translate(277.84 162.31)" fill="#263238"/>
        <rect id="Rectangle_8978" data-name="Rectangle 8978" width="20.58" height="3.54" transform="translate(277.84 162.31)" fill="#fff" opacity="0.12"/>
        <path id="Path_56172" data-name="Path 56172" d="M290.52,173.86a3.06,3.06,0,1,1-.47-4.31A3.06,3.06,0,0,1,290.52,173.86Z" fill="#263238"/>
        <circle id="Ellipse_754" data-name="Ellipse 754" cx="3.06" cy="3.06" r="3.06" transform="translate(285.07 168.88)" fill="#fff" opacity="0.2"/>
        <path id="Path_56173" data-name="Path 56173" d="M289.44,170.5a.65.65,0,0,1-.65.65.66.66,0,0,1-.66-.65.67.67,0,0,1,.66-.66.66.66,0,0,1,.65.66Z" fill="#af0606"/>
        <path id="Path_56174" data-name="Path 56174" d="M288.1,224.17a1,1,0,0,1-1-1V197a1,1,0,0,1,2,0v26.15a1,1,0,0,1-1,1.02Z" fill="#263238"/>
      </g>
    </g>
  </g>
</svg>
