<svg xmlns="http://www.w3.org/2000/svg" width="627.534" height="327.201" viewBox="0 0 627.534 327.201">
  <g id="Group_31072" data-name="Group 31072" transform="translate(-775.031 -331.869)">
    <g id="Scene_Home" data-name="Scene/Home" transform="translate(775.031 331.869)">
      <g id="Background_Shape_2" data-name="Background Shape 2" transform="translate(113.586 33.354)" opacity="0.346">
        <path id="Background_Shape" data-name="Background Shape" d="M-114.605,130.674c-5.227-58.406-285.65-171.135-337.71-115.814S-454.326,174-345.228,200.589-109.379,189.08-114.605,130.674Z" transform="translate(473 0)" fill="#f2f2f2"/>
        <path id="Background_Shape-2" data-name="Background Shape" d="M.109,111.013C4.791,61.395,255.983-34.373,302.616,12.624s34.829,145.85-62.9,168.436S-4.572,160.631.109,111.013Z" transform="translate(184.961 57.611)" fill="#dde3e9"/>
      </g>
      <g id="Lamp" transform="translate(489.395 0)">
        <path id="Body" d="M0,19.174,14.075,5.093a6.064,6.064,0,0,1,8.578,0L60.124,42.58a12.129,12.129,0,0,1,3.551,8.574V299.469" transform="translate(44.901 6.778)" fill="none" stroke="#cbcbcb" stroke-miterlimit="10" stroke-width="8"/>
        <rect id="Lamp_Base" data-name="Lamp Base" width="44.566" height="4.775" rx="2.387" transform="translate(85.616 306.02)" fill="#afb9c5"/>
        <g id="Lamp_Top" data-name="Lamp Top" transform="translate(35.678) rotate(45)">
          <path id="Lamp-2" data-name="Lamp" d="M25.015,0h0A25.015,25.015,0,0,1,50.03,25.015V46.24a0,0,0,0,1,0,0H0a0,0,0,0,1,0,0V25.015A25.015,25.015,0,0,1,25.015,0Z" transform="translate(0 0)" fill="#c5cfd6"/>
          <ellipse id="Lamp-3" data-name="Lamp" cx="25.015" cy="4.927" rx="25.015" ry="4.927" transform="translate(0.135 40.602)" fill="#f2f2f2"/>
        </g>
      </g>
      <g id="Big_Leaf_Plant" data-name="Big Leaf Plant" transform="translate(0 145.562)">
        <g id="Big_Ass_Leaf" data-name="Big Ass Leaf" transform="translate(17.435 0)">
          <path id="leaf" d="M18.388.131A12.822,12.822,0,0,1,24.9.817c4.294,1.823,5.515,6.9,5.456,11.019-.063,4.438-1.006,9.285,2.368,12.861,1.551,1.644,3.48,2.9,5,4.576a21.631,21.631,0,0,1,3.85,6.034c1.736,4.038,2.588,8.786,1,13.021-1.4,3.729-4.914,7.095-4.154,11.335.793,4.423,5.252,7.805,8.04,11.1,3.155,3.729,6.061,8.494,6.538,13.384.458,4.686-1.582,9.425-4.713,12.968-6.255,7.078-15.656,10.548-25.136,10.526-4.025-.009-8.582-.191-12.055-2.354a6.643,6.643,0,0,1-2.278-2.461,8.024,8.024,0,0,0-2.2-2.2,13.076,13.076,0,0,1-4.2-5.6c-3.44-8.515-.691-19.049,4.125-26.61,1.141-1.791,2.075-3.515,1.521-5.651A21.8,21.8,0,0,0,4.806,56.6a49.513,49.513,0,0,1-3.632-5.747A13.042,13.042,0,0,1,.05,44.116,22.921,22.921,0,0,1,4.986,32.092c2.6-3.416,5.643-6.684,5.65-11.159.007-4.743-3.164-8.963-1.813-13.785A9.19,9.19,0,0,1,12.317,1.9,14.239,14.239,0,0,1,18.388.131Z" transform="translate(0)" fill="#dde3e9"/>
          <path id="middle_thing" data-name="middle thing" d="M1.051.892A1.093,1.093,0,0,1,2.442.039c.783.219.768.951.747,1.6A21.536,21.536,0,0,0,3.9,7.536c1,4.042,2.851,7.766,4.317,11.648A21.2,21.2,0,0,1,9.507,31.174c-.81,3.87-2.082,7.64-2.911,11.515-.731,3.415-1.508,7.017-.4,10.424,1.07,3.279,3.437,5.95,5.141,8.913a42.025,42.025,0,0,1,5.3,19.944,37.293,37.293,0,0,1-.745,9.724c-.434,1.837-1.018,4.319-2.592,5.587A1.8,1.8,0,0,1,10.73,97.2c-.573-.812-.07-2.07.112-2.935A44.494,44.494,0,0,0,11.6,82.885,41.1,41.1,0,0,0,9.822,72a36.837,36.837,0,0,0-4.637-9.058c-1.962-2.912-4-5.83-4.811-9.281-.823-3.5-.154-7.07.74-10.508C2.06,39.517,3.3,35.985,4.58,32.448a18.784,18.784,0,0,0,1-10.316C4.22,15,.576,8.314,1.051.892Z" transform="translate(15.919 6.822)" fill="#c5cfd6"/>
        </g>
        <g id="Big_Ass_Leaf-2" data-name="Big Ass Leaf" transform="translate(24.257 7.58)">
          <path id="leaf-2" data-name="leaf" d="M68.9,1.2a16.292,16.292,0,0,1,7.271,4.2c4.073,4.39,2.823,11.024.575,15.869-2.42,5.215-6.088,10.458-4.02,16.442.95,2.751,2.548,5.243,3.45,8.015A27.95,27.95,0,0,1,77.5,54.861c-.1,5.678-1.608,11.736-5.709,15.92-3.61,3.683-9.514,5.834-10.864,11.244-1.408,5.644,2.035,11.963,3.564,17.31,1.73,6.051,2.619,13.2.594,19.229-1.94,5.78-6.838,10.324-12.382,12.884-11.077,5.117-23.938,4.33-35.046-.627-4.716-2.1-9.965-4.69-12.9-9.055a8.539,8.539,0,0,1-1.371-4.1,10.3,10.3,0,0,0-1.418-3.753,16.858,16.858,0,0,1-1.96-8.81c.466-11.859,9.259-22.887,18.9-29.324,2.285-1.525,4.292-3.078,4.77-5.891.5-2.937-.105-6.054-.567-8.974A63.983,63.983,0,0,1,21.9,52.23a17.015,17.015,0,0,1,2.243-8.553A29.931,29.931,0,0,1,36.287,32.025c4.85-2.689,10.152-4.969,12.525-10.258,2.516-5.606,1.027-12.245,5.16-17.246A11.956,11.956,0,0,1,60.841.138C63.485-.316,66.372.432,68.9,1.2Z" transform="translate(0 0)" fill="#dde3e9"/>
          <path id="middle_thing-2" data-name="middle thing" d="M39.154.615A1.393,1.393,0,0,1,41.227.334c.8.67.4,1.528.035,2.289A28.214,28.214,0,0,0,39,9.975c-.946,5.311-.733,10.691-1.053,16.057S36.336,36.5,33.182,40.908c-2.974,4.159-6.436,7.957-9.435,12.111-2.643,3.662-5.438,7.52-5.922,12.137-.466,4.444.9,8.848,1.344,13.25a55.06,55.06,0,0,1-4.245,26.4,48.731,48.731,0,0,1-5.964,11.125c-1.47,1.947-3.452,4.581-5.956,5.258-1.155.312-2.712-.1-2.973-1.445-.245-1.262,1-2.488,1.668-3.417a58.15,58.15,0,0,0,6.848-13.082,53.851,53.851,0,0,0,3.622-13.823,48.177,48.177,0,0,0-.678-13.158c-.769-4.477-1.625-9-.765-13.512.872-4.582,3.522-8.454,6.369-12.056,3.01-3.81,6.309-7.343,9.66-10.861a24.528,24.528,0,0,0,6.574-11.692C35.468,18.988,34.711,9.156,39.154.615Z" transform="translate(24.257 9.854)" fill="#c5cfd6"/>
        </g>
        <g id="Big_Ass_Leaf-3" data-name="Big Ass Leaf" transform="translate(0 42.45)">
          <path id="leaf-3" data-name="leaf" d="M10.086,0a14.425,14.425,0,0,1,11.1,5.729c3.169,3.934,3.808,8.739,5.1,13.428a11.987,11.987,0,0,0,3.671,6.235c1.755,1.442,3.983,1.73,6.084,2.435a14.2,14.2,0,0,1,8.928,8.937c1.633,5.048-.1,10.138.2,15.253.273,4.7,4.905,7.629,8.632,9.881,3.675,2.221,6.985,4.3,8.092,8.625,1.174,4.588,1.567,9.71-.058,14.242-2.706,7.547-10.627,10.87-18.281,11.385-6.946.468-15.679-.267-20.9-5.308-3.121-3.017-4.252-7.237-4.111-11.435a34.809,34.809,0,0,1,1.273-7.72,34.827,34.827,0,0,0,1.3-5.416c.485-4.915-4.058-5.86-7.926-7.209A18.86,18.86,0,0,1,2.444,49.595,18.032,18.032,0,0,1,.617,36.048a15.815,15.815,0,0,1,3.6-6.329c.739-.8,1.78-1.472,2.446-2.315a3.123,3.123,0,0,0,.272-2.73c-.992-4.26-4.081-7.787-5.186-12.039-1-3.838-.408-8.615,3.1-11.091A9.164,9.164,0,0,1,10.086,0Z" transform="translate(0 0)" fill="#c5cfd6"/>
          <path id="middle_thing-3" data-name="middle thing" d="M2.53.486c4.736,5.044,6.023,11.889,6.4,18.522.212,3.72-.009,7.643,1.084,11.252.935,3.088,3.127,5.449,5.387,7.68C19.951,42.431,25.023,47,26.354,53.5c.781,3.815.254,7.755,1.332,11.527a31.706,31.706,0,0,0,4.808,9.694c1.691,2.332,3.895,4.117,5.743,6.291.564.664,1.372,1.64,1.139,2.577-.272,1.1-1.67,1.444-2.661,1.272-2.312-.4-4.257-2.609-5.769-4.213a36.293,36.293,0,0,1-5.614-7.7,32.375,32.375,0,0,1-3.642-10.007c-.6-3.659-.3-7.473-1.685-10.984-2.325-5.909-7.963-9.4-12.04-14-5.079-5.739-4.322-12.881-3.8-19.94.286-3.879.57-8.26-1.39-11.8C2.025,4.856.357,3.6.035,2.058-.259.65,1.349-.773,2.53.486Z" transform="translate(13.645 10.613)" fill="#afb9c5"/>
        </g>
        <path id="Base" d="M0,0C0,28.85,4.708,43.966,29.564,43.966S59.127,28.85,59.127,0Z" transform="translate(21.225 136.446)" fill="#89c5cc"/>
      </g>
      <g id="Table" transform="translate(194.611 115.98)">
        <g id="Lamp-4" data-name="Lamp" transform="translate(16.762)">
          <rect id="Lamp_Base-2" data-name="Lamp Base" width="28.649" height="6.367" rx="2" transform="translate(16.662 108.867)" fill="#afb9c5"/>
          <path id="Lamp_Body" data-name="Lamp Body" d="M11.842,57.3a11.842,11.842,0,1,1,0-23.683h5.317C21.965,17.67,22.544,0,22.544,0h3.407a130.926,130.926,0,0,0,5.385,33.615h4.572a11.842,11.842,0,0,1,0,23.683Z" transform="translate(5.521 53.16)" fill="#dde3e9"/>
          <path id="Shade" d="M3.5,1.272S16.534,0,29.563,0s26.06,1.272,26.06,1.272l3.5,60.229s-14.782,1.415-29.563,1.415S0,61.5,0,61.5Z" fill="#c5cfd6"/>
        </g>
        <path id="Table-2" data-name="Table" d="M79.454,79.582V16.834H16.043V79.582H0V0H95.5V79.582Z" transform="translate(0 115.234)" fill="#f2f2f2"/>
      </g>
      <g id="Plant" transform="translate(498.612 97.029)">
        <g id="Succulents" transform="translate(9.91 0)">
          <path id="Thi_Succs_" data-name="Thi Succs!" d="M.289.158c6.7,15.91,18.078,26.965,24.106,43.509,3.575,9.811,5.065,20.478,5.155,31.4C29.6,81,29.5,86.942,29.468,92.876c-.027,5.787-.184,11.537-.676,17.287-.494,5.78-1.046,11.492-1.29,17.308-.19,4.532-.276,9.8-1.813,13.936-1.222,3.287-4.326,3.769-5.15-.218a31.872,31.872,0,0,1-.35-6.969c.065-2.922.235-5.841.321-8.762.348-11.725-.1-23.452.133-35.182.231-11.46,1.7-22.908.074-34.292-1.346-9.4-4.765-17.473-8.7-25.212-3.781-7.446-7.9-14.71-10.451-23.18A40.813,40.813,0,0,1,0,.023Q.178-.06.289.158Z" transform="translate(2.274 0)" fill="#c1dee2"/>
          <path id="Thi_Succs_2" data-name="Thi Succs!" d="M.738.468A12.75,12.75,0,0,1,3.7,4.208C4.815,5.926,6.126,7.477,7.24,9.2c2.323,3.584,4.364,7.389,6.482,11.118a72.82,72.82,0,0,1,8.585,22.814c1.567,8.487,1.99,17.248,2.647,25.862.7,9.13,1.4,18.326,1.492,27.491a98.2,98.2,0,0,1-.23,12.542c-.307,2.538-1.452,4.7-4.035,4.681-5.486-.044-8.061-6.119-9.137-11.1A93.563,93.563,0,0,1,11.4,79.968c.3-9.048,1.873-17.96,2.553-26.973.72-9.541.313-18.914-2.967-27.9C9.324,20.558,7.4,16.127,5.673,11.617A43.578,43.578,0,0,0,3.342,5.936,54.521,54.521,0,0,1,0,0Z" transform="translate(0 31.079)" fill="#89c5cc"/>
          <path id="Thi_Succs_3" data-name="Thi Succs!" d="M13.14.392l.5-.392a50.153,50.153,0,0,1-2.028,5.565,45.414,45.414,0,0,0-1.311,5.409c-.951,4.306-2.05,8.515-2.948,12.858-1.778,8.594-1.442,17.852-.276,27.387,1.1,9.007,2.843,18,3.673,27a123.978,123.978,0,0,1,.327,22.293c-.446,4.839-1.908,10.616-5.891,10.128-1.875-.23-2.853-2.487-3.247-5.035-.633-4.092-.766-8.395-1.012-12.464C.381,84.063.271,75.008.162,66.019c-.1-8.481-.386-17.131.18-25.4a77.84,77.84,0,0,1,4.7-21.8C6.331,15.327,7.557,11.751,9,8.421c.694-1.6,1.541-3.009,2.235-4.605A9.855,9.855,0,0,1,13.14.392Z" transform="translate(50.788 12.129)" fill="#c1dee2"/>
          <path id="Thi_Succs_4" data-name="Thi Succs!" d="M.158.229c.725-1.218,2.322,2.8,2.565,3.3q-.154-.377-.31-.753a33.425,33.425,0,0,1,3.576,7.632C6.8,13.129,7.5,15.9,8.256,18.638c1.427,5.135,3.267,10.124,4.56,15.305a49.8,49.8,0,0,1,1.272,15.235,130.144,130.144,0,0,0-.141,16.364,47.656,47.656,0,0,0,1.6,7.5c.578,2.5,1.033,5.027,1.716,7.493.157-.321.177.753.176.834a5.177,5.177,0,0,1-.289,1.717,4.623,4.623,0,0,1-2.912,3.193c-2.62.749-5.053-1.635-5.9-4.151a68.874,68.874,0,0,1-2.458-11.4,53.731,53.731,0,0,1-.5-10.51c.31-6.958,1.569-13.825,1.91-20.781.371-7.573-1.13-14.688-2.386-22.06A64.418,64.418,0,0,0,2.544,6.924,29.382,29.382,0,0,0,.794,3.079C.423,2.359-.327,1.075.158.229Z" transform="translate(2.274 57.611)" fill="#c1dee2"/>
          <path id="Thi_Succs_5" data-name="Thi Succs!" d="M7.771,27.06c-.3,8.676-.819,17.285-1.975,25.869-1.18,8.76-2.536,17.49-3.672,26.258C1.018,87.722-.141,96.4.014,105.052c.114,6.374-.943,17.158,6.136,20.3,7.17,3.186,8.708-10.42,9.179-14.911.9-8.616.61-17.323.172-25.986-.45-8.891-1.2-17.737-2.13-26.6-1.033-9.84-1.843-19.724-2.494-29.592-.322-4.881-.4-9.754-.312-14.636C10.649,9.029,10.474,4.374,8.836,0L8.579.186" transform="translate(15.919 18.951)" fill="#69a1ac"/>
          <path id="Thi_Succs_6" data-name="Thi Succs!" d="M9.159,4.514C7.87,6.393,6.57,8.253,5.352,10.243A30.21,30.21,0,0,0,.61,22.852C-.63,33.505.365,45.011.605,55.991c.049,2.244-.235,4.42.65,6.555.8,1.936,2.3,3.412,3.73,3.4,3.059-.017,2.592-7.508,2.6-10.805C7.591,49.365,6.943,43.528,7,37.755A120.733,120.733,0,0,1,8.232,20.867,97.3,97.3,0,0,1,11.923,5.162c.225-.684,1.841-5.967.314-5.057" transform="translate(51.546 68.981)" fill="#89c5cc"/>
          <path id="Thi_Succs_7" data-name="Thi Succs!" d="M10.811,0c-2.011,0-2,10.026-2.059,11.314-.218,4.647-.167,9.3-.305,13.944-.3,10.144-.674,20.376-2.2,30.4-.82,5.4-1.771,10.771-2.794,16.128C2.429,77.16,1.051,82.525.376,87.965c-.648,5.23-.282,10.562-.193,15.818a138.473,138.473,0,0,0,.941,15.826c.171,1.294.371,2.583.586,3.869a30.666,30.666,0,0,0,.377,3.418c.485,1.631,2.562,2.165,3.96,1.91,3.785-.691,6.2-5.443,7.495-8.915a83.465,83.465,0,0,0,3.391-13.914,121.613,121.613,0,0,0,1.823-16.056C19.3,78.969,18.6,68,17.817,57.088c-.436-6.071-.94-12.116-1.712-18.15-.768-6.008-1.754-11.989-2.4-18.015-.466-4.379-.926-8.764-1.227-13.16C12.41,6.715,12.349,0,10.811,0" transform="translate(36.386 16.677)" fill="#69a1ac"/>
          <path id="Thi_Succs_8" data-name="Thi Succs!" d="M20.422,89.553c-.328-10.526-4.559-56.762-5.522-69.49C14.66,16.877,12.342,3.612,12.041,0c-.815,1.021-.745,16.911-.737,20.563.009,3.612-.438,7.164-.669,10.756-.235,3.666-5.654,51-6.357,54.527-1.4,7.007-2.335,14.2-3.058,21.362-.7,6.983-1.8,14.35-.856,21.369a21.456,21.456,0,0,0,1.116,4.691c.6,1.6,1.015,3.087,1.5,4.766.778,2.7,2.186,5.076,4.348,6.192,4.434,2.288,6.815-2.892,8.022-7.4A120.7,120.7,0,0,0,19.1,114.735c.642-8.369,1.589-16.755,1.327-25.182" transform="translate(24.257)" fill="#89c5cc"/>
        </g>
        <g id="Planter" transform="translate(0 119.86)">
          <rect id="Vase" width="68.44" height="70.032" rx="2" transform="translate(7.958 0)" fill="#fff"/>
          <rect id="Leg" width="7.958" height="85.948" rx="2" transform="translate(0 7.958)" fill="#c5cfd6"/>
          <rect id="Leg-2" data-name="Leg" width="7.958" height="85.948" rx="2" transform="translate(38.199 7.958)" fill="#c5cfd6"/>
          <rect id="Leg-3" data-name="Leg" width="7.958" height="85.948" rx="2" transform="translate(76.398 7.958)" fill="#c5cfd6"/>
        </g>
      </g>
      <g id="Bottom_Sitting_Skinny_Jeans_1" data-name="Bottom/Sitting/Skinny Jeans 1" transform="translate(350.701 198.208)">
        <g id="Seat" transform="translate(86.555 30.09)">
          <g id="Seat-2" data-name="Seat" transform="translate(0)">
            <path id="Seat_Stuff" data-name="Seat Stuff" d="M62.6,0H7.252L0,88.838H82.39Z" fill="#c5cfd6"/>
            <path id="Seat_Stuff-2" data-name="Seat Stuff" d="M27.211,0H10.188L0,88.838H47Z" transform="translate(35.389)" fill="rgba(0,0,0,0.1)"/>
          </g>
        </g>
        <path id="Skin" d="M40.931,3.836c-.717,9.063-2.05,40.439-.716,54.962.563,6.13,1.17,11.962,1.766,17.142C29.186,52.93,8.251,19.27,8.251,19.27L0,23.04s9.719,32.02,15.939,45.211C23.038,83.309,29.7,96.2,32.5,100.745c4.407,7.144,12.079,4.651,16.133.327,5.9,3.543,15.8-1.009,15.795-6.077C64.4,79.832,50.566,8.368,49.844,3.851A4.906,4.906,0,0,0,44.92,0,3.827,3.827,0,0,0,40.931,3.836Z" transform="translate(79.335 115.942) rotate(180)" fill="#b28b67"/>
        <path id="LegLower" d="M0,0,3.666,72.726c2.643,12.575,25.008,6.739,25,0-.021-15.3-9.211-68.152-9.218-72.711Z" transform="translate(78.745 81.047) rotate(160)" fill="#1f28cf"/>
        <g id="Right_Shoe" data-name="Right Shoe" transform="translate(86.589 97.128) rotate(150)">
          <path id="shoe" d="M3.2,11.439a1.433,1.433,0,0,1-1.838-.966L0,5.656A46.025,46.025,0,0,1,.646,0H41.054s1.575,5.207-1.818,5.622-5.638.75-5.638.75L14.816,14.745a.716.716,0,0,1-.954-.381l-1.207-2.929A16.238,16.238,0,0,0,7.549,9.969Z" transform="translate(0 0)" fill="#e4e4e4"/>
        </g>
        <g id="Right_Shoe-2" data-name="Right Shoe" transform="translate(0 104.121)">
          <path id="shoe-2" data-name="shoe" d="M38.214,3.7a1.433,1.433,0,0,1,1.838.966l1.367,4.818a46.025,46.025,0,0,1-.646,5.656H.365S-1.21,9.932,2.184,9.517s5.638-.75,5.638-.75L26.6.394a.716.716,0,0,1,.954.381L28.764,3.7A16.238,16.238,0,0,0,33.87,5.17Z" transform="translate(0 -0.332)" fill="#e4e4e4"/>
        </g>
        <path id="Leg_and_Butt" data-name="Leg and Butt" d="M0,26.1C0,45.136,9.039,89.533,9.045,93.724l19.448.015s-4.27-59.424-3.028-60.064,50.9,4.958,65.8,4.958c21.478,0,30.363-13.544,31.084-38.634H79.8C71.137.927,25.95,10.041,9.169,13.174,1.985,14.515,0,20.859,0,26.1Z" transform="translate(12.926 0)" fill="#2b44ff"/>
      </g>
    </g>
    <g id="A_Human_Standing" data-name="A Human/Standing" transform="translate(1149.859 386.014)">
      <g id="Head_Front" data-name="Head/Front" transform="translate(64.287 0)">
        <g id="Head" transform="translate(5.579 13.549)">
          <path id="Head-2" data-name="Head" d="M0,0,6.585,30.691C2.913,35,.427,40.285.842,46.2c1.2,17.055,24.939,13.3,29.557,4.7s4.07-30.443-1.9-31.982c-2.381-.614-7.451.889-12.612,4L19.127,0Z" transform="translate(33.473 58.178) rotate(180)" fill="#b28b67"/>
        </g>
        <path id="hair" d="M.179,8.895a4.137,4.137,0,0,1,2.9-2.938,3.816,3.816,0,0,1,1.066-.106c.129.005.165.042.225-.048A1.179,1.179,0,0,0,4.43,5.5a5.8,5.8,0,0,1,.216-.718,5.861,5.861,0,0,1,1.414-2.1A7.116,7.116,0,0,1,10.335.653,6.232,6.232,0,0,1,12.9,1a10.175,10.175,0,0,1,1.247.533c.122.061.517.36.639.341s.406-.357.516-.441A7.554,7.554,0,0,1,20.026,0c1.906.014,3.742.109,5.332,1.271a10.662,10.662,0,0,1,.962.8c.161.149.316.3.465.466q.134.146.261.3c.142.174.12.23.319.109a3.963,3.963,0,0,1,2.545-.573,5.7,5.7,0,0,1,1.536.434c.167.071.553.356.731.359s.557-.261.739-.328a6.057,6.057,0,0,1,3.07-.284A7.928,7.928,0,0,1,39,3.737a4.047,4.047,0,0,1,1.116,1.014c.131.181.25.373.4.541.087.1.259.2.306.324a6.611,6.611,0,0,1,1.276-.563,3.143,3.143,0,0,1,1.8.068,7.139,7.139,0,0,1,2.831,2.011,8.038,8.038,0,0,1,1.048,1.407q.214.363.392.745a2.77,2.77,0,0,0,.172.388c.1.143.164.146.342.208a5.523,5.523,0,0,1,2.352,1.575,5.422,5.422,0,0,1,1.218,2.582,1.315,1.315,0,0,0,.049.318c.045.042.226.023.3.031a6.205,6.205,0,0,1,.707.125,5.835,5.835,0,0,1,1.243.447,6.494,6.494,0,0,1,3.183,3.8,7.712,7.712,0,0,1-.121,5.279,5.159,5.159,0,0,1-.392.773c-.094.151-.124.151-.063.309.068.176.192.347.272.519A7.453,7.453,0,0,1,57.98,27.4a8.279,8.279,0,0,1,.1,3.051,4.405,4.405,0,0,1-.471,1.339,3.84,3.84,0,0,1-.413.6c-.081.1-.167.189-.257.277a1.716,1.716,0,0,0-.163.151c-.107.137-.129.024-.074.226a9.03,9.03,0,0,0,.359.835c.11.283.21.57.3.859a12.678,12.678,0,0,1,.439,1.791,5.624,5.624,0,0,1-.4,3.479,3.48,3.48,0,0,1-.985,1.172,3.653,3.653,0,0,1-.647.393c-.117.056-.267.08-.32.193s.028.364.047.5a8.341,8.341,0,0,1-.1,3.594,4.965,4.965,0,0,1-1.968,2.642,6.123,6.123,0,0,1-6.121.174,6.426,6.426,0,0,1-1.366-.939c-1.048,1.411-3.205,1.366-4.737.964a6.8,6.8,0,0,1-4.322-3.572,2.88,2.88,0,0,1-4.575-.6,3.812,3.812,0,0,1-.386-1.255c-.031-.229-.011-.459-.035-.686a3.546,3.546,0,0,0-.334-.85,4.691,4.691,0,0,1-.356-1.694,8.6,8.6,0,0,1,.065-.909,3.125,3.125,0,0,0-.093-.8,3.654,3.654,0,0,0,1.547-.193,3.055,3.055,0,0,0,1.2-.841,6.978,6.978,0,0,0,1.5-2.813c.68-2.228.4-4.9-1.839-6.123-1.044-.57-4.171-.568-5.414-.286-1.307.3-2.789,3.18-2.862,3.452-.045.168-.022.375-.177.487-.339.246-.9-.181-1.147-.391a4.525,4.525,0,0,1-1.005-1.337,16.541,16.541,0,0,1-1.379-3.382c-.255-.9-.418-1.83-.751-2.709a4.143,4.143,0,0,0-1.666-2.15,14.672,14.672,0,0,0-2.867-1.161,7.115,7.115,0,0,1-2.652-1.457,3.665,3.665,0,0,1-.455-.507c-.1-.145-.207-.424-.366-.516-.247-.143-.607.23-.82.365A9.477,9.477,0,0,0,9.378,21.4a16.3,16.3,0,0,0-1.752,3.118,9.016,9.016,0,0,1-1.178,2.6,4.97,4.97,0,0,1-2.965.225,3.746,3.746,0,0,1-1.617-1.4,2.174,2.174,0,0,1-.184-1.425c.057-.287.173-.556.236-.838A2.614,2.614,0,0,1,2.137,23a1.674,1.674,0,0,1,1.043-.831,4.9,4.9,0,0,1-1.127-1.528,6.558,6.558,0,0,1-.583-1.991A2.417,2.417,0,0,1,1.793,17.1,4.084,4.084,0,0,1,3.117,16a8.613,8.613,0,0,1-1.843-2.007A6.267,6.267,0,0,1,.179,8.895Z" transform="translate(0 0)" fill="#191847"/>
      </g>
      <g id="Body_Long_Sleeve_1" data-name="Body/Long Sleeve 1" transform="translate(0 54.194)">
        <path id="Skin-2" data-name="Skin" d="M.978,1.723c-.889.549-1.863,2.614.49,4.228C7.332,9.972,15.782,17.009,16.924,19.326c2.335,4.738,10.289,50.917,10.289,50.917l16.654-.066s-15.425-49.8-16.654-52.841C25.369,12.765,29.271,5.8,30.94,2.064c-2.63-1.177-3.852.326-5.19,1.828-1.426,1.6-2.985,3.2-6.522,1.557C14.7,3.343,10.957,0,6.5,0A10.352,10.352,0,0,0,.978,1.723ZM143.4,46.533,119.922,60.374l7.5,12.975L150,51.324a68.426,68.426,0,0,0,16.146-9.281c.944-1.138,1.971-3.319-2.468-2.343s-9.153,1.8-9.987.359,1.624-3.656.082-5.546a.583.583,0,0,0-.473-.226Q151.172,34.286,143.4,46.533Z" transform="translate(166.966 144.376) rotate(180)" fill="#b28b67"/>
        <path id="Coat_Back" data-name="Coat Back" d="M0,102.277l6.762,1.778q21.6-42.739,68.95-75.07L55.822,0C23.367,31.783,2.113,65.643,0,102.277Z" transform="matrix(-0.996, 0.087, -0.087, -0.996, 101.338, 106.138)" fill="#191847"/>
        <path id="Shirt" d="M61.367,90.854H0S21.326,39,21.326,2.758L39.837,0C54.385,23.4,58.494,52.205,61.367,90.854Z" transform="translate(61.099 0)" fill="#dde3e9"/>
        <path id="Shade-2" data-name="Shade" d="M11.24,0H.049A203.616,203.616,0,0,0,3.077,39.449a214.314,214.314,0,0,1,2.7-22.064C7.235,9.487,9.073,3.639,11.239,0Z" transform="translate(120.954 107.591) rotate(180)" fill="rgba(0,0,0,0.1)"/>
        <path id="Coat_Front" data-name="Coat Front" d="M0,0C6.712,75.715,49.017,117.154,49.017,117.154l.014-.013.007.013h1.209c2.169-.075,6.607-.269,6.607-.269L61.327,104.1c.71-23.377,8.289-94.224,8.289-94.224H29.448q.1-4.872.463-9.878Z" transform="translate(150.36 117.154) rotate(180)" fill="#2f3676"/>
        <path id="Light" d="M19.836,9.222,0,0V9.222Z" transform="translate(92.181 73.663)" fill="rgba(255,255,255,0.2)"/>
      </g>
    </g>
    <g id="A_Human_Standing-2" data-name="A Human/Standing" transform="translate(890.399 386.014)">
      <g id="Head_Front-2" data-name="Head/Front" transform="translate(43.624 0)">
        <g id="Head-3" data-name="Head" transform="translate(13.576 13.158)">
          <path id="Head-4" data-name="Head" d="M0,58.418,6.567,27.6C2.9,23.272.426,17.967.84,12.024,2.034-5.1,25.711-1.334,30.316,7.309s4.059,30.568-1.893,32.113c-2.374.616-7.431-.893-12.578-4.017l3.231,23.012Z" transform="translate(0 0)" fill="#b28b67"/>
        </g>
        <path id="hair-2" data-name="hair" d="M-59.866,19.309a6.059,6.059,0,0,1-1.263-2.347,23.742,23.742,0,0,1-.809-2.666c-.407-1.817-.411-3.907.885-5.318a6.1,6.1,0,0,1,4.039-1.749,7.422,7.422,0,0,1,2.864.363c.912.3,1.7.9,2.583,1.268A11.557,11.557,0,0,1-50.2,3.181,5.662,5.662,0,0,1-45.989.431a8.359,8.359,0,0,1,5.136,1.034c.4.216.795.442,1.173.7a3.289,3.289,0,0,0,1.018.56c.415.1.62-.142.89-.445a6.76,6.76,0,0,1,1.049-.944A6.177,6.177,0,0,1-30.942.341a5.372,5.372,0,0,1,2.357,1.7c.538.705.921,1.824,1.663,2.316.315.209.537-.068.824-.272.431-.307.841-.646,1.277-.944a5.85,5.85,0,0,1,1.985-.9c1.039-.24,2.475-.184,2.772,1.177A5.618,5.618,0,0,1-20.073,5c-.049.707-.1,1.414-.162,2.121A15.313,15.313,0,0,1-20.443,8.7a2.313,2.313,0,0,0-.1,1.085c.15.351.845.152,1.141.164a4.51,4.51,0,0,1,1.716.377,1.846,1.846,0,0,1,1.038.961,1.726,1.726,0,0,1,.029.9,2.694,2.694,0,0,0,.055.927c.787-.387,3.514-1.248,3.857.162a2.206,2.206,0,0,1-.344,1.4,12.1,12.1,0,0,1-1.271,1.935,17.3,17.3,0,0,1-3.385,3.284,2.218,2.218,0,0,1,.579,3.716,2.748,2.748,0,0,1-2.019.585,4.463,4.463,0,0,0-.834-.066,2,2,0,0,1-.378.127,11.252,11.252,0,0,1-3.1-.393,10.208,10.208,0,0,1-4.721-2.469,1.456,1.456,0,0,0-1.092-.5c-.406,0-.8.115-1.21.126a8.718,8.718,0,0,1-3.038-.847,11.463,11.463,0,0,1-1,4.041c-.449.988-1.387,1.131-2.309,1.218-2.948.277-5.905-.032-8.857-.028,2.857.646,5.809.912,8.641,1.672,1.28.343.3,1.206-.245,1.8a10.4,10.4,0,0,0-2.036,3.49A6.158,6.158,0,0,0-45.377,29.9c-2.418.618-4.121,3.888-2.575,6.239.9,1.365,2.519,1.892,3.868,2.478-1.052,1.094-1.307,2.71-1.94,4.071a2.913,2.913,0,0,1-1.449,1.664,1.7,1.7,0,0,0-.765.3c-.253.261-.313.553-.635.777a3.582,3.582,0,0,1-4.439-.342,2.9,2.9,0,0,1,.1-3.8c-1.372-.572-3.87-1.307-3.325-3.444-2.972-.2-10.188-5.017-6.2-8.54-2.189-1.237-4.2-4.261-2.794-6.926,1.083-2.052,3.6-2.97,5.667-3.079" transform="translate(66 0)" fill="#191847"/>
      </g>
      <g id="Bottom_Skinny_Jeans_1" data-name="Bottom/Skinny Jeans 1" transform="translate(0 138.952)">
        <g id="Seat-3" data-name="Seat" transform="translate(0 33.93)">
          <g id="Seat-4" data-name="Seat">
            <path id="Seat_Stuff-3" data-name="Seat Stuff" d="M22.315,0H84.726L92.9,100.175H0Z" fill="#c5cfd6"/>
            <path id="Seat_Stuff-4" data-name="Seat Stuff" d="M22.315,0H41.51L53,100.175H0Z" fill="rgba(0,0,0,0.1)"/>
          </g>
        </g>
        <path id="Skin-3" data-name="Skin" d="M46.154,114.352c-.809-10.22-2.311-45.6-.808-61.975.635-6.913,1.319-13.488,1.991-19.329C32.91,58.992,9.3,96.948,9.3,96.948L0,92.7S10.959,56.59,17.973,41.716C25.978,24.738,33.485,10.2,36.644,5.076c4.969-8.056,13.62-5.245,18.191-.368,6.654-4,17.818,1.138,17.81,6.852-.023,17.1-15.627,97.681-16.441,102.775a5.532,5.532,0,0,1-5.552,4.342A4.315,4.315,0,0,1,46.154,114.352Z" transform="translate(101.044 12.06)" fill="#b28b67"/>
        <path id="LegLower-2" data-name="LegLower" d="M0,90.352,4.134,8.346c2.98-14.18,28.2-7.6,28.189,0C32.3,25.6,21.937,85.195,21.93,90.335Z" transform="translate(132.612 6.486) rotate(20)" fill="#2f3676"/>
        <g id="Right_Shoe-3" data-name="Right Shoe" transform="translate(101.214 95.062) rotate(30)">
          <path id="shoe-3" data-name="shoe" d="M3.614,3.8A1.616,1.616,0,0,0,1.542,4.887L0,10.319A51.9,51.9,0,0,0,.728,16.7H46.293s1.776-5.872-2.051-6.34-6.358-.845-6.358-.845L16.707.07A.808.808,0,0,0,15.631.5L14.269,3.8S10.727,5.455,8.512,5.455Z" transform="translate(0 0)" fill="#e4e4e4"/>
        </g>
        <g id="Right_Shoe-4" data-name="Right Shoe" transform="translate(143.799 117.408)">
          <path id="shoe-4" data-name="shoe" d="M3.614,4.13A1.616,1.616,0,0,0,1.542,5.219L0,10.651a51.9,51.9,0,0,0,.728,6.378H46.293s1.776-5.872-2.051-6.34-6.358-.845-6.358-.845L16.707.4a.808.808,0,0,0-1.076.43l-1.361,3.3S10.727,5.787,8.512,5.787Z" transform="translate(0 -0.332)" fill="#e4e4e4"/>
        </g>
        <path id="Leg_and_Butt-2" data-name="Leg and Butt" d="M137.958,29.433c0,21.462-10.193,71.526-10.2,76.252l-21.93.017s4.815-67.006,3.415-67.728-57.4,5.591-74.194,5.591C10.832,43.564.813,28.292,0,0H47.976c9.768,1.045,60.721,11.322,79.643,14.855C135.72,16.368,137.958,23.52,137.958,29.433Z" transform="translate(37.969 0)" fill="#5c63ab"/>
      </g>
      <g id="Body_Long_Sleeve_1-2" data-name="Body/Long Sleeve 1" transform="translate(27.648 54.127)">
        <path id="Skin-4" data-name="Skin" d="M43.917,41.566,56.234,34.8s2.592-9.864,6.2-9.926c.93-.433.575,1.461.442,3.355-.132,1.866-.048,3.731,1.689,3.374,3.5-.721,12.043-7.074,13.516-5.785,2.178,1.909.236,7.77-2.052,10.684-4.277,5.449-7.817,7.312-16.568,9.752-6.863,1.914-14.84,7.671-14.84,7.671ZM0,28.608,28.04,13.25A69.369,69.369,0,0,1,41.823.349c1.383-.577,3.8-.927,1.54,3.087s-4.46,8.338-3.308,9.575c.506.543,1.344.514,2.242.485,1.145-.036,2.387-.073,3.158,1.079q1.375,2.055-14.725,6.492L10.355,39.722Z" transform="translate(65.771 5.888)" fill="#997659"/>
        <path id="Sleeve" d="M4.447,5.141A68.9,68.9,0,0,0,42.615,0l3.506,12.947C35.1,20.888,20.487,26.53,8.834,24.348-.35,22.628-3.3,10.723,4.447,5.141Z" transform="translate(46.918 26.692) rotate(-9)" fill="#e87613"/>
        <path id="Clothes" d="M27,115.1c-9.864-1.282-19.042-2.564-24.374-1.514C-6.518,83.9,11.16,71.831,11.174,52.831,11.19,32.025,27.9,0,30.354,0H52.77c1.236,15.881,7.456,33.385,12.563,50.677C81.622,54.375,117.8,41.5,117.8,41.5s9.132,18.892,8.443,26.937c-21.056,11-39.1,15.9-53.968,16.225.472,8.821-.6,17.216-4.208,24.885C65.363,115.289,57.9,117,48.785,117A177.2,177.2,0,0,1,27,115.1Z" transform="translate(0 0)" fill="#ff9b21"/>
      </g>
    </g>
  </g>
</svg>
