<svg xmlns="http://www.w3.org/2000/svg" width="64.39" height="60.826" viewBox="0 0 64.39 60.826">
  <g id="cooperation" transform="translate(0 -13.161)">
    <path id="Path_55835" data-name="Path 55835" d="M85.071,163.558l1.2-9.307c0-3.339,4.206-6.19,7.206-3.19l2.045,2.045Z" transform="translate(-73.552 -118.135)" fill="#ffcebf"/>
    <path id="Path_55836" data-name="Path 55836" d="M107.922,153.107l-1.372,1.373h0l-2.045-2.044a3.882,3.882,0,0,0-5.094-.565c1.339-2.034,4.237-3.038,6.467-.808Z" transform="translate(-85.951 -118.136)" fill="#ffb09e"/>
    <path id="Path_55837" data-name="Path 55837" d="M199.186,86.25l2.045,2.045-4.09,4.09L195.1,90.34a2.892,2.892,0,0,1,4.09-4.09Z" transform="translate(-167.948 -62.461)" fill="#ffcebf"/>
    <path id="Path_55838" data-name="Path 55838" d="M209.439,96.5l.657.657-4.09,4.09-.657-.657a2.892,2.892,0,0,1,4.09-4.09Z" transform="translate(-176.813 -71.326)" fill="#ffb09e"/>
    <path id="Path_55839" data-name="Path 55839" d="M168.985,116.452l2.045,2.045-4.089,4.089-2.045-2.045a2.891,2.891,0,1,1,4.089-4.089Z" transform="translate(-141.837 -88.573)" fill="#ffcebf"/>
    <path id="Path_55840" data-name="Path 55840" d="M179.239,126.706l.656.656-4.089,4.089-.656-.656a2.891,2.891,0,1,1,4.089-4.089Z" transform="translate(-150.702 -97.438)" fill="#ffb09e"/>
    <path id="Path_55841" data-name="Path 55841" d="M138.78,146.652l2.045,2.045-4.09,4.09-2.045-2.045a2.892,2.892,0,1,1,4.09-4.09Z" transform="translate(-115.721 -114.684)" fill="#ffcebf"/>
    <path id="Path_55842" data-name="Path 55842" d="M149.035,156.906l.656.656-4.09,4.09-.656-.656a2.892,2.892,0,1,1,4.09-4.09Z" transform="translate(-124.587 -123.549)" fill="#ffb09e"/>
    <path id="Path_55843" data-name="Path 55843" d="M108.577,176.86l2.045,2.045-4.089,4.089-2.045-2.045a2.891,2.891,0,1,1,4.089-4.089Z" transform="translate(-89.608 -140.802)" fill="#ffcebf"/>
    <path id="Path_55844" data-name="Path 55844" d="M118.831,187.114l.656.656-4.089,4.089-.656-.656a2.891,2.891,0,1,1,4.089-4.089Z" transform="translate(-98.473 -149.667)" fill="#ffb09e"/>
    <g id="Group_31443" data-name="Group 31443" transform="translate(9.795 22.943)">
      <path id="Path_55845" data-name="Path 55845" d="M141.354,106.759l21.313,21.313-5.747,7.877-8.853,6.722a33.161,33.161,0,0,0-2.64-2.536,12.1,12.1,0,0,0-3.661-2,12.036,12.036,0,0,1-4.645-2.887L125,123.117Z" transform="translate(-117.866 -103.868)" fill="#ffcebf"/>
      <path id="Path_55846" data-name="Path 55846" d="M93.651,106.759l16.358,16.358L97.884,135.243a12.036,12.036,0,0,1-4.645,2.887c-2.6.879-4.418,2.658-6.3,4.541l-7.649-6.1-6.95-8.5Z" transform="translate(-72.338 -103.868)" fill="#ffcebf"/>
      <path id="Path_55847" data-name="Path 55847" d="M233.84,92.385l2.045-2.045a2.892,2.892,0,1,0-4.089-4.089L229.751,88.3Z" transform="translate(-208.438 -85.404)" fill="#ffcebf"/>
      <path id="Path_55848" data-name="Path 55848" d="M264.043,122.589l2.045-2.045A2.892,2.892,0,1,0,262,116.455l-2.045,2.045Z" transform="translate(-234.551 -111.518)" fill="#ffcebf"/>
      <path id="Path_55849" data-name="Path 55849" d="M294.246,152.792l2.045-2.045a2.892,2.892,0,0,0-4.089-4.089l-2.045,2.045Z" transform="translate(-260.665 -137.632)" fill="#ffcebf"/>
      <path id="Path_55850" data-name="Path 55850" d="M326.5,176.86a2.891,2.891,0,0,1,0,4.089l-2.045,2.045-4.089-4.089,2.045-2.045a2.885,2.885,0,0,1,2.044-.847,2.959,2.959,0,0,1,.748.1,2.876,2.876,0,0,1,1.3.749Z" transform="translate(-286.781 -163.745)" fill="#ffcebf"/>
    </g>
    <path id="Path_55851" data-name="Path 55851" d="M326.5,181.575l-2.046,2.046-4.089-4.089,2.044,2.043,2.044-2.044a2.887,2.887,0,0,0,.749-2.793,2.893,2.893,0,0,1,1.3,4.838Z" transform="translate(-276.984 -141.428)" fill="#ffb09e"/>
    <path id="Path_55852" data-name="Path 55852" d="M193.341,171.029l-3.55.784-3.367.743a3.7,3.7,0,0,0-1.821,1L178.06,180.1a12.024,12.024,0,0,1-4.645,2.888c-2.6.876-4.419,2.659-6.3,4.541l-1.27-.561-.773-1.484c1.882-1.882,3.7-3.665,6.3-4.541a12.052,12.052,0,0,0,4.644-2.888l5.766-5.765a1.954,1.954,0,0,0,0-2.763c-1.468-1.468-2.942-3.374-5-3.984l-5.084-1.506c-3.163-.572-2.735-5.4.547-5.4h7.215c.077,0,.156,0,.234.005a8.19,8.19,0,0,1,5.459,2.755l3.775,3.774A26.089,26.089,0,0,1,193.341,171.029Z" transform="translate(-142.719 -125.78)" fill="#ffb09e"/>
    <path id="Path_55853" data-name="Path 55853" d="M228.987,161.4l3.774,3.774a26.036,26.036,0,0,1,4.419,5.857l-3.549.784-4.687,1.034-5.809-5.809c-1.837-1.837-5.2-2.292-7.6-3.005-3.223-.577-2.67-5.4.548-5.4h7.215c.077,0,.155,0,.235,0A8.19,8.19,0,0,1,228.987,161.4Z" transform="translate(-184.481 -125.782)" fill="#ffcebf"/>
    <path id="Path_55854" data-name="Path 55854" d="M268.07,161.4l3.774,3.774a26.037,26.037,0,0,1,4.419,5.857l1.9,1.9-5.747,7.877-8.853,6.722a33.163,33.163,0,0,0-2.64-2.536l8.471-8.471,1.849-1.849a3.543,3.543,0,0,0,.4-4.534,47.914,47.914,0,0,0-3.832-4.962l-3.774-3.774a8.2,8.2,0,0,0-5.458-2.756l3.8,0c.077,0,.155,0,.234,0A8.19,8.19,0,0,1,268.07,161.4Z" transform="translate(-223.564 -125.782)" fill="#ffb09e"/>
    <g id="Group_31444" data-name="Group 31444" transform="translate(31.18 13.161)">
      <path id="Path_55855" data-name="Path 55855" d="M231.3,17.268a1.016,1.016,0,0,1-1.015-1.015V14.176a1.015,1.015,0,1,1,2.031,0v2.076A1.016,1.016,0,0,1,231.3,17.268Z" transform="translate(-230.281 -13.161)" fill="#fff0ad"/>
    </g>
    <g id="Group_31445" data-name="Group 31445" transform="translate(25.552 14.319)">
      <path id="Path_55856" data-name="Path 55856" d="M190.562,25.645a1.015,1.015,0,0,1-.931-.609l-.832-1.9a1.015,1.015,0,0,1,1.861-.814l.832,1.9a1.016,1.016,0,0,1-.93,1.423Z" transform="translate(-188.714 -21.711)" fill="#fff0ad"/>
    </g>
    <g id="Group_31446" data-name="Group 31446" transform="translate(20.859 17.635)">
      <path id="Path_55857" data-name="Path 55857" d="M156.6,49.643a1.012,1.012,0,0,1-.689-.27l-1.524-1.409a1.016,1.016,0,1,1,1.379-1.491l1.524,1.409a1.015,1.015,0,0,1-.69,1.761Z" transform="translate(-154.058 -46.202)" fill="#fff0ad"/>
    </g>
    <g id="Group_31447" data-name="Group 31447" transform="translate(35.976 14.319)">
      <path id="Path_55858" data-name="Path 55858" d="M266.716,25.647a1.016,1.016,0,0,1-.93-1.422l.832-1.9a1.015,1.015,0,0,1,1.861.814l-.832,1.9A1.016,1.016,0,0,1,266.716,25.647Z" transform="translate(-265.701 -21.714)" fill="#fff0ad"/>
    </g>
    <g id="Group_31448" data-name="Group 31448" transform="translate(39.976 17.635)">
      <path id="Path_55859" data-name="Path 55859" d="M296.259,49.643a1.015,1.015,0,0,1-.69-1.761l1.524-1.409a1.016,1.016,0,0,1,1.379,1.491l-1.524,1.409A1.012,1.012,0,0,1,296.259,49.643Z" transform="translate(-295.243 -46.202)" fill="#fff0ad"/>
    </g>
    <path id="Path_55860" data-name="Path 55860" d="M297.528,264.168l7,7-7.516,8.457-9.53,8.589-6.161-6.161a1.192,1.192,0,0,1,0-1.686Z" transform="translate(-242.933 -217.021)" fill="#ddeafb"/>
    <path id="Path_55861" data-name="Path 55861" d="M333.993,303.793l-7.515,8.457-9.53,8.59-1.9-1.9L332.1,301.9Z" transform="translate(-272.393 -249.642)" fill="#cbe2ff"/>
    <path id="Path_55862" data-name="Path 55862" d="M346.106,315.9l2.441,2.441a1.192,1.192,0,0,1,0,1.686l-15.36,15.36a1.192,1.192,0,0,1-1.686,0l-2.441-2.441Z" transform="translate(-284.506 -261.749)" fill="#ffd15b"/>
    <path id="Path_55863" data-name="Path 55863" d="M354.21,325.6,338.85,340.96a1.193,1.193,0,0,1-1.687,0l-1.553-1.554a1.191,1.191,0,0,0,1.671-.014l15.361-15.359a1.194,1.194,0,0,0,0-1.686l1.568,1.568A1.193,1.193,0,0,1,354.21,325.6Z" transform="translate(-290.169 -267.323)" fill="#ffc344"/>
    <path id="Path_55864" data-name="Path 55864" d="M27.611,264.168l16.2,16.2a1.192,1.192,0,0,1,0,1.686l-6.162,6.161-8.7-7.7-8.35-9.343Z" transform="translate(-17.816 -217.021)" fill="#ddeafb"/>
    <path id="Path_55865" data-name="Path 55865" d="M76.317,282.055l-1.072,1.073L58.2,266.082l1.915-1.915,16.2,16.2A1.192,1.192,0,0,1,76.317,282.055Z" transform="translate(-50.319 -217.02)" fill="#cbe2ff"/>
    <circle id="Ellipse_738" data-name="Ellipse 738" cx="1.144" cy="1.144" r="1.144" transform="translate(18.692 63.172)" fill="#fff9df"/>
    <path id="Path_55866" data-name="Path 55866" d="M2.791,315.9l17.046,17.046L17.4,335.387a1.192,1.192,0,0,1-1.686,0L.35,320.027a1.192,1.192,0,0,1,0-1.686Z" transform="translate(0 -261.749)" fill="#570000"/>
    <path id="Path_55867" data-name="Path 55867" d="M0,0H2.322V24.106H0Z" transform="translate(1.143 55.79) rotate(-45)" fill="#af0606"/>
  </g>
</svg>
