<svg xmlns="http://www.w3.org/2000/svg" width="430.208" height="461.939" viewBox="0 0 430.208 461.939">
  <g id="Mobile_Marketing-cuate" data-name="Mobile Marketing-cuate" transform="translate(-46.98 -36.642)">
    <g id="freepik--background-complete--inject-15" transform="translate(59.25 36.642)">
      <path id="Path_6550" data-name="Path 6550" d="M60.5,230.33a30.727,30.727,0,1,1,39.489,18.086A30.727,30.727,0,0,1,60.5,230.33Z" transform="translate(-58.56 -27.577)" fill="#ebebeb"/>
      <path id="Path_6551" data-name="Path 6551" d="M104.59,220.766c-3.528,9.843-13.848,16.635-13.848,16.635s-11.655-4.238-17.292-12.99C68.7,217.1,70.154,208.443,76,205.9c8.37-3.645,12.376,11.221,12.376,11.221s.456-15.385,9.462-13.774C104.113,204.47,107.524,212.522,104.59,220.766Z" transform="translate(-57.842 -26.722)" fill="#fff"/>
      <path id="Path_6552" data-name="Path 6552" d="M420.865,311.379a30.135,30.135,0,0,1-9.144,2.935,30.727,30.727,0,1,1,9.144-2.935Z" transform="translate(-39.641 -23.745)" fill="#ebebeb"/>
      <path id="Path_6553" data-name="Path 6553" d="M415.409,280.261a9.345,9.345,0,1,1-8.476-10.119,9.345,9.345,0,0,1,8.476,10.119Z" transform="translate(-38.422 -22.74)" fill="#fff"/>
      <path id="Path_6554" data-name="Path 6554" d="M420.5,305.465l-.328,3.846a30.133,30.133,0,0,1-9.144,2.935A30.525,30.525,0,0,1,388,306.535l.328-3.836a16.149,16.149,0,0,1,32.178,2.765Z" transform="translate(-38.943 -21.678)" fill="#fff"/>
      <circle id="Ellipse_488" data-name="Ellipse 488" cx="33.747" cy="33.747" r="33.747" transform="matrix(0.92, -0.392, 0.392, 0.92, 308.884, 26.448)" fill="#ebebeb"/>
      <g id="freepik--xsrjP0--inject-15" transform="translate(331.595 21.537)">
        <path id="Path_6555" data-name="Path 6555" d="M387.692,93.111c-.89-.562-1.664-1.377-2.861-1.261-.456,0-.36-.339-.36-.583V77.78c0-.318,0-.593.381-.773,3.433-1.727,4.916-5.139,7.025-8.042a13.456,13.456,0,0,0,2.49-10.2c-.148-1.007.328-1.462,1.24-1.674a2.278,2.278,0,0,1,2.564.816,18.139,18.139,0,0,1,1.96,5.891c.2,1.7-.413,3.359-.625,5.043-.159,1.24-.445,2.458-.678,3.708.3.212.646.106.975.106h11.39c1.6,0,2.384.456,2.606,1.515a3.052,3.052,0,0,1-1.653,3.3c-.286.138-.805,0-.837.456s.5.4.763.593c1.367.943,1.112,2.882-.477,4.005-.381.275-1.123.148-1.144.71s.689.445,1.006.752c1.06,1.06.551,3.179-1.06,3.973a6.22,6.22,0,0,0-.668.254c-.191.127-.371.275,0,.53,1.642,1.176,1.611,2.808,0,4.005l-.5.35a3.178,3.178,0,0,1-2,.445H389.366A2.119,2.119,0,0,1,387.692,93.111Z" transform="translate(-370.749 -56.968)" fill="#fff" fill-rule="evenodd"/>
        <path id="Path_6556" data-name="Path 6556" d="M371.541,84.13V75.558c0-.572.053-.858.763-.858h10.447c.689,0,.795.223.784.826V92.776c0,.731-.2.932-.932.922q-5.065-.064-10.129,0c-.848,0-.964-.286-.954-1.06C371.562,89.852,371.541,86.991,371.541,84.13Z" transform="translate(-371.519 -55.912)" fill="#fff" fill-rule="evenodd"/>
      </g>
      <path id="Path_6557" data-name="Path 6557" d="M115.421,378.36c1.769,11.305-4.588,23.246-4.588,23.246S97.44,403.6,87.385,398.131c-8.434-4.5-11.517-13.658-7.279-19.157,6.167-7.883,17.779,4.344,17.779,4.344s-7.6-15.056,1.918-18.2C106.447,362.9,114.012,368.93,115.421,378.36Z" transform="translate(-57.39 -17.109)" fill="#ebebeb"/>
      <path id="Path_6558" data-name="Path 6558" d="M136.818,352.347c-5.065,6.728-14.632,9.536-14.632,9.536s-7.925-6.029-10.214-14.134c-1.907-6.76,1.282-13.085,6.357-13.636,7.321-.805,6.845,11.591,6.845,11.591s4.026-11.729,10.6-8.339C140.346,339.685,141.035,346.71,136.818,352.347Z" transform="translate(-55.413 -18.931)" fill="#ebebeb"/>
    </g>
    <g id="freepik--Shadow--inject-15" transform="translate(94.236 453.635)">
      <ellipse id="Ellipse_489" data-name="Ellipse 489" cx="167.853" cy="22.473" rx="167.853" ry="22.473" fill="#ebebeb"/>
    </g>
    <g id="freepik--Floor--inject-15" transform="translate(46.98 456.241)">
      <path id="Path_6559" data-name="Path 6559" d="M46.98,433.19l53.783-.254,53.772-.1,107.555-.18,107.555.18,53.772.1,53.772.254-53.772.254-53.772.1-107.555.18-107.555-.18-53.772-.1Z" transform="translate(-46.98 -432.66)" fill="#263238"/>
    </g>
    <g id="freepik--Device--inject-15" transform="translate(154.438 63.425)">
      <path id="Path_6560" data-name="Path 6560" d="M345.592,61.92H166.529A18.288,18.288,0,0,0,148.4,80.377V449.1a18.3,18.3,0,0,0,18.129,18.457H345.592a18.309,18.309,0,0,0,18.15-18.457V80.377a18.3,18.3,0,0,0-18.15-18.457Zm6.813,375.789c0,9.705-7.268,17.557-16.222,17.557H175.938c-9,0-16.253-7.851-16.253-17.557V94.353c0-19.771,7.258-20.735,16.253-20.735h32.094c1.865,0,3.391,2.119,3.391,4.747V79.5c0,6.156,3.369,6.177,7.512,6.177H293.1c4.238,0,7.512,0,7.512-6.177V78.364c0-2.628,1.5-4.747,3.412-4.747h32.1c8.953,0,16.222,2.628,16.222,20.735Z" transform="translate(-148.399 -61.92)" fill="#263238"/>
      <path id="Path_6561" data-name="Path 6561" d="M260.758,77.221H240.51a1.25,1.25,0,0,1-1.25-1.25h0a1.25,1.25,0,0,1,1.25-1.25h20.248a1.25,1.25,0,0,1,1.25,1.25h0A1.25,1.25,0,0,1,260.758,77.221Z" transform="translate(-142.989 -61.158)" fill="#fff"/>
      <path id="Path_6562" data-name="Path 6562" d="M351.771,93.7V437.052c0,9.705-7.268,17.557-16.222,17.557H175.3c-9,0-16.253-7.851-16.253-17.557V93.7c0-19.771,7.258-20.735,16.253-20.735H207.4c1.865,0,3.391,2.119,3.391,4.747V78.84c0,6.156,3.369,6.177,7.512,6.177h74.168c4.238,0,7.512,0,7.512-6.177V77.707c0-2.628,1.5-4.747,3.412-4.747h32.1C344.5,73,351.771,75.588,351.771,93.7Z" transform="translate(-147.765 -61.263)" fill="#fff"/>
      <path id="Path_6563" data-name="Path 6563" d="M351.774,93.7v25.62H159V93.7C159,73.924,166.311,73,175.3,73h32.1c1.865,0,3.391,2.119,3.391,4.747v1.134c0,6.156,3.369,6.177,7.5,6.177H292.5c4.175,0,7.523,0,7.523-6.177V77.707c0-2.628,1.5-4.747,3.4-4.747H335.52C344.505,73,351.774,75.588,351.774,93.7Z" transform="translate(-147.768 -61.263)" fill="#af0606"/>
      <path id="Path_6564" data-name="Path 6564" d="M176.6,105.51l-5.69-5.34,5.69-5.34.879.943-4.683,4.4,4.683,4.4Z" transform="translate(-147.059 -59.96)" fill="#fff"/>
      <path id="Path_6565" data-name="Path 6565" d="M324.879,105.9h-3.814v-1.335a.328.328,0,0,0-.18-.286c-.148-.074-.286-.159-.424-.244a.329.329,0,0,0-.339,0l-1.144.657-1.907-3.3,1.155-.668a.307.307,0,0,0,.148-.3,1.794,1.794,0,0,1,0-.244,1.866,1.866,0,0,1,0-.244.307.307,0,0,0-.148-.3l-1.155-.668,1.907-3.3,1.144.657a.328.328,0,0,0,.339,0c.138-.085.275-.17.424-.244a.329.329,0,0,0,.18-.286V94.48h3.814V95.8a.328.328,0,0,0,.18.286l.424.244a.328.328,0,0,0,.339,0l1.144-.657,1.9,3.3-1.144.668a.318.318,0,0,0-.159.3,1.877,1.877,0,0,1,0,.244v.233a.3.3,0,0,0,.148.307l1.144.668-1.9,3.3-1.155-.657a.307.307,0,0,0-.328,0l-.424.244a.329.329,0,0,0-.18.286Zm-3.02-.795h2.225v-.54a1.123,1.123,0,0,1,.6-1,2.407,2.407,0,0,0,.36-.2,1.06,1.06,0,0,1,1.166,0l.456.265,1.112-1.928-.466-.265a1.06,1.06,0,0,1-.54-1.06v-.4a1.06,1.06,0,0,1,.551-1.06l.456-.265-1.112-1.928-.456.265a1.06,1.06,0,0,1-1.166,0,2.959,2.959,0,0,0-.35-.2,1.113,1.113,0,0,1-.615-1v-.53h-2.225v.53a1.113,1.113,0,0,1-.615,1,2.3,2.3,0,0,0-.35.2,1.06,1.06,0,0,1-1.166,0l-.456-.265-1.06,1.928.456.265a1.06,1.06,0,0,1,.551,1.06,1.918,1.918,0,0,0,0,.4,1.06,1.06,0,0,1-.551,1.06l-.456.265,1.06,1.928.456-.265a1.06,1.06,0,0,1,1.166,0,2.956,2.956,0,0,0,.35.2,1.113,1.113,0,0,1,.615,1Zm1.112-2.056a2.871,2.871,0,1,1,2.861-2.861,2.871,2.871,0,0,1-2.861,2.861Zm0-4.937a2.119,2.119,0,1,0,2.066,2.119A2.119,2.119,0,0,0,322.972,98.114Z" transform="translate(-138.355 -59.981)" fill="#fff"/>
      <g id="freepik--u5Zjqx--inject-15" transform="translate(47.151 18.002)">
        <path id="Path_6566" data-name="Path 6566" d="M199.84,80.319l-.307.307c-.064,0-.117.117-.18.18a4.132,4.132,0,0,0-2.988-1.24,4.09,4.09,0,0,0-2.988,1.24l-.17-.18-.307-.307h0l.392-.339a4.3,4.3,0,0,1,.911-.583,4.43,4.43,0,0,1,1.2-.4,1.492,1.492,0,0,0,.6-.085h.932a4.777,4.777,0,0,1,1.06.265,4.853,4.853,0,0,1,.752.35,4.746,4.746,0,0,1,.71.5l.328.3Z" transform="translate(-192.9 -78.91)" fill="#fff"/>
        <path id="Path_6567" data-name="Path 6567" d="M194.3,81.706c-.159-.17-.318-.328-.487-.487a3.518,3.518,0,0,1,4.99,0l-.487.487a2.84,2.84,0,0,0-4.016,0Z" transform="translate(-192.846 -78.834)" fill="#fff"/>
        <path id="Path_6568" data-name="Path 6568" d="M197.774,82.118l-.487.487a1.388,1.388,0,0,0-1.06-.424,1.43,1.43,0,0,0-1.06.424l-.487-.487a2.119,2.119,0,0,1,3.094,0Z" transform="translate(-192.794 -78.759)" fill="#fff"/>
        <path id="Path_6569" data-name="Path 6569" d="M196.633,83.025a.434.434,0,0,1-.434.434.445.445,0,1,1,0-.879.434.434,0,0,1,.434.445Z" transform="translate(-192.734 -78.692)" fill="#fff"/>
      </g>
      <path id="Path_6570" data-name="Path 6570" d="M170.9,81.192a1.282,1.282,0,1,1,1.282,1.282A1.282,1.282,0,0,1,170.9,81.192Z" transform="translate(-147.059 -60.849)" fill="#fff"/>
      <path id="Path_6571" data-name="Path 6571" d="M174.7,81.192a1.282,1.282,0,1,1,1.282,1.282A1.282,1.282,0,0,1,174.7,81.192Z" transform="translate(-146.833 -60.849)" fill="#fff"/>
      <path id="Path_6572" data-name="Path 6572" d="M178.5,81.192a1.271,1.271,0,1,1,.369.906A1.282,1.282,0,0,1,178.5,81.192Z" transform="translate(-146.607 -60.849)" fill="#fff"/>
      <path id="Path_6573" data-name="Path 6573" d="M182.3,81.192a1.271,1.271,0,1,1,.369.906A1.282,1.282,0,0,1,182.3,81.192Z" transform="translate(-146.381 -60.849)" fill="#fff"/>
      <path id="Path_6574" data-name="Path 6574" d="M186.09,81.192a1.282,1.282,0,1,1,1.282,1.282A1.282,1.282,0,0,1,186.09,81.192Z" transform="translate(-146.155 -60.849)" fill="#fff"/>
      <path id="Path_6575" data-name="Path 6575" d="M327.885,84.02h-10.4V79.21h10.4Zm-9.875-.53h9.345V79.74h-9.324Z" transform="translate(-138.331 -60.89)" fill="#fff"/>
      <rect id="Rectangle_2529" data-name="Rectangle 2529" width="6.707" height="3.179" transform="translate(180.018 19.135)" fill="#fff"/>
      <rect id="Rectangle_2530" data-name="Rectangle 2530" width="0.922" height="2.575" transform="translate(189.554 19.443)" fill="#fff"/>
      <path id="Path_6576" data-name="Path 6576" d="M187.425,413.735h-1.462v6.728h-2.734V417.03h-4.853v3.433h-2.734v-6.728H174.17l6.633-6.845Z" transform="translate(-146.865 -41.378)" fill="#ebebeb"/>
      <rect id="Rectangle_2531" data-name="Rectangle 2531" width="15.978" height="2.278" transform="translate(172.018 365.512)" fill="#ebebeb"/>
      <rect id="Rectangle_2532" data-name="Rectangle 2532" width="15.978" height="2.278" transform="translate(172.018 371.159)" fill="#ebebeb"/>
      <rect id="Rectangle_2533" data-name="Rectangle 2533" width="15.978" height="2.278" transform="translate(172.018 376.806)" fill="#ebebeb"/>
      <path id="Path_6577" data-name="Path 6577" d="M187.314,149.641a10.522,10.522,0,0,1-3.1,1.3,10.775,10.775,0,1,1,3.1-1.3Z" transform="translate(-147.062 -57.884)" fill="#dbdbdb"/>
      <path id="Path_6578" data-name="Path 6578" d="M184.508,138.914a3.274,3.274,0,1,1-3.274-3.274A3.274,3.274,0,0,1,184.508,138.914Z" transform="translate(-146.639 -57.53)" fill="#fff"/>
      <path id="Path_6579" data-name="Path 6579" d="M187.026,147.582v1.346a10.522,10.522,0,0,1-3.1,1.3,10.712,10.712,0,0,1-8.2-1.3v-1.346a5.658,5.658,0,1,1,11.305,0Z" transform="translate(-146.773 -57.171)" fill="#fff"/>
      <rect id="Rectangle_2534" data-name="Rectangle 2534" width="68.351" height="5.637" transform="translate(58.837 72.473)" fill="#ebebeb"/>
      <rect id="Rectangle_2535" data-name="Rectangle 2535" width="59.663" height="3.73" transform="translate(58.837 81.871)" fill="#ebebeb"/>
      <rect id="Rectangle_2536" data-name="Rectangle 2536" width="98.654" height="3.73" transform="translate(58.837 89.065)" fill="#ebebeb"/>
      <rect id="Rectangle_2537" data-name="Rectangle 2537" width="192.7" height="134.944" transform="translate(203.974 237.211) rotate(180)" fill="#ebebeb"/>
      <path id="Path_6580" data-name="Path 6580" d="M180.3,195.547a15.967,15.967,0,1,0,15.967-15.967A15.967,15.967,0,0,0,180.3,195.547Z" transform="translate(-146.5 -54.914)" fill="#dbdbdb"/>
      <path id="Path_6581" data-name="Path 6581" d="M239.8,262.181H346.963L293.381,189.56Z" transform="translate(-142.957 -54.319)" fill="#c7c7c7"/>
      <path id="Path_6582" data-name="Path 6582" d="M200.16,261.088h88.472L244.4,213.79Z" transform="translate(-145.317 -52.877)" fill="#dbdbdb"/>
      <rect id="Rectangle_2538" data-name="Rectangle 2538" width="192.7" height="29.074" transform="translate(11.285 208.148)" fill="#dbdbdb"/>
      <path id="Path_6583" data-name="Path 6583" d="M187.311,354.118a10.745,10.745,0,1,1,4.8-11.7A10.8,10.8,0,0,1,187.311,354.118Z" transform="translate(-147.058 -45.705)" fill="#dbdbdb"/>
      <path id="Path_6584" data-name="Path 6584" d="M184.508,343.354a3.274,3.274,0,1,1-3.274-3.274A3.274,3.274,0,0,1,184.508,343.354Z" transform="translate(-146.639 -45.357)" fill="#fff"/>
      <path id="Path_6585" data-name="Path 6585" d="M187.026,352.02v1.388a10.793,10.793,0,0,1-3.1,1.293,10.669,10.669,0,0,1-8.2-1.3v-1.346a5.658,5.658,0,1,1,11.305,0Z" transform="translate(-146.773 -44.995)" fill="#fff"/>
      <rect id="Rectangle_2539" data-name="Rectangle 2539" width="87.911" height="5.637" transform="translate(58.837 289.087)" fill="#ebebeb"/>
      <rect id="Rectangle_2540" data-name="Rectangle 2540" width="112.217" height="3.73" transform="translate(58.837 298.485)" fill="#ebebeb"/>
      <rect id="Rectangle_2541" data-name="Rectangle 2541" width="38.228" height="3.73" transform="translate(58.837 305.679)" fill="#ebebeb"/>
      <rect id="Rectangle_2542" data-name="Rectangle 2542" width="192.7" height="32.962" transform="translate(11.285 318.892)" fill="#ebebeb"/>
      <path id="Path_6586" data-name="Path 6586" d="M211.239,394.594H181.19a15.967,15.967,0,0,1,30.049,0Z" transform="translate(-146.447 -42.739)" fill="#dbdbdb"/>
      <circle id="Ellipse_490" data-name="Ellipse 490" cx="6.378" cy="6.378" r="6.378" transform="translate(24.042 245.137)" fill="#ebebeb"/>
      <g id="freepik--xsrjp0--inject-15-2" data-name="freepik--xsrjp0--inject-15" transform="translate(26.352 247.224)">
        <path id="Path_6587" data-name="Path 6587" d="M176.327,302.084c-.17-.106-.318-.265-.54-.244s-.064-.053-.064-.106v-2.543a.138.138,0,0,1,.074-.148c.646-.328.932-.975,1.335-1.526a2.554,2.554,0,0,0,.466-1.928c0-.191.064-.275.233-.318a.434.434,0,0,1,.487.159,3.444,3.444,0,0,1,.371,1.112,4.883,4.883,0,0,1-.117.954,4.052,4.052,0,0,1-.127.7h2.3c.307,0,.456.085.5.286a.572.572,0,0,1-.318.625c-.053,0-.148,0-.159.085s.1.074.148.117c.254.17.212.54-.1.752-.064.053-.212,0-.212.138s.127.085.191.138a.487.487,0,0,1-.212.752.649.649,0,0,0-.127.053s-.064,0,0,.1a.424.424,0,0,1,0,.763l-.085.064a.614.614,0,0,1-.381.085h-3.38a.424.424,0,0,1-.286-.063Z" transform="translate(-173.127 -295.25)" fill="#fff" fill-rule="evenodd"/>
        <path id="Path_6588" data-name="Path 6588" d="M173.27,300.391V298.77c0-.117,0-.169.148-.169h1.971c.127,0,.148,0,.148.159v3.263c0,.138,0,.18-.17.17H173.45c-.159,0-.18-.053-.18-.2C173.281,301.461,173.27,300.931,173.27,300.391Z" transform="translate(-173.27 -295.05)" fill="#fff" fill-rule="evenodd"/>
      </g>
      <path id="Path_6589" data-name="Path 6589" d="M183.92,301.171a6.357,6.357,0,1,1,2.882,3.948A6.357,6.357,0,0,1,183.92,301.171Z" transform="translate(-146.295 -48.141)" fill="#4847e0"/>
      <path id="Path_6590" data-name="Path 6590" d="M193.218,300.275a8.2,8.2,0,0,1-3.253,3.094,8.19,8.19,0,0,1-3.263-3.094c-.795-1.621-.286-3.38.975-3.761,1.822-.551,2.289,2.617,2.289,2.617s.466-3.179,2.278-2.617C193.514,296.9,194.023,298.654,193.218,300.275Z" transform="translate(-146.141 -47.955)" fill="#fff"/>
      <rect id="Rectangle_2543" data-name="Rectangle 2543" width="90.538" height="3.687" transform="translate(59.897 250.689)" fill="#ebebeb"/>
      <path id="Path_6591" data-name="Path 6591" d="M159.04,319.292l24.094-.191,24.083-.074L255.4,318.9l48.178.127,24.083.074,24.094.191-24.094.191-24.083.074-48.178.138-48.178-.138-24.083-.074Z" transform="translate(-147.766 -46.618)" fill="#ebebeb"/>
    </g>
    <g id="freepik--Icons--inject-15" transform="translate(63.189 103.397)">
      <rect id="Rectangle_2544" data-name="Rectangle 2544" width="67.281" height="67.281" transform="translate(0 183.422) rotate(-14.93)" fill="#455a64"/>
      <path id="Path_6592" data-name="Path 6592" d="M97.8,305.3l-8.709,2.32c-.911-3.4-1.769-6.612-2.67-10l8.551-2.278c-.17-.773-.275-1.377-.424-1.971-.646-2.649-1.452-5.3-1.907-7.936-.985-5.891,1.452-10.882,6.929-13.181,3.412-1.441,7.184-2.013,10.882-3,.837,3.1,1.589,5.933,2.437,9.1-1.324.35-2.649.678-3.952,1.06a18.844,18.844,0,0,0-3.444,1.176,3.359,3.359,0,0,0-1.928,3.9c.572,2.585,1.335,5.128,2.119,7.9l9.939-2.659c.445,3.391.9,6.527,1.24,9.674,0,.307-.625.879-1.06,1.06-2.384.71-4.789,1.314-7.417,2,2.289,8.614,4.545,17.08,6.845,25.683l-10.6,2.818C102.377,322.429,100.109,313.963,97.8,305.3Z" transform="translate(-60.841 -89.546)" fill="#fff"/>
      <rect id="Rectangle_2545" data-name="Rectangle 2545" width="67.461" height="67.461" transform="matrix(0.995, 0.099, -0.099, 0.995, 318.934, 236.389)" fill="#455a64"/>
      <path id="Path_6593" data-name="Path 6593" d="M419.37,347.843c.636-6.717-3.179-11.485-9.79-12.206q-13.774-1.515-27.654-2.744c-6.527-.572-11.178,3.327-11.92,9.822-.519,4.6-.922,9.207-1.377,13.774s-.922,9.006-1.335,13.509c-.625,6.876,3.179,11.655,9.928,12.428q13.668,1.494,27.357,2.712c6.675.583,11.39-3.38,12.079-10.013Q418.088,361.49,419.37,347.843ZM412.24,374.8c-.466,4.238-2.988,6.357-7.237,5.976q-13.689-1.271-27.357-2.712c-4.238-.445-6.357-3.02-5.955-7.247q1.3-13.774,2.734-27.6c.434-4.238,3.03-6.357,7.247-6.008q13.689,1.261,27.357,2.7c4.238.456,6.357,3.094,5.944,7.3-.4,4.6-.89,9.2-1.346,13.774s-.879,9.2-1.388,13.8Z" transform="translate(-44.12 -85.76)" fill="#fff"/>
      <path id="Path_6594" data-name="Path 6594" d="M393.9,345.324a12.958,12.958,0,1,0,8.775,4.772,12.969,12.969,0,0,0-8.775-4.772ZM391.6,366.8a8.762,8.762,0,0,1-7.618-9.335,8.656,8.656,0,1,1,17.228,1.706A8.752,8.752,0,0,1,391.6,366.8Z" transform="translate(-43.383 -85.02)" fill="#fff"/>
      <path id="Path_6595" data-name="Path 6595" d="M409.264,346.79a2.978,2.978,0,1,1-5.838-1.123c.318-1.791,1.579-2.511,3.391-2.437C408.618,343.718,409.593,344.873,409.264,346.79Z" transform="translate(-41.971 -85.141)" fill="#fff"/>
      <rect id="Rectangle_2546" data-name="Rectangle 2546" width="50.17" height="50.17" transform="translate(329.866 79.572) rotate(19.59)" fill="#455a64"/>
      <path id="Path_6596" data-name="Path 6596" d="M367.07,211.364a17.27,17.27,0,0,0,11.655.5c-3.878-2.861-5.139-4.81-4.9-7.5l2.967.89c-2.956-2.532-4.154-5.552-3.083-9.409l2.723,1.854c-1.738-5.075-1.282-8.37,1.611-10.6a23,23,0,0,0,12.715,13.181c.148-.5.244-.879.36-1.25a7.544,7.544,0,0,1,6.6-5.679,7.629,7.629,0,0,1,7.841,3.9,1.589,1.589,0,0,0,1.526.932H411.2a7.914,7.914,0,0,1-4.164,2.649,1.8,1.8,0,0,1,0,.244l3.931.35.1.2c-1.261.6-2.511,1.261-3.8,1.791a2.119,2.119,0,0,0-1.356,1.324,22.367,22.367,0,0,1-26.7,14.3,22.7,22.7,0,0,1-11.6-7A7.164,7.164,0,0,0,367.07,211.364Z" transform="translate(-44.129 -94.438)" fill="#fff"/>
      <path id="Path_52502" data-name="Path 52502" d="M0,0H43.6V43.6H0Z" transform="translate(312.496 13.791) rotate(-18.44)" fill="#455a64"/>
      <path id="Path_6597" data-name="Path 6597" d="M373.818,147.055c-.138-2.6-.286-5-.36-7.417a2.6,2.6,0,0,0-.837-1.9,16.268,16.268,0,1,1,17.472,3.444,17.292,17.292,0,0,1-8.063,1.06,2.575,2.575,0,0,0-1.494.371C378.321,144.067,376.17,145.487,373.818,147.055Zm2.511-4.842c1.377-.89,2.532-1.685,3.74-2.395a2.4,2.4,0,0,1,1.409-.275,14.346,14.346,0,0,0,6.7-.445c7.925-2.49,11.825-11.92,7.767-19.072a12.577,12.577,0,0,0-12.895-6.876,12.778,12.778,0,0,0-11.655,9.388c-1.738,5.435-.254,10.161,3.942,14.05a2.426,2.426,0,0,1,.689,1.43c.2,1.324.222,2.681.307,4.153Z" transform="translate(-44.064 -99)" fill="#fff"/>
      <path id="Path_6598" data-name="Path 6598" d="M375.017,121.913c.572-1.748,2.066-1.939,3.306-.636.487.509.625.689,1.134,1.293a1.981,1.981,0,0,1,.381,2.554c-.392.667-.191,1.06.371,1.515a11.348,11.348,0,0,0,5.944,2.373,1.06,1.06,0,0,0,1.3-.784c.805-2.045.837-2.034,3.03-1.78l.752.1a1.875,1.875,0,0,1,1.547,3,4.5,4.5,0,0,1-3.931,2.469,16.38,16.38,0,0,1-11.655-3.963,6.209,6.209,0,0,1-2.32-3.073A5.456,5.456,0,0,1,375.017,121.913Z" transform="translate(-43.674 -98.408)" fill="#fff"/>
    </g>
    <g id="freepik--Character--inject-15" transform="translate(59.355 100.533)">
      <path id="Path_6599" data-name="Path 6599" d="M241.108,280.85s-7.491,23.734-16.953,54.63c-10.511,34.34-23.458,77.506-31.235,106.739H263.7c1.187-4.7,2.479-9.79,3.846-15.194l5.976-23.31c5.658-22.028,11.888-46.112,17.324-67.059,8.148-31.394,14.505-55.774,14.505-55.774Z" transform="translate(-50.665 -85.991)" fill="#455a64"/>
      <path id="Path_6600" data-name="Path 6600" d="M288.562,297.175c-1.526,5.435-3.443,10.776-5.128,16.147s-3.422,11.009-5.118,16.518q-5.043,16.37-10,32.751-9.949,32.751-19.835,65.544c-1.324,4.4-2.712,8.784-4.079,13.181h2.119q3.8-12.63,7.608-25.281,9.981-33.28,19.888-66.593,4.959-16.73,9.864-33.492c1.642-5.647,3.179-11.305,4.821-16.953C289.537,296.179,289.176,294.939,288.562,297.175Z" transform="translate(-47.6 -85.088)" fill="#263238"/>
      <path id="Path_6601" data-name="Path 6601" d="M245.29,280.85c4.461,34.51,12.958,99.227,19.157,146.217,14.505-56.887,37.8-146.217,37.8-146.217Z" transform="translate(-47.547 -85.991)" fill="#263238"/>
      <path id="Path_6602" data-name="Path 6602" d="M270.705,403.683c.35,12.99.7,26.584.975,38.536h65.035c-1.324-29.54-3.6-71.233-5.51-104.842-1.8-31.924-3.285-56.527-3.285-56.527H240.36s1.483,30.727,8.476,55.1c.562,2.013,1.176,3.994,1.844,5.891a114.577,114.577,0,0,1,18.521,9.536S269.985,376.093,270.705,403.683Z" transform="translate(-47.84 -85.991)" fill="#455a64"/>
      <path id="Path_6603" data-name="Path 6603" d="M321.914,441.614h1.06q-.646-11.74-1.187-23.469c-1.886-42.276-3.369-84.584-4.768-126.87a.26.26,0,1,0-.519,0c.71,23.914,1.335,47.839,2.119,71.753Q319.986,402.252,321.914,441.614Z" transform="translate(-43.307 -85.387)" fill="#263238"/>
      <path id="Path_6604" data-name="Path 6604" d="M247.2,336.681a141.191,141.191,0,0,1,21.678,11.358.254.254,0,0,1-.233.445c-7.311-3.56-14.781-6.982-21.89-10.924a.5.5,0,0,1,.445-.879Z" transform="translate(-47.472 -82.668)" fill="#263238"/>
      <path id="Path_6605" data-name="Path 6605" d="M242.9,304.587c.6,3.253,1.388,6.474,2.119,9.705.657,3.03,1.134,6.124,1.939,9.112a15.47,15.47,0,0,0,4.238,7.65c1.187,1.06,2.5,2.119,3.772,3.094.678.54,1.42,1.06,2.119,1.621-.1-.424-.17-.869-.244-1.3-.223-1.24-.424-2.469-.636-3.7-.456-2.744-.9-5.488-1.314-8.233-.826-5.393-1.589-10.839-2.712-16.179a.18.18,0,0,1,.339-.085c1.346,5.3,2.829,10.532,3.994,15.893.572,2.617,2.628,15.544,2.712,16.455s.169,1.886.212,2.84a11.57,11.57,0,0,1,0,2.9c-.053.233-.339.191-.445,0h0a11.919,11.919,0,0,1-.826-2.808c-.233-.922-.445-1.854-.6-2.8-.064-.339-.106-.678-.159-1.06-1.271-.773-2.458-1.791-3.645-2.659s-2.585-1.833-3.8-2.85a14.632,14.632,0,0,1-4.641-7.247,52.978,52.978,0,0,1-1.515-9.292c-.413-3.666-.71-7.364-1.229-11.019C242.528,304.46,242.856,304.365,242.9,304.587Z" transform="translate(-47.709 -84.586)" fill="#263238"/>
      <path id="Path_6606" data-name="Path 6606" d="M258.043,201.294c-4.344,34.626-11.93,92.7-24.211,97.394-2.119.816-11.168,2.607-17.345-4.344-10.415-11.719-28.428-51.261-33.482-63.986-2.236-5.637,34.531-24.031,37.677-18.362,4.408,7.936,9.038,19.888,9.907,19.485,1.473-.668,3.973-15.406,13.774-36.109C256.6,169.646,259.664,188.421,258.043,201.294Z" transform="translate(-51.262 -91.846)" fill="#ad6359"/>
      <path id="Path_6607" data-name="Path 6607" d="M172.964,216.864c3.624,7.777,17.249,20.778,21.742,22.653S222.074,218.972,221.491,214s-14.834-30.186-22.643-34.075S169.224,208.811,172.964,216.864Z" transform="translate(-51.879 -92.02)" fill="#ad6359"/>
      <path id="Path_6608" data-name="Path 6608" d="M218.039,209.962s-.752-11.136,1.886-20.6c2.225-7.957,6.431-19.527,2.193-20.884-8.688-2.787-19.157,26.065-19.157,26.065s-2.585,13.467,5.785,16.953A9.017,9.017,0,0,0,218.039,209.962Z" transform="translate(-50.09 -92.694)" fill="#ad6359"/>
      <path id="Path_6609" data-name="Path 6609" d="M195.915,218.526l-12.895-2.267,6.58-37.349,16.317,2.871Z" transform="translate(-51.255 -92.062)" fill="#ffc727"/>
      <path id="Path_6610" data-name="Path 6610" d="M205.917,181.781,202.1,195.8l-6.188,22.738-12.905-2.278,6.59-37.349Z" transform="translate(-51.255 -92.062)" fill="#ffc727"/>
      <path id="Path_6611" data-name="Path 6611" d="M205.688,181.781,201.874,195.8,186.86,193.15l2.511-14.24Z" transform="translate(-51.026 -92.062)" opacity="0.1"/>
      <rect id="Rectangle_2548" data-name="Rectangle 2548" width="20.619" height="15.66" transform="translate(137.606 76.518) rotate(10)" fill="#ffc727"/>
      <path id="Path_6612" data-name="Path 6612" d="M222.392,170.931l-16.052-1.208,4.4-24.963,15.491,4.365Z" transform="translate(-49.866 -94.095)" fill="#f82121"/>
      <path id="Path_6613" data-name="Path 6613" d="M209.216,141.073l-6.484,36.84L175.7,176.419,110.17,188.212l15.6-88.472,57.544,33.5Z" transform="translate(-55.593 -96.776)" fill="#af0606"/>
      <ellipse id="Ellipse_491" data-name="Ellipse 491" cx="45.137" cy="14.505" rx="45.137" ry="14.505" transform="translate(38.819 88.902) rotate(-80)" fill="#f82121"/>
      <ellipse id="Ellipse_492" data-name="Ellipse 492" cx="40.072" cy="11.878" rx="40.072" ry="11.878" transform="translate(42.287 83.476) rotate(-80)" opacity="0.2"/>
      <path id="Path_6614" data-name="Path 6614" d="M125.7,142.707c-.519,2.9-1.06,5.711-1.769,8.4a8.964,8.964,0,0,1-13.181-9.388l.731-4.175a8.953,8.953,0,0,1,15.544-4.376C126.715,136.286,126.27,139.528,125.7,142.707Z" transform="translate(-55.566 -94.966)" fill="#f82121"/>
      <path id="Path_6615" data-name="Path 6615" d="M212.4,180.664l-31.045-2.331,8.508-48.273,29.975,8.423Z" transform="translate(-51.354 -94.97)" fill="#f82121"/>
      <path id="Path_6616" data-name="Path 6616" d="M212.4,180.664l-31.045-2.331,8.508-48.273,29.975,8.423Z" transform="translate(-51.354 -96.295)" opacity="0.408"/>
      <path id="Path_6617" data-name="Path 6617" d="M128.6,106.15a28.163,28.163,0,0,1,3.179,9.6,63.574,63.574,0,0,1,.795,10.129c0,1.7-.053,3.391-.106,5.075s-.223,3.38-.4,5.065-.36,3.369-.615,5.043-.5,3.348-.795,5.012a110.976,110.976,0,0,1-5.3,19.591,57.291,57.291,0,0,1-4.408,9.155,24.115,24.115,0,0,1-6.728,7.523,24.708,24.708,0,0,0,6.357-7.756,57,57,0,0,0,4.122-9.176,118.67,118.67,0,0,0,5.012-19.506,121.183,121.183,0,0,0,2.119-20.025,63.774,63.774,0,0,0-.519-10.055,29.211,29.211,0,0,0-2.712-9.674Z" transform="translate(-55.352 -96.394)" opacity="0.2"/>
      <path id="Path_6618" data-name="Path 6618" d="M97.33,98.9c1.833,1.452,3.6,3,5.3,4.545s3.454,3.179,5.149,4.747,3.359,3.242,4.99,4.927l2.426,2.522c.784.869,1.6,1.716,2.363,2.606-.932-.72-1.812-1.483-2.723-2.225L112.2,113.7c-1.748-1.536-3.454-3.179-5.149-4.747s-3.359-3.242-4.98-4.927S98.866,100.669,97.33,98.9Z" transform="translate(-56.357 -96.826)" fill="#263238"/>
      <path id="Path_6619" data-name="Path 6619" d="M111.38,163.42c-2.554.668-5.139,1.218-7.714,1.748s-5.171,1.06-7.766,1.473-5.192.879-7.809,1.24l-3.92.53c-1.3.138-2.617.307-3.931.413,1.271-.339,2.564-.615,3.846-.932l3.867-.816c2.575-.551,5.171-1.06,7.766-1.473s5.192-.879,7.809-1.229S108.752,163.653,111.38,163.42Z" transform="translate(-57.375 -92.984)" fill="#263238"/>
      <path id="Path_6620" data-name="Path 6620" d="M63.83,154.816c3.867-.3,7.735-.487,11.655-.657s7.735-.286,11.6-.381,7.745-.148,11.655-.138h5.806c1.939,0,3.878,0,5.817.138-1.939.159-3.867.254-5.806.381l-5.806.286c-3.867.18-7.735.275-11.655.381s-7.745.138-11.655.127S67.708,154.954,63.83,154.816Z" transform="translate(-58.352 -93.566)" fill="#263238"/>
      <path id="Path_6621" data-name="Path 6621" d="M76.92,99.63c3.306,2.119,6.548,4.344,9.78,6.58s6.431,4.514,9.621,6.8,6.357,4.62,9.472,7l4.683,3.571c1.536,1.229,3.094,2.416,4.62,3.666-1.663-1.06-3.285-2.119-4.927-3.242l-4.853-3.338c-3.242-2.225-6.431-4.514-9.621-6.8s-6.357-4.63-9.472-7S79.971,102.141,76.92,99.63Z" transform="translate(-57.573 -96.782)" fill="#263238"/>
      <path id="Path_6622" data-name="Path 6622" d="M112.146,140.243c-4.492-.615-8.974-1.346-13.446-2.119s-8.932-1.589-13.393-2.373-8.911-1.706-13.35-2.628l-6.665-1.388c-2.2-.509-4.429-.975-6.633-1.515,2.246.307,4.492.668,6.728,1l6.718,1.06c4.471.742,8.932,1.589,13.393,2.373s8.911,1.706,13.35,2.628S107.759,139.194,112.146,140.243Z" transform="translate(-58.66 -94.961)" fill="#263238"/>
      <path id="Path_6623" data-name="Path 6623" d="M209.98,188.877c-.5,4.514-5.541,1.356-5.541,1.356S210.6,196.527,208.3,201c-2.236,4.291-8.19.254-8.625,0,.328.339,5.838,6.272,3.062,10.521s-8.18-.668-8.476-1c.2.413,2.829,5.923,0,8.667-4.9,4.715-11.983-9.2-17.281-10.67,0,0-3.528,8.688-3.687,8.921,0,0-7.014-13.085-4.62-20.131a4.747,4.747,0,0,1,4.959-3.274s-2.723-3.963-.646-7.417c1.06-1.748,4.832-1.589,4.832-1.589s-2.056-3.274,0-6.188c1.621-2.331,5.128-1.812,5.128-1.812s-.519-4.047,1.918-5.9C189.679,167.421,211.018,179.2,209.98,188.877Z" transform="translate(-52.139 -92.567)" fill="#ad6359"/>
      <path id="Path_6624" data-name="Path 6624" d="M182.582,176.687a.064.064,0,0,1,0-.117,41.964,41.964,0,0,1,21.265,13.435c.17.212-.106.583-.339.381A86.883,86.883,0,0,0,182.582,176.687Z" transform="translate(-51.283 -92.201)" fill="#263238"/>
      <path id="Path_6625" data-name="Path 6625" d="M177.132,184.139c-.085,0,0-.18.074-.148,8.19,2.267,17.143,7.947,22.25,16.095.17.286.053.71-.18.4C195.494,195.327,184.326,187.349,177.132,184.139Z" transform="translate(-51.608 -91.759)" fill="#263238"/>
      <path id="Path_6626" data-name="Path 6626" d="M194.052,209.86c-5.224-7.629-12.365-12.821-20.46-17.091-.106,0,0-.2.085-.169,4.524,1.06,9.409,4.238,12.99,7.131a24.264,24.264,0,0,1,7.65,9.949C194.381,209.839,194.158,209.977,194.052,209.86Z" transform="translate(-51.819 -91.247)" fill="#263238"/>
      <path id="Path_6627" data-name="Path 6627" d="M204.108,189.11c.2.254-.392.275-.2.53.837,1.06,5.245,8.137,3.316,10.384-1.547,1.8-5.043.964-6.251.117l-3.062-2.119,2.119,3.062a15.015,15.015,0,0,1,2.119,4.44,5.425,5.425,0,0,1-.328,4.439,3.115,3.115,0,0,1-3.634,1.473,9.536,9.536,0,0,1-3.973-2.543l-3.1-3.179,1.9,3.963a14.5,14.5,0,0,1,1.166,3.465,6.008,6.008,0,0,1-.18,3.4,2.829,2.829,0,0,1-2.416,1.716,6.209,6.209,0,0,1-3.232-1.24,49.329,49.329,0,0,1-5.8-5.012c-.932-.89-1.875-1.78-2.861-2.628a9.282,9.282,0,0,0-3.3-2.034,9.949,9.949,0,0,1,3.052,2.3c.911.911,1.769,1.865,2.638,2.818a41.512,41.512,0,0,0,5.647,5.425,7.226,7.226,0,0,0,3.846,1.621,4.005,4.005,0,0,0,3.645-2.405,7.226,7.226,0,0,0,.36-4.238,15.735,15.735,0,0,0-1.229-3.878l-1.208.826a10.828,10.828,0,0,0,4.673,3.052,4.535,4.535,0,0,0,3.051-.17,5.182,5.182,0,0,0,2.246-2.013,6.876,6.876,0,0,0,.413-5.626,16.411,16.411,0,0,0-2.448-4.842l-.932.932c1.589,1.06,5.383,2.384,8.137-.106C211.429,197.332,205.316,190.307,204.108,189.11Z" transform="translate(-51.65 -91.454)" fill="#263238"/>
      <path id="Path_6628" data-name="Path 6628" d="M202.4,189.434a9.177,9.177,0,0,0,2.734.583,2.119,2.119,0,0,0,1.928-.922,4.3,4.3,0,0,0,.392-2.405c-.064-.911-.18-1.865-.339-2.85a7.088,7.088,0,0,1,1.324,2.7,4.238,4.238,0,0,1-.307,3.232,2.945,2.945,0,0,1-1.409,1.134,3.178,3.178,0,0,1-1.706.1,4.906,4.906,0,0,1-2.617-1.568Z" transform="translate(-50.101 -91.768)" fill="#263238"/>
      <path id="Path_6629" data-name="Path 6629" d="M180.3,242.953l40.189-32.263s9.737,20.131,10.309,20.047,6.951-26.8,17.525-43.441,13.117,1.42,10.871,15.152-12.82,89.839-22.325,96.811-18.436-1.759-22.25-5.457C209.289,288.641,180.3,242.953,180.3,242.953Z" transform="translate(-51.417 -91.96)" fill="#ffc727"/>
      <path id="Path_6630" data-name="Path 6630" d="M187.6,244.332c1.261-1.293,13.891-11.146,16.677-13.223l8.392-6.23c2.882-2.119,5.732-4.461,8.784-6.357a.128.128,0,0,1,.159.2c-2.649,2.437-5.637,4.556-8.476,6.771s-5.584,4.387-8.381,6.559-15.512,11.655-17.037,12.492C187.591,244.608,187.517,244.459,187.6,244.332Z" transform="translate(-50.984 -89.705)" fill="#263238"/>
      <path id="Path_6631" data-name="Path 6631" d="M228,227.87c1.06,2.373,2.119,4.81,3.009,7.247s1.78,4.927,2.575,7.417,1.515,5.012,2.119,7.565a67.937,67.937,0,0,1,1.452,7.724c-.392-1.261-.71-2.522-1.06-3.761s-.742-2.5-1.134-3.751l-2.331-7.417-2.331-7.417-1.24-3.836C228.7,230.381,228.307,229.131,228,227.87Z" transform="translate(-48.576 -89.146)" fill="#263238"/>
      <path id="Path_6632" data-name="Path 6632" d="M228.151,313.955c1.738,1.727,108.593-3.931,109.133-4.62,1.409-1.886-36.809-115.607-61.856-133.6-5.382-3.867-19.856,1.314-23.575,5.043-2.331,2.342-7.417,17.122-10.723,29.339C234.455,234.595,226.636,312.44,228.151,313.955Z" transform="translate(-48.579 -92.332)" fill="#fff"/>
      <path id="Path_6633" data-name="Path 6633" d="M252.792,176.069c-4.238,3.179-7.48,19.4,2.2,21.594s18.669-13.1,19.994-18.012S261.957,169.267,252.792,176.069Z" transform="translate(-47.346 -92.421)" fill="#ffc727"/>
      <path id="Path_6634" data-name="Path 6634" d="M255.884,196.483c6.008.773,15.13-9.239,18.341-16.953.223-.53-1.06-5.69-2.395-12.047-.773-3.857-1.536-8.169-1.96-12.164l-24.37,8.7s3.338,8.106,4.026,15.067a8.614,8.614,0,0,1,0,1.653v.275C249.325,184.2,250.077,195.742,255.884,196.483Z" transform="translate(-47.534 -93.466)" fill="#ad6359"/>
      <path id="Path_6635" data-name="Path 6635" d="M268.716,155.74c-.254,5.065-2.172,23.31-16.624,25.154a17.062,17.062,0,0,1-2.585.127.752.752,0,0,1,0-.275,10.75,10.75,0,0,0,0-1.653c-.7-6.951-4.037-15.056-4.037-15.056Z" transform="translate(-47.536 -93.441)" fill="#263238"/>
      <path id="Path_6636" data-name="Path 6636" d="M271.156,127.84c3.549,8.625,1.3,34.711-4.461,41.036-8.37,9.165-23.31,11.38-31.373,1.06-7.841-10.013-4.312-43.971,2.246-49.8C247.221,111.438,265.9,115.1,271.156,127.84Z" transform="translate(-48.408 -95.844)" fill="#ad6359"/>
      <path id="Path_6637" data-name="Path 6637" d="M265.25,165.58h0" transform="translate(-46.358 -92.855)" fill="none" stroke="#f4a69d" stroke-linecap="round" stroke-linejoin="round" stroke-width="0"/>
      <path id="Path_6638" data-name="Path 6638" d="M247.154,144.151c0-.064.138.1.127.17-.2,1.759-.127,3.793,1.409,4.5v.106C246.751,148.495,246.687,145.783,247.154,144.151Z" transform="translate(-47.45 -94.132)" fill="#263238"/>
      <path id="Path_6639" data-name="Path 6639" d="M248.875,142.54c2.84,0,2.606,5.7,0,5.69S246.491,142.529,248.875,142.54Z" transform="translate(-47.445 -94.227)" fill="#263238"/>
      <path id="Path_6640" data-name="Path 6640" d="M237.948,143.811c0-.064-.138.085-.138.148,0,1.769-.339,3.783-1.96,4.3v.106C237.821,148.176,238.213,145.485,237.948,143.811Z" transform="translate(-48.109 -94.153)" fill="#263238"/>
      <path id="Path_6641" data-name="Path 6641" d="M236.555,142c-2.829-.328-3.285,5.3-.668,5.658S238.918,142.3,236.555,142Z" transform="translate(-48.21 -94.26)" fill="#263238"/>
      <path id="Path_6642" data-name="Path 6642" d="M251.245,140.4a20.129,20.129,0,0,1-2.172-.869,3.783,3.783,0,0,1-2.045-1.3,1.208,1.208,0,0,1,.254-1.452,2.988,2.988,0,0,1,3.02-.18,4.408,4.408,0,0,1,2.448,2,1.282,1.282,0,0,1-1.5,1.8Z" transform="translate(-47.452 -94.601)" fill="#263238"/>
      <path id="Path_6643" data-name="Path 6643" d="M234.54,139.43c.784-.1,1.5-.318,2.278-.487a3.719,3.719,0,0,0,2.236-.954,1.2,1.2,0,0,0,0-1.462,2.988,2.988,0,0,0-2.956-.689,4.408,4.408,0,0,0-2.744,1.558,1.293,1.293,0,0,0,1.187,2.034Z" transform="translate(-48.272 -94.635)" fill="#263238"/>
      <path id="Path_6644" data-name="Path 6644" d="M249.466,159.732c-.434.392-.879.943-1.526.964a4.524,4.524,0,0,1-1.875-.519.064.064,0,0,0-.074.085,2.331,2.331,0,0,0,2.193,1.06,1.865,1.865,0,0,0,1.452-1.494A.1.1,0,0,0,249.466,159.732Z" transform="translate(-47.505 -93.205)" fill="#263238"/>
      <path id="Path_6645" data-name="Path 6645" d="M248.3,155.76a5.955,5.955,0,0,1-4.111,2.5,7.416,7.416,0,0,1-2.119,0,2.418,2.418,0,0,1-.413-.064l-.381-.074a.434.434,0,0,1-.339-.413h0a1.063,1.063,0,0,1,0-.18h0v-.159c0-1.356.244-3.412.244-3.412-.509.223-3.083,1.261-3.02.551.6-5.859,1.261-12.365,3.094-18.012.053-.191.35-.138.318,0-.35,5.658-1.7,11.2-2.119,16.868a10.352,10.352,0,0,1,2.861-.731c.191.064-.487,3.963-.445,4.577a.3.3,0,0,0,0,.064c2.267.392,4.016-.233,6.283-1.664C248.279,155.505,248.416,155.622,248.3,155.76Z" transform="translate(-47.971 -94.595)" fill="#263238"/>
      <path id="Path_6646" data-name="Path 6646" d="M242.76,156.854a7.036,7.036,0,0,0,2.924,2.066,3.179,3.179,0,0,0,1.939,0c1.377-.434,1.346-1.716,1.06-2.8a7.858,7.858,0,0,0-.71-1.653A9.133,9.133,0,0,1,242.76,156.854Z" transform="translate(-47.697 -93.517)" fill="#263238"/>
      <path id="Path_6647" data-name="Path 6647" d="M245.52,158.827a3.178,3.178,0,0,0,1.939,0c1.377-.434,1.346-1.716,1.06-2.8A3.285,3.285,0,0,0,245.52,158.827Z" transform="translate(-47.533 -93.424)" fill="#f392b9"/>
      <path id="Path_6648" data-name="Path 6648" d="M271.594,149.917c.636-2.278,6.516-26.838,5.87-29.519-.593-2.437-3.263-1.441-3.3-1.579s-.127-2.363-1.5-3.179a3.74,3.74,0,0,0-2.977,0s-.413-2.342-1.886-2.977a2.967,2.967,0,0,0-2.882.625,3.92,3.92,0,0,0-2.352-2.8,2.553,2.553,0,0,0-2.85,1.06s-.625-2.236-2.119-2.67-2.861,1.229-2.861,1.229a3.38,3.38,0,0,0-2.712-2.119,2.946,2.946,0,0,0-2.6,2.013s-1.06-1.971-2.861-2.024-2.352,2.119-2.352,2.119-.72-1.95-2.373-1.822-2.034,2.437-2.034,2.437-.922-2.119-2.871-1.515c-2.977.964-3.348,15.2-4.026,21.392,0,0,.826-2.956,2.119-3.062s2.2,1.9,4.567,2.426c3.359.742,8.953-3.179,13.583-2.214s7.83,5.69,9.451,12.715C264.4,148.6,270.09,155.321,271.594,149.917Z" transform="translate(-48.284 -96.285)" fill="#263238"/>
      <path id="Path_6649" data-name="Path 6649" d="M248.516,153.191a7.29,7.29,0,0,1-5.859-8.476h0a7.258,7.258,0,1,1,7.661,8.54A7.417,7.417,0,0,1,248.516,153.191Zm-4.906-8.264a6.294,6.294,0,1,0,7.311-5.075,5.975,5.975,0,0,0-1.557-.085A6.283,6.283,0,0,0,243.61,144.927Z" transform="translate(-47.711 -94.453)" fill="#ffc727"/>
      <path id="Path_6650" data-name="Path 6650" d="M234.005,152.475c-2.977-.138-5.245-3.507-5.065-7.5a8.677,8.677,0,0,1,1.769-5,4.524,4.524,0,0,1,7.735.36,8.646,8.646,0,0,1,1.293,5.139c-.17,3.793-2.49,6.8-5.3,7Zm-2.543-11.9a7.681,7.681,0,0,0-1.547,4.439c-.159,3.465,1.7,6.357,4.132,6.5s4.567-2.617,4.726-6.082a7.809,7.809,0,0,0-1.134-4.567,3.878,3.878,0,0,0-3.009-1.918H234.3a4.047,4.047,0,0,0-2.84,1.632Z" transform="translate(-48.521 -94.5)" fill="#ffc727"/>
      <path id="Path_6651" data-name="Path 6651" d="M243.107,145.34l.657-.72c-1.06-.975-3.539-2.331-5.4-.519l.678.689C240.7,143.168,243.011,145.244,243.107,145.34Z" transform="translate(-47.96 -94.187)" fill="#ffc727"/>
      <path id="Path_6652" data-name="Path 6652" d="M274.316,148.673l.89-.4c-.191-.413-1.918-4.037-4.058-4.482s-15.067.191-15.628.223v.964c3.74-.18,13.774-.562,15.374-.244S273.861,147.677,274.316,148.673Z" transform="translate(-46.938 -94.162)" fill="#ffc727"/>
      <path id="Path_6653" data-name="Path 6653" d="M264.053,147.114s5.192-8.741,9.112-6.951.456,14.156-3.846,16.137a4.5,4.5,0,0,1-6.209-1.971Z" transform="translate(-46.486 -94.383)" fill="#ad6359"/>
      <path id="Path_6654" data-name="Path 6654" d="M271.91,143.47a.064.064,0,0,1,0,.117c-3.009,1.494-4.429,4.492-5.351,7.565.837-1.218,2.045-1.95,3.666-.964a.1.1,0,0,1-.064.17,2.8,2.8,0,0,0-2.977,1.2,13.228,13.228,0,0,0-1.271,2.575c-.127.286-.636.18-.562-.148a.2.2,0,0,0,0-.074C265.034,149.954,267.693,144.19,271.91,143.47Z" transform="translate(-46.354 -94.172)" fill="#263238"/>
      <path id="Path_6655" data-name="Path 6655" d="M287.631,182.871c34.573,23.776,59.525,61.051,61.931,68.871,5.817,19.072,14.495,52.659,15.83,67.747.5,5.584-42.5,4.545-43.219-1.4-2.236-18.627-10.246-59.144-10.447-59.833-1.43-4.906-13.636-26.128-26.181-49.216S273.052,172.858,287.631,182.871Z" transform="translate(-45.694 -92.028)" fill="#ad6359"/>
      <path id="Path_6656" data-name="Path 6656" d="M323.415,369.147c4.387,1.5,7.237-2.373,7.237-2.373a9.886,9.886,0,0,0,5.775,3.454c4.037.593,6.728-5.478,6.728-5.478a12.248,12.248,0,0,0,6.675,2.67c3.92.169,7.5-5.563,7.5-5.563a10.839,10.839,0,0,0,7.353-1.356c3.719-2.395,5.552-14.251,5.488-20.926s-6.495-25.535-7.353-29.265H319.982s-8.233,30-7.035,37.836C313.943,354.79,318.488,367.462,323.415,369.147Z" transform="translate(-43.525 -84.237)" fill="#ad6359"/>
      <path id="Path_6657" data-name="Path 6657" d="M329.245,364.525c-2.744-6.771-3.348-13.975-4.355-21.138a.127.127,0,0,1,.254,0c.911,7.131,3.232,14,4.439,21.074a.18.18,0,0,1-.339.064Z" transform="translate(-42.807 -82.275)" fill="#263238"/>
      <path id="Path_6658" data-name="Path 6658" d="M341,362.737a19.213,19.213,0,0,1-.784-4.916q-.244-2.638-.381-5.3c-.2-3.528-.328-7.057-.339-10.6a.122.122,0,1,1,.244,0c.212,3.518.466,7.025.816,10.521.18,1.759.371,3.507.572,5.3a22.342,22.342,0,0,1,.35,4.969.254.254,0,0,1-.477.021Z" transform="translate(-41.937 -82.363)" fill="#263238"/>
      <path id="Path_6659" data-name="Path 6659" d="M354.89,359.891a13.19,13.19,0,0,1-.466-4.471c-.064-1.6-.127-3.179-.2-4.821-.148-3.179-.307-6.421-.572-9.631a.127.127,0,0,1,.254,0c.275,3.253.6,6.506.869,9.769l.35,4.8a12.375,12.375,0,0,1-.074,4.376.085.085,0,0,1-.159-.021Z" transform="translate(-41.094 -82.419)" fill="#263238"/>
      <path id="Path_6660" data-name="Path 6660" d="M320.321,318.74l46.991-3.793s-10.352-50.615-15.967-64.293-33.577-47.425-62.736-67.43c-19.835-13.594-18.606-2-9.441,16.01s30.727,59.239,31.786,62.513S320.321,318.74,320.321,318.74Z" transform="translate(-45.909 -92.159)" fill="#ffc727"/>
      <path id="Path_6661" data-name="Path 6661" d="M318.436,301.834c1.759-.413,17.705-1.875,21.191-2.119l10.415-.72c3.592-.244,7.237-.657,10.839-.615a.127.127,0,1,1,0,.244c-3.539.625-7.2.805-10.776,1.144l-10.6,1c-3.539.318-19.337,1.42-21.085,1.3C318.287,302.057,318.319,301.866,318.436,301.834Z" transform="translate(-43.197 -84.948)" fill="#263238"/>
    </g>
  </g>
</svg>
