<svg id="Group_10032" data-name="Group 10032" xmlns="http://www.w3.org/2000/svg" width="550.457" height="347.672" viewBox="0 0 550.457 347.672">
  <g id="Background_Complete" data-name="Background Complete" transform="translate(0 9.621)" opacity="0.56">
    <g id="Group_1" data-name="Group 1" transform="translate(0 0)">
      <rect id="Rectangle_1" data-name="Rectangle 1" width="550.457" height="0.275" transform="translate(0 288.33)" fill="#ebebeb"/>
      <rect id="Rectangle_2" data-name="Rectangle 2" width="36.465" height="0.275" transform="translate(151.926 297.076)" fill="#ebebeb"/>
      <rect id="Rectangle_3" data-name="Rectangle 3" width="45.291" height="0.275" transform="translate(65.043 297.213)" fill="#ebebeb"/>
      <rect id="Rectangle_4" data-name="Rectangle 4" width="21.129" height="0.275" transform="translate(136.564 304.405)" fill="#ebebeb"/>
      <rect id="Rectangle_5" data-name="Rectangle 5" width="56.881" height="0.275" transform="translate(302.017 302.325)" fill="#ebebeb"/>
      <rect id="Rectangle_6" data-name="Rectangle 6" width="37.859" height="0.275" transform="translate(368.7 302.325)" fill="#ebebeb"/>
      <rect id="Rectangle_7" data-name="Rectangle 7" width="51.564" height="0.275" transform="translate(429.219 297.677)" fill="#ebebeb"/>
      <path id="Path_1" data-name="Path 1" d="M44.49,348.636H257.075a6.12,6.12,0,0,0,6.284-5.927V60.879a6.121,6.121,0,0,0-6.284-5.927H44.49a6.12,6.12,0,0,0-6.283,5.927v281.83A6.12,6.12,0,0,0,44.49,348.636ZM257.075,55.212a5.851,5.851,0,0,1,6.009,5.667v281.83a5.851,5.851,0,0,1-6.009,5.667H44.49a5.851,5.851,0,0,1-6.008-5.667V60.879a5.851,5.851,0,0,1,6.008-5.667Z" transform="translate(245.035 -54.952)" fill="#ebebeb"/>
      <path id="Path_2" data-name="Path 2" d="M260.79,348.636H473.374a6.119,6.119,0,0,0,6.283-5.927V60.879a6.12,6.12,0,0,0-6.283-5.927H260.79a6.121,6.121,0,0,0-6.285,5.927v281.83A6.12,6.12,0,0,0,260.79,348.636ZM473.374,55.212a5.851,5.851,0,0,1,6.008,5.667v281.83a5.851,5.851,0,0,1-6.008,5.667H260.79a5.852,5.852,0,0,1-6.01-5.667V60.879a5.853,5.853,0,0,1,6.01-5.667Z" transform="translate(-209.388 -54.952)" fill="#ebebeb"/>
    </g>
  </g>
  <g id="Shadow" transform="translate(61.773 322.74)">
    <ellipse id="_Path_" data-name="&lt;Path&gt;" cx="213.455" cy="12.466" rx="213.455" ry="12.466" transform="translate(0 0)" fill="rgba(28,28,29,0.22)"/>
  </g>
  <g id="Character_2" data-name="Character 2" transform="translate(113.394 11.74)">
    <g id="Group_16" data-name="Group 16" transform="translate(0 0)">
      <path id="Path_44" data-name="Path 44" d="M307.505,410.275h9.364l1.151-21.684h-9.364Z" transform="translate(-219.494 -95.561)" fill="#7f3e3b"/>
      <path id="Path_45" data-name="Path 45" d="M348.118,410.275h9.364l3.672-21.684H351.79Z" transform="translate(-307.339 -95.561)" fill="#7f3e3b"/>
      <path id="Path_46" data-name="Path 46" d="M348.427,407.3H337.908a.77.77,0,0,0-.767.64l-1.452,8.323a1.452,1.452,0,0,0,1.45,1.666c3.669-.063,5.444-.279,10.07-.279,2.846,0,10.523.3,14.453.3,3.844,0,4.258-3.886,2.632-4.238-7.29-1.579-11.91-3.755-14.318-5.832A2.378,2.378,0,0,0,348.427,407.3Z" transform="translate(-297.671 -93.673)" fill="#263238"/>
      <path id="Path_47" data-name="Path 47" d="M302.948,407.3H292.722a.77.77,0,0,0-.767.64l-1.452,8.323a1.436,1.436,0,0,0,1.427,1.666c3.685-.062,9.005-.279,13.641-.279,5.421,0,6.8.3,13.155.3,3.844,0,4.726-3.886,3.1-4.238-7.4-1.6-10.072-1.775-16.588-5.678A4.524,4.524,0,0,0,302.948,407.3Z" transform="translate(-205.335 -93.673)" fill="#263238"/>
      <path id="Path_48" data-name="Path 48" d="M254.146,143.749l12.794-3.737S279.977,170.976,284.388,173c6,2.755,22.031,11.2,28.8,15.19.465,1.524.468,5.717-.266,6.937-11.113-.887-33.9-8.426-38.284-12.629C264.647,172.918,254.146,143.749,254.146,143.749Z" transform="translate(-156.242 -79.364)" fill="#7f3e3b"/>
      <path id="Path_49" data-name="Path 49" d="M281.577,139.132c-3.636,8.1,21.308,43.634,21.308,43.634L315.016,170.2s-10.713-26.888-16.5-37.212C292.569,122.383,285.567,130.245,281.577,139.132Z" transform="translate(-187.547 -79.816)" fill="#407bff"/>
      <path id="Path_50" data-name="Path 50" d="M281.577,139.132c-3.636,8.1,21.308,43.634,21.308,43.634L315.016,170.2s-10.713-26.888-16.5-37.212C292.569,122.383,285.567,130.245,281.577,139.132Z" transform="translate(-187.547 -79.816)" fill="#efa7a7"/>
      <path id="Path_51" data-name="Path 51" d="M294.443,165.319c.758.446,2.383,3.413,2.751,4.88s-8.167,12.86-11.477,12.4-7.1-3.683-7.78-5.423S292.838,164.375,294.443,165.319Z" transform="translate(-166.104 -77.698)" fill="#f82121"/>
      <path id="Path_52" data-name="Path 52" d="M249.926,183.274l7.763-1.4-.466,11.051s-2.712,1.093-8.545-2.519Z" transform="translate(-94.399 -76.841)" fill="#7f3e3b"/>
      <path id="Path_53" data-name="Path 53" d="M249.992,185.536l-1.4,6.767-8.315.623.465-11.051Z" transform="translate(-77.448 -76.838)" fill="#7f3e3b"/>
      <g id="Group_13" data-name="Group 13" transform="translate(42.55 293.036)">
        <path id="Path_54" data-name="Path 54" d="M317.466,388.6l-.591,11.177h-9.368L308.1,388.6Z" transform="translate(-261.493 -388.596)" opacity="0.2"/>
        <path id="Path_55" data-name="Path 55" d="M350.015,388.6h9.367l-1.9,11.177h-9.367Z" transform="translate(-348.118 -388.596)" opacity="0.2"/>
      </g>
      <path id="Path_56" data-name="Path 56" d="M346.745,128.322s12.491,32.176,4.507,84.834H301.168c-.711-7.688,2.239-49.092-6.9-85.316a128.15,128.15,0,0,1,16.665-2.117,183.743,183.743,0,0,1,21.29,0A96.407,96.407,0,0,1,346.745,128.322Z" transform="translate(-240.814 -80.392)" fill="#407bff"/>
      <path id="Path_57" data-name="Path 57" d="M346.745,128.322s12.491,32.176,4.507,84.834H301.168c-.711-7.688,2.239-49.092-6.9-85.316a128.15,128.15,0,0,1,16.665-2.117,183.743,183.743,0,0,1,21.29,0A96.407,96.407,0,0,1,346.745,128.322Z" transform="translate(-240.814 -80.392)" fill="#f82121"/>
      <path id="Path_58" data-name="Path 58" d="M348.271,136.247c1.118,5.961-.082,20.225-4.973,36.708a241.825,241.825,0,0,0-5.466-42.048l0-.07C341.112,130.5,347.2,130.658,348.271,136.247Z" transform="translate(-283.515 -79.536)" opacity="0.2"/>
      <path id="Path_59" data-name="Path 59" d="M314.329,107.608c1.67,6.85,2.741,15.34-1.833,19.911,0,0,3.085,6.949,15.814,6.949,11.631,0,5.477-6.948,5.477-6.948-7.726-1.824-7.779-11.271-6.7-16.594Z" transform="translate(-242.383 -77.668)" fill="#7f3e3b"/>
      <path id="Path_60" data-name="Path 60" d="M336.944,132.867c-7.5,2.344-8.992,4.75-8.992,4.75s-9.337-3.795-8.986-12.034a18.72,18.72,0,0,1,3.656-2.113S323.368,129.567,336.944,132.867Z" transform="translate(-251.026 -75.447)"/>
      <path id="Path_61" data-name="Path 61" d="M310.81,132.762c4.2.4,7.749,4,7.749,4s2.669-2.805.111-10.95c0,0-2.507-.854-4.57-1.3C314.1,124.516,315.754,131,310.81,132.762Z" transform="translate(-224.892 -75.381)" fill="#000002"/>
      <path id="Path_62" data-name="Path 62" d="M332.282,110.932c-.643,3.119-.887,7.656.588,11.247a12.657,12.657,0,0,1-3.462-1.048c-4.4-2.031-6.678-5.227-9.115-9.969-.225-1.213-.485-2.4-.771-3.553Z" transform="translate(-247.573 -106.209)" opacity="0.2"/>
      <path id="Path_63" data-name="Path 63" d="M316.174,87.748c2.993.979,9.689,6.717,3.351,9.62S310.962,86.042,316.174,87.748Z" transform="translate(-229.985 -30.76)" fill="#02121a"/>
      <path id="Path_64" data-name="Path 64" d="M312.052,101.518c2.915,8.98,4.175,14.364,9.908,18.046,8.623,5.541,18.582-1.04,18.354-10.591-.2-8.6-4.939-21.837-14.637-23.544C316.122,83.747,309.136,92.538,312.052,101.518Z" transform="translate(-246.061 -79.927)" fill="#7f3e3b"/>
      <path id="Path_65" data-name="Path 65" d="M338.179,92.141c4.955.837,9.085.579,10.585-3.539s-5.322-8.43-10.019-6.5c-3.474-3.6-12.935-.837-14.157,2.638-5.534-.353-10.715,5.981-6.983,9.234a6.538,6.538,0,0,0-1.126,10.247c-1.608,4.779,4.184,9.542,8.756,7.611,4.5-1.351,6.956-.241,7.582-3.154.588-2.735-.956-5.712-4.786-6.273,1.934-2.317,2.413-5.97,1.061-7.538C333.789,96.967,337.586,94.33,338.179,92.141Z" transform="translate(-258.122 -80.413)" fill="#263238"/>
      <path id="Path_66" data-name="Path 66" d="M322.882,108.833A6.631,6.631,0,0,1,318,107.272a.218.218,0,1,1,.3-.317,6.32,6.32,0,0,0,5.348,1.322.226.226,0,0,1,.264.174.214.214,0,0,1-.168.26A7.157,7.157,0,0,1,322.882,108.833Z" transform="translate(-236.878 -77.741)" fill="#263238"/>
      <path id="Path_67" data-name="Path 67" d="M331.022,111.918a9.206,9.206,0,0,0,6.573,1.913c3.068-.346,3.308-3.372,1.372-5.666-1.744-2.064-5.44-4.373-8-2.877C328.448,106.762,328.721,110.1,331.022,111.918Z" transform="translate(-265.547 -77.951)" fill="#7f3e3b"/>
      <path id="Path_68" data-name="Path 68" d="M292.242,205.113s1.271,10.223,2.906,24.088c1.864,15.706,4.185,36.1,5.661,51.637,0,.077.016.144.018.211.284,2.952.537,5.716.744,8.247,2.1,25.341-1.645,99.089-1.645,99.089h15.861s14.615-75.257,14.258-101.054c-.343-24.8-4.88-82.218-4.88-82.218Z" transform="translate(-214.722 -86.335)" fill="#1c1d1d"/>
      <path id="Path_69" data-name="Path 69" d="M303.531,391.2c-.074,0,.279,6.53.279,6.53h18.283l.46-7.17Z" transform="translate(-219.641 -95.362)" fill="#263238"/>
      <path id="Path_71" data-name="Path 71" d="M366.465,205.113s-7.3,58.764-11.857,82.048c-4.988,25.5-24.635,101.223-24.635,101.223h-17.15s11.563-73.666,13.821-98.911c2.452-27.4,7.5-84.36,7.5-84.36Z" transform="translate(-273.793 -86.335)" fill="#1c1d1d"/>
      <path id="Path_72" data-name="Path 72" d="M344.533,391.564c-.073,0-.594,6.14-.594,6.14H362.79l1.375-6.85Z" transform="translate(-305.749 -95.332)" fill="#263238"/>
      <path id="Path_73" data-name="Path 73" d="M321.368,99.781c.194.741.735,1.257,1.212,1.154s.706-.789.513-1.53-.735-1.257-1.211-1.153S321.176,99.04,321.368,99.781Z" transform="translate(-239.823 -78.614)" fill="#263238"/>
      <path id="Path_74" data-name="Path 74" d="M313.889,98.148c.194.741.735,1.257,1.211,1.153s.707-.789.514-1.53-.735-1.257-1.211-1.153S313.7,97.407,313.889,98.148Z" transform="translate(-224.11 -78.779)" fill="#263238"/>
      <path id="Path_75" data-name="Path 75" d="M314.285,98.86a29.01,29.01,0,0,0,5.128,5.577c-.971,1.5-3.307,1.425-3.307,1.425Z" transform="translate(-228.351 -78.551)" fill="#630f0f"/>
      <path id="Path_76" data-name="Path 76" d="M324.836,97.971a.411.411,0,0,0,.3-.247,3.3,3.3,0,0,1,2.363-2.051.426.426,0,0,0,.352-.5.466.466,0,0,0-.517-.378,4.112,4.112,0,0,0-3.015,2.556.462.462,0,0,0,.241.591A.44.44,0,0,0,324.836,97.971Z" transform="translate(-247.798 -78.962)" fill="#263238"/>
      <path id="Path_77" data-name="Path 77" d="M317.7,94.786a.416.416,0,0,0,.17-.1.443.443,0,0,0,.007-.627,4.541,4.541,0,0,0-3.8-1.544.42.42,0,0,0-.348.506.468.468,0,0,0,.519.374h0a3.633,3.633,0,0,1,3,1.254A.455.455,0,0,0,317.7,94.786Z" transform="translate(-226.322 -79.193)" fill="#263238"/>
      <path id="Path_78" data-name="Path 78" d="M358.251,139.233l11.832,7.15s-13.249,28.63-13.132,33.437c.217,8.983-3.651,28.46-2.607,38.719-1.454.52-5.539.641-6.773-.077-2.352-9.285-5.6-33.665-4.657-39.773C344.956,165.433,358.251,139.233,358.251,139.233Z" transform="translate(-310.356 -79.821)" fill="#7f3e3b"/>
      <path id="Path_79" data-name="Path 79" d="M357.4,127.633c-8.8,1.288-21.359,45.991-21.359,45.991l16.3,6.146s14.188-24.241,17.711-35.083C373.741,133.327,366.834,126.251,357.4,127.633Z" transform="translate(-303.949 -79.797)" fill="#407bff"/>
      <path id="Path_80" data-name="Path 80" d="M357.4,127.633c-8.8,1.288-21.359,45.991-21.359,45.991l16.3,6.146s14.188-24.241,17.711-35.083C373.741,133.327,366.834,126.251,357.4,127.633Z" transform="translate(-303.949 -79.797)" fill="#efa7a7"/>
      <path id="Path_81" data-name="Path 81" d="M348.666,409a2.744,2.744,0,0,0,1.779-.476,1.279,1.279,0,0,0,.4-1.173.75.75,0,0,0-.41-.628c-1.05-.53-3.992,1.324-4.324,1.537a.218.218,0,0,0-.09.226.237.237,0,0,0,.176.178A11.215,11.215,0,0,0,348.666,409Zm1.3-1.937a.662.662,0,0,1,.291.055.287.287,0,0,1,.152.26.866.866,0,0,1-.262.806c-.491.431-1.711.489-3.316.168A8.524,8.524,0,0,1,349.964,407.068Z" transform="translate(-294.734 -93.74)" fill="#407bff"/>
      <path id="Path_82" data-name="Path 82" d="M348.076,408.876a.229.229,0,0,0,.1-.025c.945-.527,2.719-2.578,2.472-3.623a.768.768,0,0,0-.734-.58,1.164,1.164,0,0,0-.93.284c-1.046.888-1.141,3.591-1.144,3.706a.228.228,0,0,0,.11.2A.226.226,0,0,0,348.076,408.876Zm1.709-3.8a.822.822,0,0,1,.1.008c.29.034.322.167.334.224.147.617-.972,2.167-1.9,2.9.072-.789.3-2.365.966-2.934A.751.751,0,0,1,349.785,405.081Z" transform="translate(-296.559 -93.941)" fill="#407bff"/>
      <path id="Path_83" data-name="Path 83" d="M305.492,409.007a3.428,3.428,0,0,0,2.248-.576,1.189,1.189,0,0,0,.363-1.079.744.744,0,0,0-.393-.589c-1.167-.64-4.841,1.274-5.256,1.494a.211.211,0,0,0-.107.228.236.236,0,0,0,.185.187A16.11,16.11,0,0,0,305.492,409.007Zm1.6-1.939a.886.886,0,0,1,.417.081.281.281,0,0,1,.151.238.779.779,0,0,1-.233.713c-.551.511-2.088.6-4.171.254A11.731,11.731,0,0,1,307.094,407.068Z" transform="translate(-203.907 -93.74)" fill="#407bff"/>
      <path id="Path_84" data-name="Path 84" d="M304.763,408.877a.238.238,0,0,0,.09-.019c1.105-.508,3.248-2.531,3.025-3.591-.052-.248-.243-.558-.855-.619a1.53,1.53,0,0,0-1.211.38c-1.145.979-1.277,3.5-1.281,3.607a.235.235,0,0,0,.1.2A.225.225,0,0,0,304.763,408.877Zm2.1-3.8c.044,0,.089,0,.134.008.4.041.434.2.445.249.132.636-1.312,2.227-2.433,2.919a4.959,4.959,0,0,1,1.1-2.887A1.13,1.13,0,0,1,306.866,405.081Z" transform="translate(-206.094 -93.942)" fill="#407bff"/>
      <g id="Group_15" data-name="Group 15" transform="translate(0 139.506)">
        <g id="Group_14" data-name="Group 14" transform="translate(5.35 5.091)">
          <rect id="Rectangle_23" data-name="Rectangle 23" width="65.763" height="46.057" rx="4.091" transform="matrix(-0.992, -0.129, 0.129, -0.992, 65.21, 54.18)" fill="#263238"/>
          <rect id="Rectangle_24" data-name="Rectangle 24" width="65.763" height="46.057" rx="4.091" transform="matrix(-0.992, -0.129, 0.129, -0.992, 65.21, 54.18)" opacity="0.3"/>
        </g>
        <path id="Path_85" data-name="Path 85" d="M366.91,232.153a4.292,4.292,0,0,0,4.239-3.727l1-7.638a4.285,4.285,0,0,0-3.689-4.8l-12.72-1.659a4.287,4.287,0,0,0-4.8,3.689l-1,7.639a4.285,4.285,0,0,0,3.689,4.8h0l12.72,1.659A4.33,4.33,0,0,0,366.91,232.153Zm-11.727-15.372a1.643,1.643,0,0,1,.231.017l12.72,1.659a1.793,1.793,0,0,1,1.544,2.01l-1,7.639a1.8,1.8,0,0,1-2.01,1.545l-12.719-1.659a1.8,1.8,0,0,1-1.546-2.01l1-7.639a1.806,1.806,0,0,1,1.778-1.561Zm-1.39,12.444h0Z" transform="translate(-320.335 -214.296)" fill="#263238"/>
        <rect id="Rectangle_25" data-name="Rectangle 25" width="65.763" height="46.057" rx="4.091" transform="matrix(-0.992, -0.129, 0.129, -0.992, 65.21, 58.573)" fill="#263238"/>
      </g>
      <path id="Path_86" data-name="Path 86" d="M362.076,210.045l3.6,7-10.534.482a8.382,8.382,0,0,1,1.366-9.444Z" transform="translate(-318.616 -75.61)" fill="#7f3e3b"/>
      <path id="Path_87" data-name="Path 87" d="M360.766,221.633l-6.268-.861-.241-4.066,10.534-.482-.164,2.279A3.406,3.406,0,0,1,360.766,221.633Z" transform="translate(-317.735 -75.142)" fill="#7f3e3b"/>
      <path id="Path_88" data-name="Path 88" d="M371.127,173.142c.163.865-1,4.04-1.865,5.283s-15.056,2.314-16.886-.483-1.9-7.769-1.036-9.427S370.783,171.313,371.127,173.142Z" transform="translate(-320.286 -77.471)" fill="#f82121"/>
    </g>
  </g>
  <g id="Character_1" data-name="Character 1" transform="translate(270.161 0)">
    <g id="Group_20" data-name="Group 20">
      <path id="Path_89" data-name="Path 89" d="M132.68,142.264c1.774,2.315,3.7,4.858,5.473,7.356,1.774,2.529,3.553,5.05,5.211,7.626a98.293,98.293,0,0,1,8.6,15.641c.265.652.523,1.3.745,1.946.124.325.227.645.325.962l.153.479.074.231.016.066a6.866,6.866,0,0,1,.119,2.581,41.978,41.978,0,0,1-1.945,8.137c-1.883,5.685-4.368,11.563-6.884,17.248L150.2,208.1a93.971,93.971,0,0,0,10.908-16.818,44.763,44.763,0,0,0,3.776-10.188,18.019,18.019,0,0,0,.265-6.981l-.094-.525-.081-.35-.163-.681c-.107-.457-.219-.909-.348-1.345-.239-.892-.51-1.754-.789-2.61a94.315,94.315,0,0,0-8.964-18.507c-1.76-2.848-3.569-5.644-5.51-8.342-1.956-2.72-3.857-5.323-6.1-8.006Z" transform="translate(-31.154 -67.772)" fill="#263238"/>
      <path id="Path_90" data-name="Path 90" d="M151.274,196.2l-5.8,3.077,6.663,7.8s4.16-2.814,4.348-7.111Z" transform="translate(-36.352 -64.199)" fill="#ffc3bd"/>
      <path id="Path_91" data-name="Path 91" d="M149.428,203.8l7.141,5.665,7.322-2.673-6.663-7.8Z" transform="translate(-48.101 -91.132)" fill="#ffc3bd"/>
      <path id="Path_92" data-name="Path 92" d="M245.145,181.02l-6.845,3.532.6,2.47,5.535,5.521s3.969-3.077,3.877-7.377Z" transform="translate(-230.367 -64.877)" fill="#ffc3bd"/>
      <path id="Path_93" data-name="Path 93" d="M252.383,181.982l-6.268-1.173-4.033,1.721,2.687.455,1.761,1.588Z" transform="translate(-238.597 -64.745)" fill="#ffc3bd"/>
      <path id="Path_94" data-name="Path 94" d="M242.893,192.875l6.809,1.46a3.263,3.263,0,0,0,2.108-.255l4.083-1.982-5.535-5.521-3.639-1.138-4.562,5.226A1.352,1.352,0,0,0,242.893,192.875Z" transform="translate(-241.823 -64.635)" fill="#ffc3bd"/>
      <path id="Path_95" data-name="Path 95" d="M186.921,101.077c-.15.739-.663,1.258-1.146,1.159s-.753-.776-.6-1.515.663-1.258,1.146-1.16S187.072,100.337,186.921,101.077Z" transform="translate(-110.48 -66.743)" fill="#263238"/>
      <path id="Path_96" data-name="Path 96" d="M190.524,102.092s-2.546,3.921-4.814,5.6c1.059,1.486,3.4,1.379,3.4,1.379Z" transform="translate(-114.678 -66.487)" fill="#ff5652"/>
      <path id="Path_97" data-name="Path 97" d="M185.361,97.914a.443.443,0,0,0,.326-.743,4.391,4.391,0,0,0-3.767-1.465.443.443,0,0,0,.146.873h0a3.514,3.514,0,0,1,2.97,1.193A.439.439,0,0,0,185.361,97.914Z" transform="translate(-105.38 -95.675)" fill="#263238"/>
      <path id="Path_98" data-name="Path 98" d="M184.25,112.789c-1.274,6.5-2.042,15.5,2.5,19.83,0,0-1.776,6.59-13.845,6.59-13.273,0-6.385-5.783-6.385-5.783,5.517-1.712,5.469-8,4.207-13.044Z" transform="translate(-87.816 -65.407)" fill="#ffc3bd"/>
      <path id="Path_99" data-name="Path 99" d="M186.349,135.628c1.083-1.739.73-7.016-.584-7.875-2.121-1.386-10.841-1.225-22.4,2.15,1.559,5.04-.988,7.878-.988,7.878Z" transform="translate(-85.454 -67.239)" fill="#407bff"/>
      <path id="Path_100" data-name="Path 100" d="M155.026,143.325c4.124,4.066,5.328,12.417,4.877,18.1-1.019-1.726-2.1-3.452-3.208-5.143-1.657-2.583-3.429-5.108-5.213-7.633-.5-.7-1.008-1.4-1.518-2.108-.1-.452-.2-.9-.277-1.344Z" transform="translate(-44.488 -90.866)" opacity="0.2"/>
      <path id="Path_101" data-name="Path 101" d="M128,407.14a2.851,2.851,0,0,1-2.21-.121.856.856,0,0,1-.2-.976.975.975,0,0,1,.541-.619c1.2-.572,3.954.551,4.072.6a.21.21,0,0,1,.011.383A11.194,11.194,0,0,1,128,407.14Zm-1.444-1.418a1.072,1.072,0,0,0-.247.081.561.561,0,0,0-.319.359c-.113.378.026.5.074.536.477.406,2.25.032,3.5-.468A6.9,6.9,0,0,0,126.559,405.722Z" transform="translate(11.767 -82.14)" fill="#407bff"/>
      <path id="Path_102" data-name="Path 102" d="M128.811,406.644a.205.205,0,0,1-.1,0c-1-.294-3.152-1.82-3.177-2.826a.685.685,0,0,1,.537-.68,1.146,1.146,0,0,1,.932.074c1.187.607,1.936,3.065,1.967,3.169a.21.21,0,0,1-.052.209A.214.214,0,0,1,128.811,406.644Zm-2.513-3.139c-.03.007-.061.015-.091.025-.26.091-.257.218-.255.273.014.595,1.432,1.792,2.472,2.277a5.049,5.049,0,0,0-1.614-2.5A.737.737,0,0,0,126.3,403.505Z" transform="translate(13.123 -82.361)" fill="#407bff"/>
      <path id="Path_103" data-name="Path 103" d="M187.307,408.518c-1.141,0-2.24-.157-2.609-.669a.8.8,0,0,1,.018-.919,1.046,1.046,0,0,1,.666-.492c1.477-.4,4.581,1.367,4.713,1.442a.21.21,0,0,1-.064.389A15.528,15.528,0,0,1,187.307,408.518ZM185.9,406.8a1.568,1.568,0,0,0-.407.048.637.637,0,0,0-.412.294c-.149.262-.095.391-.041.466.413.574,2.658.587,4.308.353A9.5,9.5,0,0,0,185.9,406.8Z" transform="translate(-113.092 -82.027)" fill="#407bff"/>
      <path id="Path_104" data-name="Path 104" d="M187.691,408.468a.211.211,0,0,1-.086-.019c-1.072-.481-3.195-2.4-3.032-3.405.037-.236.2-.53.783-.588a1.536,1.536,0,0,1,1.166.36c1.13.928,1.368,3.32,1.378,3.422a.208.208,0,0,1-.086.19A.213.213,0,0,1,187.691,408.468Zm-2.167-3.6a1.265,1.265,0,0,0-.127.007c-.378.039-.4.187-.41.237-.1.6,1.345,2.111,2.439,2.769a4.932,4.932,0,0,0-1.173-2.738A1.115,1.115,0,0,0,185.524,404.868Z" transform="translate(-110.793 -82.222)" fill="#407bff"/>
      <path id="Path_105" data-name="Path 105" d="M185.65,409.792h-8.879l-.884-20.562h8.879Z" transform="translate(-98.989 -83.758)" fill="#ffc3bd"/>
      <path id="Path_106" data-name="Path 106" d="M133.165,406.267l-8.562,1.814L116.834,388.4l8.562-1.815Z" transform="translate(18.507 -84.024)" fill="#ffc3bd"/>
      <path id="Path_107" data-name="Path 107" d="M125.111,405.284l9.75-2.11a.774.774,0,0,1,.868.433l3.384,7.342a1.306,1.306,0,0,1-.937,1.819c-3.416.678-5.113.837-9.4,1.765-2.638.571-8.593,2.022-12.234,2.811-3.563.772-4.9-2.711-3.478-3.359,6.37-2.911,9.031-5.473,10.755-7.861A2.159,2.159,0,0,1,125.111,405.284Z" transform="translate(17.208 -82.352)" fill="#263238"/>
      <path id="Path_108" data-name="Path 108" d="M191.608,406.974h9.7a.774.774,0,0,1,.756.607l1.754,7.893a1.291,1.291,0,0,1-1.277,1.579c-3.5-.06-8.552-.264-12.949-.264-5.14,0-6.96.281-12.989.281-3.645,0-4.657-3.686-3.131-4.02,6.946-1.519,10-1.682,16-5.383A4.109,4.109,0,0,1,191.608,406.974Z" transform="translate(-113.767 -81.967)" fill="#263238"/>
      <g id="Group_17" data-name="Group 17" transform="translate(76.899 302.57)">
        <path id="Path_109" data-name="Path 109" d="M176.272,389.235l.454,10.6h8.883l-.454-10.6Z" transform="translate(-176.272 -386.328)" opacity="0.2"/>
        <path id="Path_110" data-name="Path 110" d="M128.812,386.594l-8.566,1.815,4.008,10.142,8.566-1.815Z" transform="translate(-61.803 -386.594)" opacity="0.2"/>
      </g>
      <g id="Group_18" data-name="Group 18" transform="translate(80.307 133.858)">
        <path id="Path_111" data-name="Path 111" d="M118.033,202.752S128.11,259.89,133.642,281.3c6.058,23.441,38.542,101,38.542,101l15.9-2.9s-22.715-63.2-27.8-95.974c-3.9-25.172-11.6-80.668-11.6-80.668Z" transform="translate(-118.033 -202.752)" fill="#263238"/>
        <path id="Path_112" data-name="Path 112" d="M118.033,202.752S128.11,259.89,133.642,281.3c6.058,23.441,38.542,101,38.542,101l15.9-2.9s-22.715-63.2-27.8-95.974c-3.9-25.172-11.6-80.668-11.6-80.668Z" transform="translate(-118.033 -202.752)" fill="#fff" opacity="0.1"/>
      </g>
      <path id="Path_113" data-name="Path 113" d="M117,391.93c-.068.014,2.963,5.748,2.963,5.748l17.882-3.872-1.507-5.376Z" transform="translate(13.656 -83.839)" fill="#263238"/>
      <path id="Path_114" data-name="Path 114" d="M169.508,224.721c11.652,2.284,10.419,45.735,9.016,68.084-3.36-15.8-8.279-46.194-11.639-67.769A3.979,3.979,0,0,1,169.508,224.721Z" transform="translate(-82.832 -59.906)" opacity="0.3"/>
      <g id="Group_19" data-name="Group 19" transform="translate(62.832 133.858)">
        <path id="Path_115" data-name="Path 115" d="M169.232,202.752s-1.222,55.932-.257,78.744c1,23.729,10.842,101.422,10.842,101.422h15.042s.551-76.306,1.221-99.61c.73-25.405,4.371-80.555,4.371-80.555Z" transform="translate(-168.604 -202.752)" fill="#263238"/>
        <path id="Path_116" data-name="Path 116" d="M169.232,202.752s-1.222,55.932-.257,78.744c1,23.729,10.842,101.422,10.842,101.422h15.042s.551-76.306,1.221-99.61c.73-25.405,4.371-80.555,4.371-80.555Z" transform="translate(-168.604 -202.752)" fill="#fff" opacity="0.1"/>
      </g>
      <path id="Path_117" data-name="Path 117" d="M172.139,391.556c-.069,0,.849,6.244.849,6.244h18.3l.494-5.573Z" transform="translate(-100.988 -83.523)" fill="#263238"/>
      <path id="Path_118" data-name="Path 118" d="M154.047,141.739c-1.814,9.592-5.186,36.42.084,75.43l51.384-.792c.3-6.808-5.115-43.8-.106-76.64a7.1,7.1,0,0,0-6.084-8.09c-2.6-.35-5.622-.677-8.588-.82a174.538,174.538,0,0,0-20.189,0c-2.226.2-4.412.525-6.36.87A12.566,12.566,0,0,0,154.047,141.739Z" transform="translate(-91.8 -68.068)" fill="#263238"/>
      <path id="Path_119" data-name="Path 119" d="M192.771,149.368l8.652,2.151c.659,8.081-4.673,17.23-10,24.217A228.873,228.873,0,0,1,192.771,149.368Z" transform="translate(-131.926 -93.463)" opacity="0.2"/>
      <path id="Path_120" data-name="Path 120" d="M237.711,136.786c-1.465,2.631-3.055,5.486-4.677,8.179-1.634,2.717-3.276,5.425-4.993,8.061A107.714,107.714,0,0,1,217.01,167.7c-.5.517-1,1.044-1.506,1.523l-.379.369-.287.262c-.167.173-.453.377-.672.568-1.005.784-2.238,1.627-3.511,2.429-2.584,1.594-5.356,3.157-8.172,4.67-5.637,3.029-11.475,6-17.235,9l2.286,6.262a168.256,168.256,0,0,0,19.2-5.838c3.16-1.188,6.308-2.456,9.479-4.012a44.175,44.175,0,0,0,4.87-2.71c.435-.3.838-.549,1.3-.908l.668-.511.538-.45c.731-.6,1.409-1.213,2.094-1.829a78.274,78.274,0,0,0,7.263-7.79c2.227-2.675,4.256-5.447,6.214-8.244,1.938-2.81,3.793-5.653,5.521-8.565,1.737-2.939,3.4-5.783,4.988-8.956Z" transform="translate(-173.313 -67.388)" fill="#263238"/>
      <path id="Path_121" data-name="Path 121" d="M189.979,105.538c-2.4,8.961-3.352,14.329-8.882,18.056-8.318,5.6-18.676-.828-19-10.327-.292-8.55,3.685-21.769,13.3-23.575A12.654,12.654,0,0,1,189.979,105.538Z" transform="translate(-88.573 -67.761)" fill="#ffc3bd"/>
      <path id="Path_122" data-name="Path 122" d="M164.825,106.368c-2.128-3.139-2.944-7.964-1.448-10.28-1.4.579-11.487,1.269-7.529-5.905s11.872-9.153,18.774-7.175c-1.689.483-3.36.966-3.36.966s9.441-.676,14.027,3.138c-1.4.08-2.606.048-2.606.048s10.1,4.724,5.76,8.344c7.094,5.406,2.293,12.893-9.407,24.054-2.032,1.837-7.8,1.165-9.073.067C170.717,114.761,166.031,108.147,164.825,106.368Z" transform="translate(-82.034 -68.486)" fill="#263238"/>
      <path id="Path_123" data-name="Path 123" d="M188.706,98.614c-2.1,1.52-4.682,6.033-5.889,8.278s-2.461,1.954-3.064,2.847-3.089,15.975-.435,18.389,10.643-1.4,11.68-4.175-.865-9.58-1.386-11.125a15.921,15.921,0,0,1,.469-8.06C191,102.137,188.706,98.614,188.706,98.614Z" transform="translate(-107.097 -66.838)" fill="#263238"/>
      <path id="Path_124" data-name="Path 124" d="M182.483,104.981a8.5,8.5,0,0,1-4.02,5.241c-2.434,1.1-2.733-1.733-2.258-4.444.427-2.44,1.126-4.368,3.075-5.355C181.558,99.271,183.29,102.322,182.483,104.981Z" transform="translate(-96.166 -66.68)" fill="#ffc3bd"/>
    </g>
  </g>
</svg>
