<svg xmlns="http://www.w3.org/2000/svg" xmlns:xlink="http://www.w3.org/1999/xlink" width="139.837" height="115.513" viewBox="0 0 139.837 115.513">
  <defs>
    <linearGradient id="linear-gradient" y1="0.5" x2="1" y2="0.5" gradientUnits="objectBoundingBox">
      <stop offset="0" stop-color="#f0f2f5"/>
      <stop offset="0.99" stop-color="#f5f7f8"/>
    </linearGradient>
    <linearGradient id="linear-gradient-2" y1="0.5" x2="1" y2="0.5" gradientUnits="objectBoundingBox">
      <stop offset="0.01" stop-color="#bbbfd9"/>
      <stop offset="1" stop-color="#d6dbf8"/>
    </linearGradient>
    <linearGradient id="linear-gradient-3" x1="0.884" y1="0.619" x2="0.195" y2="0.3" gradientUnits="objectBoundingBox">
      <stop offset="0.01" stop-color="#bbbfd9"/>
      <stop offset="0.29" stop-color="#cacde2"/>
      <stop offset="0.84" stop-color="#f2f3f8"/>
      <stop offset="1" stop-color="#fff"/>
    </linearGradient>
    <linearGradient id="linear-gradient-4" x1="1.035" y1="0.625" x2="0.377" y2="0.415" gradientUnits="objectBoundingBox">
      <stop offset="0.32" stop-color="#9c9c9c"/>
      <stop offset="0.5" stop-color="#ababab"/>
      <stop offset="0.86" stop-color="#d3d3d3"/>
      <stop offset="0.91" stop-color="#d9d9d9"/>
    </linearGradient>
    <linearGradient id="linear-gradient-5" y1="0.5" x2="1" y2="0.5" gradientUnits="objectBoundingBox">
      <stop offset="0.09" stop-color="#d9d9d9"/>
      <stop offset="0.12" stop-color="#d6d6d6"/>
      <stop offset="0.7" stop-color="#aeaeae"/>
      <stop offset="1" stop-color="#9f9f9f"/>
    </linearGradient>
    <linearGradient id="linear-gradient-6" x1="-0.002" y1="0.5" x2="0.998" y2="0.5" gradientUnits="objectBoundingBox">
      <stop offset="0" stop-color="#753200"/>
      <stop offset="1" stop-color="#a04400"/>
    </linearGradient>
    <linearGradient id="linear-gradient-7" x1="0.502" y1="0.902" x2="0.473" y2="0.277" gradientUnits="objectBoundingBox">
      <stop offset="0" stop-color="#464b8b"/>
      <stop offset="0.28" stop-color="#393c76"/>
      <stop offset="0.74" stop-color="#27275a"/>
      <stop offset="1" stop-color="#201f4f"/>
    </linearGradient>
    <linearGradient id="linear-gradient-8" y1="0.5" x2="1" y2="0.5" gradientUnits="objectBoundingBox">
      <stop offset="0.09" stop-color="#e6e6e6"/>
      <stop offset="1" stop-color="#dedede"/>
    </linearGradient>
    <linearGradient id="linear-gradient-9" y1="0.5" x2="1" y2="0.5" gradientUnits="objectBoundingBox">
      <stop offset="0" stop-color="#201f4f"/>
      <stop offset="0.26" stop-color="#27275a"/>
      <stop offset="0.72" stop-color="#393c76"/>
      <stop offset="1" stop-color="#464b8b"/>
    </linearGradient>
    <linearGradient id="linear-gradient-10" x1="0" y1="0.5" x2="1" y2="0.5" xlink:href="#linear-gradient-7"/>
    <linearGradient id="linear-gradient-11" x1="0.08" y1="0.638" x2="0.787" y2="0.35" xlink:href="#linear-gradient-3"/>
    <linearGradient id="linear-gradient-12" x1="0.512" y1="0.98" x2="0.465" y2="0.374" xlink:href="#linear-gradient-7"/>
    <linearGradient id="linear-gradient-13" x1="-0.001" y1="0.501" x2="0.999" y2="0.501" xlink:href="#linear-gradient-7"/>
    <linearGradient id="linear-gradient-14" x1="-0.001" y1="0.503" x2="1" y2="0.503" xlink:href="#linear-gradient-9"/>
    <linearGradient id="linear-gradient-15" x1="1.192" y1="0.707" x2="-0.015" y2="0.443" xlink:href="#linear-gradient-6"/>
    <linearGradient id="linear-gradient-16" x1="-0.24" y1="0.262" x2="0.746" y2="1.066" gradientUnits="objectBoundingBox">
      <stop offset="0" stop-color="#a04400"/>
      <stop offset="1" stop-color="#753200"/>
    </linearGradient>
    <linearGradient id="linear-gradient-17" x1="-1.33" y1="0.544" x2="-0.604" y2="0.899" xlink:href="#linear-gradient-6"/>
    <linearGradient id="linear-gradient-18" x1="0" y1="0.5" x2="1.001" y2="0.5" xlink:href="#linear-gradient-7"/>
    <linearGradient id="linear-gradient-19" x1="0" y1="0.5" x2="1" y2="0.5" xlink:href="#linear-gradient-7"/>
    <linearGradient id="linear-gradient-23" x1="0.483" y1="1.138" x2="0.519" y2="-0.597" xlink:href="#linear-gradient-9"/>
    <linearGradient id="linear-gradient-24" x1="0.483" y1="1.138" x2="0.519" y2="-0.597" xlink:href="#linear-gradient-7"/>
    <linearGradient id="linear-gradient-25" x1="0.5" y1="1.004" x2="0.5" y2="0.049" gradientUnits="objectBoundingBox">
      <stop offset="0.31" stop-color="#fff"/>
      <stop offset="0.44" stop-color="#ecedf4"/>
      <stop offset="0.69" stop-color="#cacde2"/>
      <stop offset="0.99" stop-color="#bbbfd9"/>
    </linearGradient>
    <linearGradient id="linear-gradient-26" x1="0.472" y1="0.742" x2="0.539" y2="0.161" xlink:href="#linear-gradient-3"/>
    <linearGradient id="linear-gradient-27" x1="0.763" y1="0.564" x2="0.158" y2="0.263" xlink:href="#linear-gradient-16"/>
    <linearGradient id="linear-gradient-28" y1="0.5" x2="1" y2="0.5" gradientUnits="objectBoundingBox">
      <stop offset="0" stop-color="#c2c2c2"/>
      <stop offset="1" stop-color="#bdbdbd"/>
    </linearGradient>
    <linearGradient id="linear-gradient-29" x1="0.161" y1="1.074" x2="0.471" y2="0.335" xlink:href="#linear-gradient-3"/>
    <linearGradient id="linear-gradient-30" x1="1.145" y1="1.088" x2="0.291" y2="0.223" xlink:href="#linear-gradient-6"/>
    <linearGradient id="linear-gradient-31" x1="0.224" y1="0.601" x2="0.571" y2="0.469" gradientUnits="objectBoundingBox">
      <stop offset="0" stop-color="#a04400" stop-opacity="0"/>
      <stop offset="0.18" stop-color="#9a4100" stop-opacity="0.141"/>
      <stop offset="0.52" stop-color="#8a3b00" stop-opacity="0.522"/>
      <stop offset="0.9" stop-color="#753200"/>
    </linearGradient>
    <linearGradient id="linear-gradient-32" x1="0" y1="0.5" x2="1" y2="0.5" xlink:href="#linear-gradient-6"/>
    <linearGradient id="linear-gradient-33" x1="0.705" y1="0.636" x2="-0.409" y2="-0.136" xlink:href="#linear-gradient-6"/>
    <linearGradient id="linear-gradient-34" x1="0.999" y1="0.425" x2="0.254" y2="0.583" xlink:href="#linear-gradient-7"/>
    <linearGradient id="linear-gradient-35" y1="0.5" x2="1" y2="0.5" gradientUnits="objectBoundingBox">
      <stop offset="0.01" stop-color="#bbbfd9"/>
      <stop offset="0.77" stop-color="#cacde1"/>
      <stop offset="1" stop-color="#d0d2e4"/>
    </linearGradient>
    <linearGradient id="linear-gradient-36" x1="0.029" y1="0.616" x2="0.994" y2="0.236" gradientUnits="objectBoundingBox">
      <stop offset="0" stop-color="#abaaea"/>
      <stop offset="1" stop-color="#e7eefe"/>
    </linearGradient>
    <linearGradient id="linear-gradient-37" y1="0.501" x2="1" y2="0.501" gradientUnits="objectBoundingBox">
      <stop offset="0" stop-color="#cdccff"/>
      <stop offset="0.89" stop-color="#8988d5"/>
    </linearGradient>
    <linearGradient id="linear-gradient-38" x1="0.001" y1="0.5" x2="1" y2="0.5" xlink:href="#linear-gradient-9"/>
    <linearGradient id="linear-gradient-39" x1="1.055" y1="0.817" x2="0.074" y2="0.191" gradientUnits="objectBoundingBox">
      <stop offset="0" stop-color="#1f1844"/>
      <stop offset="0.99" stop-color="#3d3c99"/>
    </linearGradient>
    <linearGradient id="linear-gradient-40" x1="1.009" y1="0.667" x2="-0.005" y2="0.307" xlink:href="#linear-gradient-39"/>
    <linearGradient id="linear-gradient-41" x1="0.266" y1="0.736" x2="0.548" y2="0.456" gradientUnits="objectBoundingBox">
      <stop offset="0" stop-color="#e0e4eb"/>
      <stop offset="0.99" stop-color="#f3f6fd"/>
    </linearGradient>
    <linearGradient id="linear-gradient-42" x1="0.411" y1="1.038" x2="0.517" y2="0.368" xlink:href="#linear-gradient-41"/>
    <linearGradient id="linear-gradient-43" x1="0.168" y1="-0.071" x2="0.402" y2="0.267" xlink:href="#linear-gradient-41"/>
    <linearGradient id="linear-gradient-44" x1="0.43" y1="-0.441" x2="0.629" y2="0.164" xlink:href="#linear-gradient-41"/>
    <linearGradient id="linear-gradient-45" x1="-0.043" y1="0.292" x2="-0.03" y2="-0.652" xlink:href="#linear-gradient-41"/>
    <linearGradient id="linear-gradient-46" x1="0.243" y1="-0.038" x2="0.411" y2="0.592" xlink:href="#linear-gradient-41"/>
    <linearGradient id="linear-gradient-47" x1="0.784" y1="0.026" x2="0.218" y2="0.971" gradientUnits="objectBoundingBox">
      <stop offset="0" stop-color="#e6eaf1"/>
      <stop offset="0.99" stop-color="#f3f6fd"/>
    </linearGradient>
    <linearGradient id="linear-gradient-48" x1="0.405" y1="0.668" x2="1.789" y2="-0.157" xlink:href="#linear-gradient-6"/>
    <linearGradient id="linear-gradient-49" x1="0.456" y1="0.886" x2="0.61" y2="0.104" gradientUnits="objectBoundingBox">
      <stop offset="0.38" stop-color="#201f4f"/>
      <stop offset="0.54" stop-color="#27275a"/>
      <stop offset="0.83" stop-color="#393c76"/>
      <stop offset="1" stop-color="#464b8b"/>
    </linearGradient>
    <linearGradient id="linear-gradient-50" y1="0.5" x2="1" y2="0.5" gradientUnits="objectBoundingBox">
      <stop offset="0" stop-color="#fff"/>
      <stop offset="0.16" stop-color="#f2f3f8"/>
      <stop offset="0.71" stop-color="#cacde2"/>
      <stop offset="0.99" stop-color="#bbbfd9"/>
    </linearGradient>
    <linearGradient id="linear-gradient-51" x1="-0.001" y1="0.499" x2="0.999" y2="0.499" xlink:href="#linear-gradient-6"/>
    <linearGradient id="linear-gradient-52" y1="0.5" x2="1" y2="0.5" gradientUnits="objectBoundingBox">
      <stop offset="0" stop-color="#e69647"/>
      <stop offset="0.44" stop-color="#d8812b"/>
      <stop offset="0.89" stop-color="#bc8a59"/>
      <stop offset="1" stop-color="#b77737"/>
    </linearGradient>
    <linearGradient id="linear-gradient-53" x1="-0.422" y1="0.934" x2="0.776" y2="0.254" xlink:href="#linear-gradient-6"/>
    <linearGradient id="linear-gradient-54" x1="0.146" y1="0.515" x2="1.126" y2="1.302" xlink:href="#linear-gradient-16"/>
    <linearGradient id="linear-gradient-55" x1="0.842" y1="1.208" x2="1.659" y2="1.512" xlink:href="#linear-gradient-6"/>
    <linearGradient id="linear-gradient-56" x1="0" y1="0.5" x2="1" y2="0.5" xlink:href="#linear-gradient-9"/>
    <linearGradient id="linear-gradient-57" x1="0.969" y1="0.537" x2="-0.022" y2="0.396" xlink:href="#linear-gradient-6"/>
    <linearGradient id="linear-gradient-58" x1="0.747" y1="0.342" x2="-0.121" y2="0.826" gradientUnits="objectBoundingBox">
      <stop offset="0.1" stop-color="#753200"/>
      <stop offset="0.48" stop-color="#8a3b00" stop-opacity="0.522"/>
      <stop offset="0.82" stop-color="#9a4100" stop-opacity="0.141"/>
      <stop offset="1" stop-color="#a04400" stop-opacity="0"/>
    </linearGradient>
    <linearGradient id="linear-gradient-59" x1="-0.171" y1="0.068" x2="0.845" y2="0.871" xlink:href="#linear-gradient-16"/>
    <linearGradient id="linear-gradient-60" x1="0.5" y1="1.4" x2="0.5" y2="0.243" xlink:href="#linear-gradient-9"/>
    <linearGradient id="linear-gradient-61" x1="0.892" y1="0.712" x2="0.266" y2="0.055" xlink:href="#linear-gradient-9"/>
  </defs>
  <g id="Group_31546" data-name="Group 31546" transform="translate(-585.028 -1039.243)">
    <g id="Group_25145" data-name="Group 25145">
      <g id="Black_Businessman-6" data-name="Black Businessman-6" transform="translate(584.726 1038.778)">
        <path id="Path" d="M123.017,59.6c-14.212,7.267-8.83,15.541-6,24.268,2.155,6.638,2.837,13.541-7.7,20.464l-99.5-.757C5.066,98.084.591,92.439.11,85.673A50.566,50.566,0,0,1,4.726,61.288C16.874,36.46,51.612.091,96.747,0,143.848-.1,148.4,46.617,123.017,59.6Z" transform="translate(0.301 0.465)" fill="url(#linear-gradient)"/>
        <rect id="Rectangle" width="67.273" height="46.195" rx="11.07" transform="translate(0.78 10.564)" fill="url(#linear-gradient-2)"/>
        <rect id="Rectangle-2" data-name="Rectangle" width="63.447" height="42.233" rx="6.61" transform="translate(2.694 12.547)" fill="#fff"/>
        <path id="Path-2" data-name="Path" d="M22.347,1.545,35.5,4.918a7.1,7.1,0,0,1,4.914,9.3L31.263,39.5,0,27.683,12.621,0Z" transform="translate(99.298 49.784)" fill="url(#linear-gradient-3)"/>
        <path id="Path-3" data-name="Path" d="M8.475,0A27.9,27.9,0,0,0,5.163,6.135C3.839,9.629,0,14.9,0,14.9l4.234,1.6S8.077,9.98,8.475,8.342,8.475,0,8.475,0Z" transform="translate(96.777 61.618)" fill="url(#linear-gradient-4)"/>
        <path id="Path-4" data-name="Path" d="M0,19.654l15.252,5.762,9.239,3.49s3.091-.391,3.311-2.267S27.14,8.647,25.208,5,18.475.5,18.475.5,14.777,3.4,12.57,3.148,11.115.5,11.115.5L8.707,0,5.914.53,4.234,3.157Z" transform="translate(101.016 58.462)" fill="url(#linear-gradient-5)"/>
        <path id="Path-5" data-name="Path" d="M0,2.179s1.545,4.6,3.333,4.3a25.059,25.059,0,0,1,.788-3.9L3.06,0Z" transform="translate(62.028 62.115)" fill="url(#linear-gradient-6)"/>
        <path id="Path-6" data-name="Path" d="M1.227,0,0,7.358,23.614,9.74,22.6.426,1.227,0Z" transform="translate(64.818 62.603)" fill="url(#linear-gradient-7)"/>
        <path id="Path-7" data-name="Path" d="M11.141,38.065A96.011,96.011,0,0,1,0,37.747C.36,35.195,2.115,22.634,2.249,18.04c.066-2.269.132-5.17.11-7.709V9.139c0-.2-.011-.393-.018-.585s-.011-.355-.018-.528q-.022-.517-.053-.98c0-.11-.015-.221-.024-.325l-.013-.17a.594.594,0,0,0-.015-.166,1.738,1.738,0,0,1-.02-.2c-.009-.064-.011-.1-.015-.146q-.022-.221-.053-.4a.841.841,0,0,0-.015-.1A4.441,4.441,0,0,0,2.027,5.1l-.04-.152q-.015-.055-.033-.106a.629.629,0,0,0-.035-.1.7.7,0,0,0-.038-.082.106.106,0,0,0-.018-.035.132.132,0,0,0-.02-.033h0L1.347.007a5.239,5.239,0,0,1,.53,0s4.782.1,6.757.022c.384,1.208.8,2.839.459,3.386-.512.815-1.433.956-.841,2.649h0a.673.673,0,0,0-.029.071.79.79,0,0,0-.024.077.43.43,0,0,1-.022.084l-.02.088C7.843,7.821,11.1,37.709,11.141,38.065Z" transform="translate(71.547 26.951)" fill="url(#linear-gradient-8)"/>
        <path id="Path-8" data-name="Path" d="M17.864,17.362c-.135,4.594-2.208,19.508-2.576,22.06a36.813,36.813,0,0,1-6.3-1.5l-.1-23.179L6.577,20.5,9.422,34.3l-4.031,2.87C3.323,37.948-.18,23.663.007,20.442.195,17.272,6.109,5.49,8.1,3.19,9.3,1.8,12.48.671,14.8,0L12.5,5.982s1.958.583,2.413-.442,1.578-2.208,2.415-1.766a.177.177,0,0,1,.042.029.285.285,0,0,1,.042.046l.033.046h0a.132.132,0,0,1,.02.033.106.106,0,0,1,.018.035.7.7,0,0,1,.038.082.994.994,0,0,1,.035.1q.018.049.033.106l.04.152c.031.132.06.283.088.442a.841.841,0,0,0,.015.1c.018.128.038.263.053.4,0,.049.011.1.015.146l.02.2c0,.055.011.108.015.166l.013.17c0,.106.015.221.024.325q.031.464.053.98c0,.172.013.347.018.528s.011.386.018.585V9.638C18,12.192,17.93,15.093,17.864,17.362Z" transform="translate(55.932 27.627)" fill="url(#linear-gradient-9)"/>
        <path id="Path-9" data-name="Path" d="M27.778,30.444,25.409,34.16a.788.788,0,0,1-1.163.185L13.323,25.4,7.676,17.354,9.047,37.493s.11.8-5.819,1.658C3.188,38.8-.276,7.033.018,5.57l.02-.088A.277.277,0,0,1,.06,5.4.79.79,0,0,1,.084,5.32.673.673,0,0,1,.113,5.25h0a.64.64,0,0,1,.046-.1.4.4,0,0,1,.029-.053l.04-.064a.408.408,0,0,1,.042-.06.3.3,0,0,1,.044-.049.32.32,0,0,1,.049-.046.466.466,0,0,1,.051-.042.556.556,0,0,1,.15-.088L.62,4.722A.649.649,0,0,1,.8,4.682a.925.925,0,0,1,.11,0,1.638,1.638,0,0,1,.717.2l-.682-1.5,5.263.985L3.647,0c2.6,1.13,6.011,3.329,6.812,5.587C11.636,8.9,17.8,20.338,17.8,20.338l9.888,9.4A.57.57,0,0,1,27.778,30.444Z" transform="translate(79.666 27.744)" fill="url(#linear-gradient-10)"/>
        <path id="Path-10" data-name="Path" d="M5.921,1.971C1.793,3.391-1.192,8.89.466,14.049L5.817,30.685l29.621-6.108L22.283,0Z" transform="translate(13.826 48.475)" fill="url(#linear-gradient-11)"/>
        <path id="Path-11" data-name="Path" d="M5.166,6.265l-.033-.046a.285.285,0,0,0-.042-.046.177.177,0,0,0-.042-.029C4.212,5.7,3.091,6.879,2.634,7.91S0,7.247,0,7.247L2.53,2.362l.265-.684L4.654,0V1.863l.285,3.3Z" transform="translate(68.426 26.359)" fill="url(#linear-gradient-12)"/>
        <path id="Path-12" data-name="Path" d="M1.827,6.042l.28,1.073C1.5,6.907.766,6.673.392,7.115a.949.949,0,0,0-.2.329C-.4,5.757.521,5.616,1.033,4.795,1.375,4.247.958,2.616.574,1.408.317.611.079,0,.079,0L2.487.32,3.733,2.172,6.786,6.367a.313.313,0,0,1-.309.494Z" transform="translate(79.594 25.876)" fill="url(#linear-gradient-13)"/>
        <path id="Path-13" data-name="Path" d="M1.487,5.993l.221,1.079a1.638,1.638,0,0,0-.717-.2.925.925,0,0,0-.11,0,.649.649,0,0,0-.181.04l-.057.022a.556.556,0,0,0-.15.088.466.466,0,0,0-.051.042.32.32,0,0,0-.049.046.3.3,0,0,0-.044.049.408.408,0,0,0-.042.06l-.04.064a.4.4,0,0,0-.029.053.64.64,0,0,0-.046.1C-.4,5.757.521,5.616,1.033,4.795,1.375,4.247.958,2.616.574,1.408.317.611.079,0,.079,0L2.487.32,3.733,2.172l2.89,4.3a.289.289,0,0,1-.294.442Z" transform="translate(79.594 25.532)" fill="url(#linear-gradient-14)"/>
        <path id="Path-14" data-name="Path" d="M1.14,22.664c.031-.521.132-1.861.181-3.417.033-1.079.064-2.2.091-3.06v-.221a10.629,10.629,0,0,0-.035-1.4c-.02-.029-.04-.055-.057-.084C-.344,12.12-.273,10.451.641,9.8a1.57,1.57,0,0,1,.393-.2h0a11.5,11.5,0,0,1,.322-5.85C2.727.169,7.625-.372,10.707.191s6.069,3.9,5.384,7.32a24.216,24.216,0,0,0-.79,3.843c-.026,1.221.673,3.172-.053,5.223-1.038,2.945-3.993,4.007-5.852,4.194a5.855,5.855,0,0,1-.713.026l-.031.512-.024.417-.026.442a4.977,4.977,0,0,1-.159,1.254,3.311,3.311,0,0,1-3.389,2.161C2.4,25.436,1.073,23.924,1.14,22.664Z" transform="translate(71.926 5.215)" fill="url(#linear-gradient-15)"/>
        <path id="Path-15" data-name="Path" d="M.088,1.7A10.847,10.847,0,0,0,7.309,7.239l.024-.417.031-.512C5.216,5.4,2.729,3.57,0,0,.018.029.038.055.057.084a10.629,10.629,0,0,1,.035,1.4C.091,1.554.091,1.625.088,1.7Z" transform="translate(73.253 19.701)" fill="url(#linear-gradient-16)"/>
        <path id="Path-16" data-name="Path" d="M1.292.5S.667-.429.177.244.371,2.119.371,2.119Z" transform="translate(72.757 15.835)" fill="url(#linear-gradient-17)"/>
        <circle id="Oval" cx="0.751" cy="0.751" r="0.751" transform="translate(72.088 37.128)" fill="url(#linear-gradient-18)"/>
        <circle id="Oval-2" data-name="Oval" cx="0.751" cy="0.751" r="0.751" transform="translate(71.936 43.426)" fill="url(#linear-gradient-19)"/>
        <circle id="Oval-3" data-name="Oval" cx="0.751" cy="0.751" r="0.751" transform="translate(71.34 49.823)" fill="url(#linear-gradient-19)"/>
        <circle id="Oval-4" data-name="Oval" cx="0.751" cy="0.751" r="0.751" transform="translate(70.589 56.96)" fill="url(#linear-gradient-19)"/>
        <circle id="Oval-5" data-name="Oval" cx="0.751" cy="0.751" r="0.751" transform="translate(69.461 64.696)" fill="url(#linear-gradient-19)"/>
        <path id="Path-17" data-name="Path" d="M0,.318,1.693,0" transform="translate(80.492 36.81)" fill="none" stroke="#707070" stroke-miterlimit="10" stroke-width="2"/>
        <path id="Path-18" data-name="Path" d="M0,.316,1.691,0" transform="translate(81.077 43.126)" fill="none" stroke="#707070" stroke-miterlimit="10" stroke-width="2"/>
        <path id="Path-19" data-name="Path" d="M0,.271,1.788.114" transform="translate(81.922 49.709)" fill="none" stroke="#707070" stroke-miterlimit="10" stroke-width="2"/>
        <path id="Path-20" data-name="Path" d="M0,.271,1.79.114" transform="translate(82.477 56.767)" fill="none" stroke="#707070" stroke-miterlimit="10" stroke-width="2"/>
        <path id="Path-21" data-name="Path" d="M0,.446,1.79,0" transform="translate(83.371 64.791)" fill="none" stroke="#707070" stroke-miterlimit="10" stroke-width="2"/>
        <path id="Path-22" data-name="Path" d="M5.227,30.1l-1.841.552L0,2.064H4.49L3.958,0" transform="translate(82.477 33.165)" fill="none" stroke="#707070" stroke-miterlimit="10" stroke-width="1"/>
        <path id="Path-23" data-name="Path" d="M0,2.892,4.426,0" transform="translate(60.044 58.996)" fill="none" stroke="#1f1844" stroke-miterlimit="10" stroke-width="1"/>
        <path id="Path-24" data-name="Path" d="M0,4.066,2.647,0" transform="translate(101.945 55.435)" fill="none" stroke="#1f1844" stroke-miterlimit="10" stroke-width="1"/>
        <path id="Path-25" data-name="Path" d="M.137,0,5.446.227l-.2,1.461-2.8.894L0,1.468.137,0Z" transform="translate(65.774 39.783)" fill="url(#linear-gradient-23)"/>
        <path id="Path-26" data-name="Path" d="M.137,0,5.446.227l-.2,1.464-2.8.892L0,1.47.137,0Z" transform="translate(65.774 39.452)" fill="url(#linear-gradient-24)"/>
        <path id="Path-27" data-name="Path" d="M0,0,.645,6.6l5.638-.055c-.731,14.314-.949,15.771-2.274,27.875L.7,33.669" transform="translate(65.483 29.695)" fill="none" stroke="#707070" stroke-miterlimit="10" stroke-width="1"/>
        <path id="Path-28" data-name="Path" d="M1.569,0,1.45.839C3.355,1.927,7.189,5.046,8,5.172c1.042.163,1.391-1.046,1.951-.766s.479,1.009.87,1.009A6.935,6.935,0,0,0,13,4.031s-.53,1.731-.676,2.091A16.422,16.422,0,0,1,9.673,9.055a.962.962,0,0,1-.764.247L6.452,9.027,5.216,8.314C3.491,7.393.017,3.762,0,3.267A11.855,11.855,0,0,1,.282.519Z" transform="translate(74.351 17.2)" fill="#1f1844"/>
        <path id="Path-29" data-name="Path" d="M137.369,24.215c-5.1,28.137-73.335,24.925-101.525,22.449C20.546,45.323,1.583,39.5.015,18.588a.891.891,0,0,0-.015-.2V15.336L73.167,0Z" transform="translate(0.422 67.753)" fill="url(#linear-gradient-25)"/>
        <ellipse id="Oval-6" data-name="Oval" cx="6.801" cy="3.408" rx="6.801" ry="3.408" transform="translate(32.356 100.058)" fill="#bfc3db" opacity="0.5" style="mix-blend-mode: multiply;isolation: isolate"/>
        <ellipse id="Oval-7" data-name="Oval" cx="6.801" cy="3.408" rx="6.801" ry="3.408" transform="translate(12.436 87.926)" fill="#bfc3db" opacity="0.5" style="mix-blend-mode: multiply;isolation: isolate"/>
        <path id="Path-30" data-name="Path" d="M.645,0,0,.552,23.471,10.9,39.985,3.046.645,0Z" transform="translate(75.827 84.089)" fill="#bbbfd9" opacity="0.5" style="mix-blend-mode: multiply;isolation: isolate"/>
        <path id="Path-31" data-name="Path" d="M0,0,2.841,17.515l23.3,9.462-3.673-19.7L0,0Z" transform="translate(73.631 65.574)" fill="url(#linear-gradient-26)"/>
        <path id="Path-32" data-name="Path" d="M0,4.534A7.776,7.776,0,0,0,1.472,6.144,5.671,5.671,0,0,1,3.314,8.152c.148.532,1.177-.5.477-1.6S2.283,4.782,2.5,4.34,4.748,1.656,6.881,1.876,7.322,0,6.367,0A23.4,23.4,0,0,0,1.951,1.475Z" transform="translate(105.252 57.084)" fill="url(#linear-gradient-27)"/>
        <path id="Path-33" data-name="Path" d="M6.7,0l.331,9L1.651,11.029,0,10.406,5.649,8.389S6.422.115,6.7,0Z" transform="translate(114.616 72.848)" fill="url(#linear-gradient-28)"/>
        <path id="Path-34" data-name="Path" d="M2.651,14.228l16.042-6.7L0,0,2.651,14.228Z" transform="translate(97.119 78.323)" fill="url(#linear-gradient-29)"/>
        <path id="Path-35" data-name="Path" d="M13.174,4.554c-.459.98-1.631,2.018-1.671,2.333h0c-.483,1-1.563,3.192-2.274,4.285-.94,1.444-3.753,1.682-4.768.267A20.351,20.351,0,0,0,1.149,8.265S-.111,7.205.008,6.643,2.736,5.161,2.917,4.02a4.279,4.279,0,0,0-.181-1.57A2.856,2.856,0,0,1,2.9.4V.377C3.125-.064,4.019-.082,5.187.137c.3.055.629.128.962.221h0a28.139,28.139,0,0,1,6.773,2.735A1.033,1.033,0,0,1,13.174,4.554Z" transform="translate(105.979 40.929)" fill="url(#linear-gradient-30)"/>
        <path id="Path-36" data-name="Path" d="M11.864,3.744l-1.7,2.943L7.707,6.055l-.731-2.57L1.679,2.1l-1.565.21A2.856,2.856,0,0,1,.281.26L2.573,0l.962.221h0l6.13,1.371Z" transform="translate(108.613 41.079)" fill="url(#linear-gradient-31)"/>
        <path id="Path-37" data-name="Path" d="M13.714,1.364a3.35,3.35,0,0,0-2.208,1.5,4,4,0,0,0-.4,2.318C11.037,5.159,11,5.139,11,5.139s-.96,3.245-1.863,3.987c-.422.349-2.1.364-3.872.221A18.793,18.793,0,0,1,.6,8.559C-.423,8.018.059,6.214.6,5.492a2.08,2.08,0,0,0,.316-.629c.79.3,1.954.68,2.148.329C3.284,4.786,1.882,3.733.915,3.205a.883.883,0,0,0-.137-.243c-.419-.541.541-1.585.541-1.585A21.163,21.163,0,0,1,4.63,4.552C5.657,5.96,8.458,5.726,9.4,4.285,10.109,3.192,11.189,1,11.672,0V.077A5.379,5.379,0,0,0,13.714,1.364Z" transform="translate(105.811 47.806)" fill="#1f1844"/>
        <path id="Path-38" data-name="Path" d="M2.148,1.98C1.954,2.331.79,1.956,0,1.651A2.512,2.512,0,0,0,0,0C.967.525,2.373,1.574,2.148,1.98Z" transform="translate(106.729 51.024)" fill="url(#linear-gradient-32)"/>
        <path id="Path-39" data-name="Path" d="M9.338,3.384a1.68,1.68,0,0,1-.57.676c-.051.3-.119.717-.188,1.2L8.439,6.289a17.64,17.64,0,0,0-.183,3.7C8.5,11.832,2.075,13.877.8,13.217c-.883-.466-.854-2.885-.755-4.278.022-.322.049-.589.066-.764,1.766.137,3.45.119,3.874-.221a3.062,3.062,0,0,0,.631-.863A19.623,19.623,0,0,0,5.852,3.967a6.438,6.438,0,0,1,.362-2.283A3.545,3.545,0,0,1,8.378,0h.481C9.929.21,10.221,1.554,9.338,3.384Z" transform="translate(110.969 48.987)" fill="url(#linear-gradient-33)"/>
        <path id="Shape" d="M.857,10.32h-.3s.9-1.424,1.037-1.709a.813.813,0,0,1-.139-.554S.074,8.658,0,8.2s1.068-.607,1.068-.607V7.159l1.592-.346.115-.378L1.171,6.228s-.077.1-.247.346c-.294-.9.662-1.693.662-1.693A.308.308,0,0,0,1.365,4.8a6.863,6.863,0,0,1,2.1-1.616L2.7,3V2.7s-1.592.232-1.477,0,1.2-.185,1.2-.185V2.241l1.892.046s.046.232.461.232.369-.139.461-.139.74.139.74.139,0-.455.161-.455.991.152,1.026-.124-.68,0-.68,0L5.334,1.733l.093-.508L3.44.81v-.2a.117.117,0,0,1,.183,0C3.716.72,3.97.278,3.97.278l1.1.208V0L7.637.369v.3l.254.024L8.111.508,8.994.8,9.087.369l1.991.347L10.555,5.17,6.72,9.144l-3.87-.532-1.324,1.5H1.387A11.679,11.679,0,0,0,.325,12.351,3.961,3.961,0,0,1,.857,10.32Z" transform="translate(103.825 33.079)" fill="#1f1844"/>
        <path id="Shape-2" data-name="Shape" d="M7.424,8.47,4.457,3.991,2.539,3.448l-.059-.126A11.553,11.553,0,0,0,0,3.322a3.936,3.936,0,0,1,2.062-.393l-.128-.272s1.671.205,1.987.205A.807.807,0,0,1,4.362,2.5s-1.139-.993-.75-1.254,1.009.7,1.009.7l.393-.177,1,1.289L6.4,3.007,5.9,1.461s-.124-.026-.417-.075c.684-.658,1.808-.135,1.808-.135a.309.309,0,0,0-.024-.234,6.755,6.755,0,0,1,2.36,1.2l-.161-.768.272-.128S8.841,0,9.1,0s.682,1,.682,1l.249-.119.762,1.722s-.177.141,0,.516.282.274.322.358.192.726.192.726.41-.2.479-.049.287.971.552.883-.291-.616-.291-.616l-.309-1.132.5-.135L11.76,1.188l.179-.084a.12.12,0,0,1,.078.066.118.118,0,0,1,0,.1c-.053.128.453.168.453.168l.287,1.091.441-.208.762,2.473-.269.13.086.238.267.128.115.916.426-.1.548,1.923L10.881,9.47Z" transform="translate(107.552 31.459)" fill="#1f1844"/>
        <path id="Path-40" data-name="Path" d="M0,.4,1.038,0l.221.4S2.523.046,2.706.2s.139.291.139.291L4.318.676,4.157.883s.461.344.391.344a5.464,5.464,0,0,0-.62.093,3.823,3.823,0,0,1-.506,0l-.115.221-.369.115s.967.046,1.082.391,1.519.254,1.4.53a.77.77,0,0,1-.276.369s1.128.322,1.082.483-.366.221-.366.221L5.2,3.556A.578.578,0,0,0,5.223,4a3.868,3.868,0,0,0,.735.508l-.022.221s.483.3.442.506l-.046.208s.53.552.506.691-.344.161-.344.161.022.205-.115.221a.826.826,0,0,1-.369-.093l-.3.095-.342-.247s1.15,1.656.9,1.748l-.254.093s.759,1.472.391,1.472-.442-.1-.442-.1L5.59,8.554l-.344.115-.457-.777-1.369.046-.98-1.987Z" transform="translate(120.237 36.594)" fill="#1f1844"/>
        <path id="Path-41" data-name="Path" d="M11.885,4.227c-.188-.095,0-.565.19-.85a1.325,1.325,0,0,0,.194-.342c-.15.181-.247.3-.247.3s-.053-.676-.086-1.325A2.02,2.02,0,0,1,11.6,1.96C9.579,1.556,7.733.938,5.846.5A.413.413,0,0,1,5.7.466,18.905,18.905,0,0,0,2.631,0,17.111,17.111,0,0,1,0,6.473c1.658.51,4.636,1.336,4.636,1.336L8.994,8.9,4.528,8.338l-.221,1.1,3,.728L6.36,13.309l1.325.475S8.729,12.96,9.49,13.6s.461,2.649-.49,3.819a9.011,9.011,0,0,1-.19,2.117s2.963-5.278,4.166-6.5a5.593,5.593,0,0,0,1.6-3.38A4.751,4.751,0,0,1,15.5,7.872C14.2,6.762,13.314,5.331,11.885,4.227Z" transform="translate(110.526 35.737)" fill="#1f1844"/>
        <path id="Path-42" data-name="Path" d="M0,0S2.808,1.448,5.126.155" transform="translate(73.911 31.304)" fill="none" stroke="#fff" stroke-miterlimit="10" stroke-width="1"/>
        <path id="Path-43" data-name="Path" d="M4.945,6.375l-.033-.046a.285.285,0,0,0-.042-.046.177.177,0,0,0-.042-.029c-.837-.442-1.958.735-2.415,1.766S0,8.462,0,8.462L1.488,2.238,4.828,0,4.64,2.9Z" transform="translate(68.426 25.147)" fill="url(#linear-gradient-34)"/>
        <path id="Path-44" data-name="Path" d="M0,.282,2.121.138" transform="translate(71.766 35.946)" fill="none" stroke="#707070" stroke-miterlimit="10" stroke-width="1"/>
        <path id="Path-45" data-name="Path" d="M2.7,0,0,.51" transform="translate(79.772 35.229)" fill="none" stroke="#707070" stroke-miterlimit="10" stroke-width="1"/>
        <path id="Path-46" data-name="Path" d="M0,6.7V7.958L16.042,1.28V0L0,6.7Z" transform="translate(99.77 85.855)" fill="#c8cce0"/>
        <path id="Path-47" data-name="Path" d="M23.3,10.724,0,1V0L23.3,9.462v1.263Z" transform="translate(76.472 83.089)" fill="#c8cce0"/>
        <circle id="Oval-8" data-name="Oval" cx="1.996" cy="1.996" r="1.996" transform="translate(82.271 76.367)" fill="#fff"/>
        <path id="Path-48" data-name="Path" d="M0,0S.241,2.475,1.656,2.925C3.918,3.642,9.486.678,9.486.678" transform="translate(109.85 60.554)" fill="none" stroke="#fff" stroke-miterlimit="10" stroke-width="1"/>
        <path id="Path-49" data-name="Path" d="M28.146,7.623,9.934,11.117,0,1.883,11.252,0,14.68,6.3l10.8-.74,2.665,2.064Z" transform="translate(50.412 93.537)" fill="url(#linear-gradient-35)"/>
        <path id="Path-50" data-name="Path" d="M28.146,7.623,9.934,11.117,0,1.883,11.252,0,14.68,6.3l10.8-.74,2.665,2.064Z" transform="translate(50.924 93.025)" fill="#0266f4"/>
        <path id="Path-51" data-name="Path" d="M11.7,2.333c0,2.477-2.618,4.486-5.85,4.486S0,4.81,0,2.333A3.729,3.729,0,0,1,.852,0h0c0,.662,2.238,1.19,5,1.19s5-.532,5-1.19h0a3.715,3.715,0,0,1,.85,2.333Z" transform="translate(34.277 100.056)" fill="url(#linear-gradient-36)"/>
        <path id="Path-52" data-name="Path" d="M10,1.179h0c0,.662-2.238,1.19-5,1.19s-5-.532-5-1.19H0C0,1.009.163.848.442.7h0A11.564,11.564,0,0,1,5,0,11.577,11.577,0,0,1,9.556.7h0C9.835.843,9.991,1.015,10,1.179Z" transform="translate(35.129 98.879)" fill="url(#linear-gradient-37)"/>
        <path id="Path-53" data-name="Path" d="M11.422,9.842a7.408,7.408,0,0,1-.744-.029h-.051A7.006,7.006,0,0,1,5.2,6.878a6.353,6.353,0,0,1-.415-.735,7.682,7.682,0,0,1-.57-1.616C3.7,2.339.945.844,0,.617c.32-1.132,4.3-.623,6.742.85A4.461,4.461,0,0,1,8.367,2.99h0l.3,1.3A7.66,7.66,0,0,0,9.216,6.37a10.307,10.307,0,0,0,.468.993A12.8,12.8,0,0,0,10.837,9.14C11.186,9.591,11.422,9.842,11.422,9.842Z" transform="translate(28.893 90.733)" fill="url(#linear-gradient-38)"/>
        <path id="Path-54" data-name="Path" d="M8.018,8.475S4.967,6.7,4.382,4.28A5.432,5.432,0,0,0,0,0" transform="translate(31.33 91.592)" fill="none" stroke="#fff" stroke-miterlimit="10" stroke-width="0.68"/>
        <path id="Path-55" data-name="Path" d="M.671,10.617s-1.713-6.971.336-8.782A6.606,6.606,0,0,1,8.541.732C5.483.915,4.631,3,4.83,4.9,5.013,6.628,2.719,11.1.671,10.617Z" transform="translate(39.644 89.955)" fill="#567900"/>
        <path id="Path-56" data-name="Path" d="M0,10.069C3.161,7.25-1.876,2.731,5.662,0" transform="translate(40.315 90.504)" fill="none" stroke="#fff" stroke-miterlimit="10" stroke-width="0.65"/>
        <path id="Path-57" data-name="Path" d="M4.31,2.324C3.1,2.545-.063,1.269,0,.379c.06-.812,2.669-.188,4,.64h0Z" transform="translate(33.263 92.714)" fill="url(#linear-gradient-39)"/>
        <path id="Path-58" data-name="Path" d="M5,1.514c-.841.4-3.4.071-4.492-.5C.226.867.043.706.006.534A.26.26,0,0,1,.094.28C.617-.21,3.229-.011,4.533.521A10.307,10.307,0,0,0,5,1.514Z" transform="translate(33.585 96.59)" fill="url(#linear-gradient-40)"/>
        <path id="Path-59" data-name="Path" d="M.053.15c.567-.965,4.656,3.011,3.94,3.885S-.49,1.068.053.15Z" transform="translate(34.654 87.255)" fill="url(#linear-gradient-41)"/>
        <path id="Path-60" data-name="Path" d="M0,.381c.082-1.124,5.016.492,4.762,1.6S-.078,1.456,0,.381Z" transform="translate(33.592 92.479)" fill="url(#linear-gradient-42)"/>
        <path id="Path-61" data-name="Path" d="M4.3.083C5.188.767.865,4.482.095,3.659S3.472-.571,4.3.083Z" transform="translate(38.438 87.805)" fill="url(#linear-gradient-43)"/>
        <path id="Path-62" data-name="Path" d="M4.124.192C4.857,1.022.691,3.11.066,2.179S3.424-.6,4.124.192Z" transform="translate(38.209 92.447)" fill="url(#linear-gradient-44)"/>
        <path id="Path-63" data-name="Path" d="M.34,0A32.687,32.687,0,0,1,.084,5.382C-.3,7.89.664,12.135,2.225,13.49" transform="translate(38.257 87.091)" fill="none" stroke="#707070" stroke-miterlimit="10" stroke-width="0.98"/>
        <path id="Path-64" data-name="Path" d="M.007.536C-.214-.493,5.23.094,5.276,1.161S.212,1.516.007.536Z" transform="translate(33.584 96.392)" fill="url(#linear-gradient-45)"/>
        <path id="Path-65" data-name="Path" d="M3.827.217C4.39,1.171.493,3.55.039,2.513S3.288-.69,3.827.217Z" transform="translate(38.7 95.027)" fill="url(#linear-gradient-46)"/>
        <path id="Path-66" data-name="Path" d="M1.794,0C2.9.082,1.471,5.612.385,5.359S.747-.074,1.794,0Z" transform="translate(38.183 82.956)" fill="url(#linear-gradient-47)"/>
        <path id="Path-67" data-name="Path" d="M8.512,0,8.384,2.13v.018l-.077.2A10.794,10.794,0,0,1,0,4.777c.022-.322.049-.589.066-.764,1.766.137,3.45.119,3.874-.221a3.062,3.062,0,0,0,.631-.863A8.188,8.188,0,0,0,8.512,0Z" transform="translate(111.013 53.146)" fill="url(#linear-gradient-48)"/>
        <path id="Path-68" data-name="Path" d="M14.989,1.732C9.69-2.9,2.406,2.586,1.081,8.547.7,10.161.326,12.642.015,15.09c-.5,3.91,11.7,2.715,11.85,2.841a5.307,5.307,0,0,0,2.572,2.411C20.589,16.132,19.516,6.055,14.989,1.732Z" transform="translate(28.975 38.729)" fill="url(#linear-gradient-49)"/>
        <path id="Path-69" data-name="Path" d="M25.722,8.5l-10.175.7-10.8.74-3.428-6.3L0,1.214,16.115,0l9.607,8.5Z" transform="translate(60.538 90.027)" fill="#bfc3db" opacity="0.5" style="mix-blend-mode: multiply;isolation: isolate"/>
        <path id="Path-70" data-name="Path" d="M25.722,8.5l-10.175.7-10.8.74-3.428-6.3L0,1.214,16.115,0l9.607,8.5Z" transform="translate(60.858 89.389)" fill="url(#linear-gradient-50)"/>
        <path id="Path-71" data-name="Path" d="M4.444,14.294l.393,2,6.205-.6,6.285-2.013-8.058-1.47S4.854,4.15,3.016,1.4C2.435.53.706.313,0,0Z" transform="translate(45.001 56.642)" fill="#ed9742"/>
        <path id="Path-72" data-name="Path" d="M0,1.709H22.075L22.153.636.419,0,0,1.709Z" transform="translate(50.489 82.917)" fill="#043f93"/>
        <path id="Path-73" data-name="Path" d="M0,1.073H22.075L22.153,0H.064L0,1.073Z" transform="translate(50.838 83.016)" fill="#2f44ff"/>
        <path id="Path-74" data-name="Path" d="M.744,0,0,12.172H22.089L22.967,0Z" transform="translate(50.902 70.844)" fill="#0266f4"/>
        <path id="Path-75" data-name="Path" d="M1.2,1.167A3.127,3.127,0,0,0,.221,1.8L0,4.551A18.7,18.7,0,0,0,2.993,5.876a14.128,14.128,0,0,0,2.428.351c1.04.079,2.389.168,2.34-.221S5.9,5.77,5.837,5.525s2.87-.161,2.87-.618-2.96-.113-2.96-.327S9.38,4.4,9.38,3.97c0-.55-3.658-.161-3.574-.521.051-.21,3.362-.152,3.331-.581s-1.846-.243-2.949-.336-2.23-.55-2.4-1.038S6.25.425,5.974.059s-4.782,1.1-4.782,1.1" transform="translate(46.569 76.805)" fill="url(#linear-gradient-51)"/>
        <path id="Path-76" data-name="Path" d="M12.507.014A7.98,7.98,0,0,1,17.7,1.546a6.91,6.91,0,0,1,1.572,1.618c1.362,1.987,2.007,8.526,1.4,14.349l-12.6,2.525c.83.34,7.817,2.265,10.737,2.378-1.649.916-1.1,3.85-1.1,3.85-6.843-.146-14.687-.751-16.042-6.141A70.2,70.2,0,0,1,0,7.458,6.2,6.2,0,0,1,3.4,1.4,21.73,21.73,0,0,1,9.061.193Z" transform="translate(29.163 55.432)" fill="url(#linear-gradient-52)"/>
        <path id="Path-77" data-name="Path" d="M13.924,5.977c-.029.32-.068.638-.113.949-.424-1.625-3.2-3.466-6.338-3.179,0,0,0,.38-.592.486s-.852-.631-.985,0-.13,1.483-.852,1.483A1.183,1.183,0,0,0,3.8,6.635c-.064.459,1.155,2.11.543,2.517-.7.464-1.205,2.208-1.205,2.208S2.591,7.33.421,9.69c-.152.442-.283.87-.391,1.3A1.518,1.518,0,0,1,.44,9.558a1.325,1.325,0,0,1,.329-.221A11.243,11.243,0,0,1,.244,6.025,7.64,7.64,0,0,1,.465,4.114C1.323.8,5.617-.169,8.412.023S14.191,2.871,13.924,5.977Z" transform="translate(33.13 35.776)" fill="url(#linear-gradient-53)"/>
        <path id="Path-78" data-name="Path" d="M.247,1.495a9.7,9.7,0,0,0,6.96,4.194l-.02-.373-.022-.459C5.179,4.267,2.782,2.885,0,0L.06.068A9.949,9.949,0,0,1,.23,1.307C.236,1.364.236,1.428.247,1.495Z" transform="translate(34.639 49.419)" fill="url(#linear-gradient-54)"/>
        <path id="Path-79" data-name="Path" d="M1.118.377S.473-.387.1.26.462,1.9.462,1.9Z" transform="translate(33.89 45.97)" fill="url(#linear-gradient-55)"/>
        <path id="Path-80" data-name="Path" d="M0,1.819S6.088,6.234,7.579,5.96,7.91,0,7.91,0" transform="translate(35.659 56.642)" fill="none" stroke="#fff" stroke-miterlimit="10" stroke-width="1"/>
        <path id="Path-81" data-name="Path" d="M25.318,21.135a4.244,4.244,0,0,1-.642,4.212c-.764.883-.611,1.938-1.238,2.483C22.168,25.885,21.02,24.15,19,23.369c3.6-3.956-1.444-11.1-1.817-12.539l-6.982,4.433s2.075,5.141-.74,8.83c-.594.781-3.188,5.766-5.876,4.49-1.607-.764-.556-2.322-.938-2.746C1.344,24.391-.08,22.861.589,21.669s.417-.627-.221-1.355A1.963,1.963,0,0,1,.5,17.885c.486-.662-.662-2.649.035-3.422a3.932,3.932,0,0,0,.987-3.89c-.181-.578.355-1.093.779-1.4s.545-1.038.466-2.225S3.717,5.337,4.022,5.03A3.178,3.178,0,0,0,4.986,3C5.373,1.456,7.9,1.456,9.349,1.434S10.375-.621,13.735.192c.536.13,1.263,1.265,3.051.9C18.671.7,20.808,2.5,20.682,3.395s2.349.956,2.532,3.77c0,.073.011.155.018.243a5.19,5.19,0,0,0,.759,2.272,5.192,5.192,0,0,1,.422.883c.413,1.144-.32,2.291,0,3.291a5.536,5.536,0,0,1,.249,3.974C23.934,19.516,25.033,20.5,25.318,21.135Z" transform="translate(26.052 32.623)" fill="url(#linear-gradient-56)"/>
        <path id="Path-82" data-name="Path" d="M14.049,10.488a6.062,6.062,0,0,1-4.775,4.3c-.157.031-.3.055-.442.071-.066.011-.128.018-.188.022l.022.459.042.585.035.519,1.161,4.87a.684.684,0,0,1-1.057.72c-2.329-1.625-6.444-3.894-6.49-4.715,0,0-.241-1.252-.57-5.057-.02-.238-.04-.486-.062-.744,0-.066-.013-.13-.018-.192-.011-.128-.029-.283-.046-.442a5.726,5.726,0,0,0-.124-.8.576.576,0,0,1-.06-.068A5.558,5.558,0,0,1,0,7.362c.062-.252.132-.5.221-.753a1.934,1.934,0,0,1,.808-1.093C2.68,4.492,3.117,7.724,3.117,7.724A9.678,9.678,0,0,0,10.077.05a2.744,2.744,0,0,1,2.128.468A4.25,4.25,0,0,1,13.793,3.3h0a11.321,11.321,0,0,0-.205,2.539C13.671,6.936,14.488,8.594,14.049,10.488Z" transform="translate(33.16 39.398)" fill="url(#linear-gradient-57)"/>
        <path id="Path-83" data-name="Path" d="M9.088.518A10.737,10.737,0,0,1,4.177,6.36C1.2,8.055,0,7.724,0,7.724A9.678,9.678,0,0,0,6.96.05,2.744,2.744,0,0,1,9.088.518Z" transform="translate(36.266 39.402)" fill="url(#linear-gradient-58)"/>
        <path id="Path-84" data-name="Path" d="M7,4.457l.042.585A10.747,10.747,0,0,1,.126,1.378C.106,1.139.086.892.064.634.064.567.051.5.046.442.035.313.018.159,0,0A19.894,19.894,0,0,0,7.17,3.974c-.066.011-.128.018-.188.022Z" transform="translate(34.822 50.28)" fill="url(#linear-gradient-59)"/>
        <ellipse id="Oval-9" data-name="Oval" cx="6.625" cy="2.532" rx="6.625" ry="2.532" transform="translate(13.581 89.215)" fill="#2d2e64"/>
        <ellipse id="Oval-10" data-name="Oval" cx="6.625" cy="2.532" rx="6.625" ry="2.532" transform="translate(13.581 88.301)" fill="url(#linear-gradient-60)"/>
        <path id="Path-85" data-name="Path" d="M5.272,18.49,0,9.512,5.62,0" transform="translate(14.935 72.343)" fill="none" stroke="#707070" stroke-miterlimit="10" stroke-width="4.15"/>
        <path id="Path-86" data-name="Path" d="M10.67,5.2,4.783,10.762.734,5.577A3.448,3.448,0,0,1,1.083.941h0A3.446,3.446,0,0,1,5.719.853Z" transform="translate(18.287 66.958)" fill="url(#linear-gradient-61)"/>
      </g>
    </g>
  </g>
</svg>
