<svg xmlns="http://www.w3.org/2000/svg" width="65" height="65" viewBox="0 0 65 65">
  <g id="Group_31560" data-name="Group 31560" transform="translate(-1232 -364)">
    <circle id="Ellipse_741" data-name="Ellipse 741" cx="32.5" cy="32.5" r="32.5" transform="translate(1232 364)" fill="rgba(238,28,36,0.1)"/>
    <g id="chart_1_" data-name="chart (1)" transform="translate(1246.797 356.565)">
      <g id="Group_31451" data-name="Group 31451" transform="translate(0 20.661)">
        <path id="Path_55872" data-name="Path 55872" d="M35.11,73.269l19.216-10.33-.4,1.636a.519.519,0,1,0,1.008.246l.675-2.767a.52.52,0,0,0-.381-.627l-2.767-.675a.519.519,0,0,0-.246,1.008l1.454.355L34.619,72.355a.519.519,0,1,0,.491.914Z" transform="translate(-31.971 -57.965)" fill="#af0606"/>
        <path id="Path_55873" data-name="Path 55873" d="M33.546,49.489H32.254V29.3a1.249,1.249,0,0,0-1.247-1.247h-2.1V25.328h4.428a.822.822,0,0,0,.629-1.35l-.826-.984.826-.984a.822.822,0,0,0-.629-1.35H28.39a.519.519,0,0,0-.519.519v6.872h-2.1A1.249,1.249,0,0,0,24.526,29.3v1.125a.519.519,0,1,0,1.037,0V29.3a.21.21,0,0,1,.21-.21h5.234a.21.21,0,0,1,.21.21v20.19H25.563V32.861a.519.519,0,0,0-1.037,0V49.489H21.567V36.555a1.249,1.249,0,0,0-1.247-1.247H15.086a1.249,1.249,0,0,0-1.247,1.247V49.489H10.88V42.923a1.249,1.249,0,0,0-1.247-1.247H4.4a1.249,1.249,0,0,0-1.247,1.247v1.135a.519.519,0,0,0,1.037,0V42.923a.21.21,0,0,1,.21-.21H9.633a.21.21,0,0,1,.21.21v6.566H4.189V46.473a.519.519,0,0,0-1.037,0v3.016H1.86a1.86,1.86,0,0,0,0,3.721H33.546a1.86,1.86,0,0,0,0-3.721ZM32.229,23.523l.645.768H28.909V21.7h3.965l-.645.768A.82.82,0,0,0,32.229,23.523ZM14.876,36.555a.21.21,0,0,1,.21-.21H20.32a.21.21,0,0,1,.21.21V49.489H14.876V36.555Zm18.67,15.617H1.86a.823.823,0,0,1,0-1.646H33.546a.823.823,0,0,1,0,1.646Z" transform="translate(0 -20.661)" fill="#af0606"/>
      </g>
    </g>
  </g>
</svg>
