<svg xmlns="http://www.w3.org/2000/svg" width="65" height="65" viewBox="0 0 65 65">
  <g id="Group_31558" data-name="Group 31558" transform="translate(-948 -158)">
    <circle id="Ellipse_1" data-name="Ellipse 1" cx="32.5" cy="32.5" r="32.5" transform="translate(948 158)" fill="rgba(0,196,113,0.1)"/>
    <path id="Path_52494" data-name="Path 52494" d="M33.441,61.047H28.7V56.491h4.741a1.29,1.29,0,1,0,0-2.579H28.7V47.589a3.05,3.05,0,0,0-.542-2.013A1.737,1.737,0,0,0,26.745,45a1.663,1.663,0,0,0-1.361.571,3.085,3.085,0,0,0-.536,2.017v6.323H15.93l-3.792-5.738c-.325-.512-.63-.992-.926-1.452a6.459,6.459,0,0,0-.773-1,2.473,2.473,0,0,0-.756-.529A2.5,2.5,0,0,0,8.651,45a2.609,2.609,0,0,0-1.458.439,2.413,2.413,0,0,0-.954,1.1,5.653,5.653,0,0,0-.256,1.934v5.433H1.289a1.29,1.29,0,0,0,0,2.579H5.983v4.557H1.289a1.289,1.289,0,0,0,0,2.579H5.983v7.218a2.984,2.984,0,0,0,.561,1.992,1.743,1.743,0,0,0,1.414.595,1.772,1.772,0,0,0,1.4-.6,2.916,2.916,0,0,0,.57-1.99V63.627H18l4.367,6.7c.3.443.617.889.93,1.328a6.283,6.283,0,0,0,.915,1.03,2.848,2.848,0,0,0,.932.571,3.443,3.443,0,0,0,1.163.182c1.181,0,2.391-.362,2.391-3.043V63.627h4.741a1.29,1.29,0,0,0,0-2.58ZM24.848,56.49v4.556h-4.2L17.635,56.49ZM9.933,51.255l1.733,2.656H9.933Zm0,9.792V56.491h3.415l2.972,4.556Zm14.915,6.36-2.5-3.78h2.5v3.78Z" transform="translate(963.135 130.783)" fill="#00c471"/>
  </g>
</svg>
