<svg xmlns="http://www.w3.org/2000/svg" width="65" height="65" viewBox="0 0 65 65">
  <g id="Group_31550" data-name="Group 31550" transform="translate(-356 -158)">
    <circle id="Ellipse_1" data-name="Ellipse 1" cx="32.5" cy="32.5" r="32.5" transform="translate(356 158)" fill="rgba(175,28,253,0.1)"/>
    <g id="megaphone_2_" data-name="megaphone (2)" transform="matrix(0.799, -0.602, 0.602, 0.799, 351.238, 162.516)">
      <path id="Path_52483" data-name="Path 52483" d="M24.63,38.458V34.487a1.986,1.986,0,0,0-3.971-.064,17.279,17.279,0,0,1-9.2,3.641v-.619a1.892,1.892,0,0,0-1.89-1.891H6.6a1.892,1.892,0,0,0-1.89,1.891v.676a5.345,5.345,0,0,0,0,10.615v.676A1.894,1.894,0,0,0,5.979,51.2v8.641a.626.626,0,0,0,.626.626H8.087a2.11,2.11,0,0,0,2.106-2.109V51.2a1.894,1.894,0,0,0,1.264-1.784v-.619a17.279,17.279,0,0,1,9.2,3.641,1.986,1.986,0,0,0,3.971-.064V48.4a5.477,5.477,0,0,0,0-9.94ZM9.238,47.522h-2.3V39.333h2.3ZM5.966,37.445A.64.64,0,0,1,6.6,36.8H9.568a.64.64,0,0,1,.639.64v.638H5.966ZM1.251,43.428A4.1,4.1,0,0,1,5.34,39.333h.343v8.189H5.34A4.1,4.1,0,0,1,1.251,43.428ZM8.942,58.353a.857.857,0,0,1-.855.858H7.23V51.3H8.942Zm1.264-8.941a.64.64,0,0,1-.639.64H6.6a.64.64,0,0,1-.639-.64v-.638h4.24Zm13.173,2.958a.735.735,0,1,1-1.471,0V46.239a.626.626,0,1,0-1.251,0v4.614a18.2,18.2,0,0,0-9.825-3.33h-.343V39.333h.343A18.206,18.206,0,0,0,20.657,36v4.614a.626.626,0,1,0,1.251,0V34.487a.735.735,0,1,1,1.471,0V52.369Zm1.251-5.4V39.884a4.225,4.225,0,0,1,0,7.088Z" fill="#af1cfd"/>
      <path id="Path_52484" data-name="Path 52484" d="M473.254,197.2h-1.293a.626.626,0,1,0,0,1.251h1.293a.626.626,0,1,0,0-1.251Z" transform="translate(-441.852 -154.393)" fill="#af1cfd"/>
      <path id="Path_52485" data-name="Path 52485" d="M461.529,117.017a.623.623,0,0,0,.442-.183l1.291-1.288a.626.626,0,1,0-.884-.886l-1.291,1.288a.626.626,0,0,0,.442,1.068Z" transform="translate(-432.072 -76.85)" fill="#af1cfd"/>
      <path id="Path_52486" data-name="Path 52486" d="M461.972,259.5a.626.626,0,1,0-.884.886l1.291,1.288a.626.626,0,0,0,.884-.886Z" transform="translate(-432.073 -212.63)" fill="#af1cfd"/>
      <path id="Path_52487" data-name="Path 52487" d="M330.855,197.2a.626.626,0,0,0-.626.626v0a.626.626,0,1,0,.626-.629Z" transform="translate(-309.572 -154.393)" fill="#af1cfd"/>
    </g>
  </g>
</svg>
